%TF.GenerationSoftware,KiCad,Pcbnew,10.0.4*%
%TF.CreationDate,2026-07-01T10:39:58-05:00*%
%TF.ProjectId,Hackboard_v1,4861636b-626f-4617-9264-5f76312e6b69,rev?*%
%TF.SameCoordinates,Original*%
%TF.FileFunction,Drillmap*%
%TF.FilePolarity,Positive*%
%FSLAX45Y45*%
G04 Gerber Fmt 4.5, Leading zero omitted, Abs format (unit mm)*
G04 Created by KiCad (PCBNEW 10.0.4) date 2026-07-01 10:39:58*
%MOMM*%
%LPD*%
G01*
G04 APERTURE LIST*
%ADD10C,0.050000*%
%ADD11C,0.200000*%
%ADD12C,0.100000*%
%ADD13C,0.150000*%
G04 APERTURE END LIST*
D10*
X7620000Y-3000000D02*
X15240000Y-3000000D01*
X15240000Y-12954000D01*
X7620000Y-12954000D01*
X7620000Y-3000000D01*
D11*
D12*
X8547500Y-7034500D02*
X8577500Y-7064500D01*
X8577500Y-7034500D02*
X8547500Y-7064500D01*
X8592500Y-6685000D02*
X8622500Y-6715000D01*
X8622500Y-6685000D02*
X8592500Y-6715000D01*
X8973556Y-4996444D02*
X9003556Y-5026444D01*
X9003556Y-4996444D02*
X8973556Y-5026444D01*
X9004000Y-5070425D02*
X9034000Y-5100425D01*
X9034000Y-5070425D02*
X9004000Y-5100425D01*
X9004000Y-5687388D02*
X9034000Y-5717388D01*
X9034000Y-5687388D02*
X9004000Y-5717388D01*
X9066500Y-6485000D02*
X9096500Y-6515000D01*
X9096500Y-6485000D02*
X9066500Y-6515000D01*
X9066500Y-4912612D02*
X9096500Y-4942612D01*
X9096500Y-4912612D02*
X9066500Y-4942612D01*
X10285000Y-8939500D02*
X10315000Y-8969500D01*
X10315000Y-8939500D02*
X10285000Y-8969500D01*
X10585000Y-8939500D02*
X10615000Y-8969500D01*
X10615000Y-8939500D02*
X10585000Y-8969500D01*
X10785000Y-4085000D02*
X10815000Y-4115000D01*
X10815000Y-4085000D02*
X10785000Y-4115000D01*
X11585000Y-4238500D02*
X11615000Y-4268500D01*
X11615000Y-4238500D02*
X11585000Y-4268500D01*
X12044000Y-10399000D02*
X12074000Y-10429000D01*
X12074000Y-10399000D02*
X12044000Y-10429000D01*
X12185000Y-7034500D02*
X12215000Y-7064500D01*
X12215000Y-7034500D02*
X12185000Y-7064500D01*
X12747500Y-6653839D02*
X12777500Y-6683839D01*
X12777500Y-6653839D02*
X12747500Y-6683839D01*
X9184000Y-6731000D02*
G75*
G02*
X9104000Y-6731000I-40000J0D01*
G01*
X9104000Y-6731000D02*
G75*
G02*
X9184000Y-6731000I40000J0D01*
G01*
X9184000Y-8636000D02*
G75*
G02*
X9104000Y-8636000I-40000J0D01*
G01*
X9104000Y-8636000D02*
G75*
G02*
X9184000Y-8636000I40000J0D01*
G01*
X9565000Y-10541000D02*
G75*
G02*
X9485000Y-10541000I-40000J0D01*
G01*
X9485000Y-10541000D02*
G75*
G02*
X9565000Y-10541000I40000J0D01*
G01*
X9946000Y-6731000D02*
G75*
G02*
X9866000Y-6731000I-40000J0D01*
G01*
X9866000Y-6731000D02*
G75*
G02*
X9946000Y-6731000I40000J0D01*
G01*
X9946000Y-8636000D02*
G75*
G02*
X9866000Y-8636000I-40000J0D01*
G01*
X9866000Y-8636000D02*
G75*
G02*
X9946000Y-8636000I40000J0D01*
G01*
X10327000Y-10541000D02*
G75*
G02*
X10247000Y-10541000I-40000J0D01*
G01*
X10247000Y-10541000D02*
G75*
G02*
X10327000Y-10541000I40000J0D01*
G01*
X10835000Y-6731000D02*
G75*
G02*
X10755000Y-6731000I-40000J0D01*
G01*
X10755000Y-6731000D02*
G75*
G02*
X10835000Y-6731000I40000J0D01*
G01*
X10962000Y-10541000D02*
G75*
G02*
X10882000Y-10541000I-40000J0D01*
G01*
X10882000Y-10541000D02*
G75*
G02*
X10962000Y-10541000I40000J0D01*
G01*
X11343000Y-8636000D02*
G75*
G02*
X11263000Y-8636000I-40000J0D01*
G01*
X11263000Y-8636000D02*
G75*
G02*
X11343000Y-8636000I40000J0D01*
G01*
X11597000Y-6731000D02*
G75*
G02*
X11517000Y-6731000I-40000J0D01*
G01*
X11517000Y-6731000D02*
G75*
G02*
X11597000Y-6731000I40000J0D01*
G01*
X11724000Y-10541000D02*
G75*
G02*
X11644000Y-10541000I-40000J0D01*
G01*
X11644000Y-10541000D02*
G75*
G02*
X11724000Y-10541000I40000J0D01*
G01*
X12105000Y-8636000D02*
G75*
G02*
X12025000Y-8636000I-40000J0D01*
G01*
X12025000Y-8636000D02*
G75*
G02*
X12105000Y-8636000I40000J0D01*
G01*
X12613000Y-6731000D02*
G75*
G02*
X12533000Y-6731000I-40000J0D01*
G01*
X12533000Y-6731000D02*
G75*
G02*
X12613000Y-6731000I40000J0D01*
G01*
X12994000Y-10541000D02*
G75*
G02*
X12914000Y-10541000I-40000J0D01*
G01*
X12914000Y-10541000D02*
G75*
G02*
X12994000Y-10541000I40000J0D01*
G01*
X13375000Y-6731000D02*
G75*
G02*
X13295000Y-6731000I-40000J0D01*
G01*
X13295000Y-6731000D02*
G75*
G02*
X13375000Y-6731000I40000J0D01*
G01*
X13375000Y-8636000D02*
G75*
G02*
X13295000Y-8636000I-40000J0D01*
G01*
X13295000Y-8636000D02*
G75*
G02*
X13375000Y-8636000I40000J0D01*
G01*
X13756000Y-10541000D02*
G75*
G02*
X13676000Y-10541000I-40000J0D01*
G01*
X13676000Y-10541000D02*
G75*
G02*
X13756000Y-10541000I40000J0D01*
G01*
X14137000Y-8636000D02*
G75*
G02*
X14057000Y-8636000I-40000J0D01*
G01*
X14057000Y-8636000D02*
G75*
G02*
X14137000Y-8636000I40000J0D01*
G01*
X8664000Y-5411000D02*
X8664000Y-5511000D01*
X8614000Y-5461000D02*
X8714000Y-5461000D01*
X8664000Y-5665000D02*
X8664000Y-5765000D01*
X8614000Y-5715000D02*
X8714000Y-5715000D01*
X8664000Y-5919000D02*
X8664000Y-6019000D01*
X8614000Y-5969000D02*
X8714000Y-5969000D01*
X8664000Y-6173000D02*
X8664000Y-6273000D01*
X8614000Y-6223000D02*
X8714000Y-6223000D01*
X8889500Y-3250000D02*
X8889500Y-3350000D01*
X8839500Y-3300000D02*
X8939500Y-3300000D01*
X8889500Y-3504000D02*
X8889500Y-3604000D01*
X8839500Y-3554000D02*
X8939500Y-3554000D01*
X8889500Y-3758000D02*
X8889500Y-3858000D01*
X8839500Y-3808000D02*
X8939500Y-3808000D01*
X8889500Y-4012000D02*
X8889500Y-4112000D01*
X8839500Y-4062000D02*
X8939500Y-4062000D01*
X8889500Y-4266000D02*
X8889500Y-4366000D01*
X8839500Y-4316000D02*
X8939500Y-4316000D01*
X8889500Y-4520000D02*
X8889500Y-4620000D01*
X8839500Y-4570000D02*
X8939500Y-4570000D01*
X8889500Y-4774000D02*
X8889500Y-4874000D01*
X8839500Y-4824000D02*
X8939500Y-4824000D01*
X10414500Y-3250000D02*
X10414500Y-3350000D01*
X10364500Y-3300000D02*
X10464500Y-3300000D01*
X10414500Y-3504000D02*
X10414500Y-3604000D01*
X10364500Y-3554000D02*
X10464500Y-3554000D01*
X10414500Y-3758000D02*
X10414500Y-3858000D01*
X10364500Y-3808000D02*
X10464500Y-3808000D01*
X10414500Y-4012000D02*
X10414500Y-4112000D01*
X10364500Y-4062000D02*
X10464500Y-4062000D01*
X10414500Y-4266000D02*
X10414500Y-4366000D01*
X10364500Y-4316000D02*
X10464500Y-4316000D01*
X10414500Y-4520000D02*
X10414500Y-4620000D01*
X10364500Y-4570000D02*
X10464500Y-4570000D01*
X10414500Y-4774000D02*
X10414500Y-4874000D01*
X10364500Y-4824000D02*
X10464500Y-4824000D01*
X12901000Y-5538000D02*
X12901000Y-5638000D01*
X12851000Y-5588000D02*
X12951000Y-5588000D01*
X12901000Y-5788000D02*
X12901000Y-5888000D01*
X12851000Y-5838000D02*
X12951000Y-5838000D01*
X12901000Y-6038000D02*
X12901000Y-6138000D01*
X12851000Y-6088000D02*
X12951000Y-6088000D01*
X14351000Y-5538000D02*
X14351000Y-5638000D01*
X14301000Y-5588000D02*
X14401000Y-5588000D01*
X14351000Y-6038000D02*
X14351000Y-6138000D01*
X14301000Y-6088000D02*
X14401000Y-6088000D01*
D13*
X9197034Y-7419033D02*
X9197034Y-7312966D01*
X9090967Y-7312966D01*
X9090967Y-7419033D01*
X9197034Y-7419033D01*
X9197034Y-9324034D02*
X9197034Y-9217967D01*
X9090967Y-9217967D01*
X9090967Y-9324034D01*
X9197034Y-9324034D01*
X9197034Y-11229033D02*
X9197034Y-11122967D01*
X9090967Y-11122967D01*
X9090967Y-11229033D01*
X9197034Y-11229033D01*
X9832034Y-7165033D02*
X9832034Y-7058966D01*
X9725967Y-7058966D01*
X9725967Y-7165033D01*
X9832034Y-7165033D01*
X9832034Y-9070034D02*
X9832034Y-8963967D01*
X9725967Y-8963967D01*
X9725967Y-9070034D01*
X9832034Y-9070034D01*
X9832034Y-10975034D02*
X9832034Y-10868967D01*
X9725967Y-10868967D01*
X9725967Y-10975034D01*
X9832034Y-10975034D01*
X11102034Y-7419033D02*
X11102034Y-7312966D01*
X10995967Y-7312966D01*
X10995967Y-7419033D01*
X11102034Y-7419033D01*
X11102034Y-9324034D02*
X11102034Y-9217967D01*
X10995967Y-9217967D01*
X10995967Y-9324034D01*
X11102034Y-9324034D01*
X11102034Y-11229033D02*
X11102034Y-11122967D01*
X10995967Y-11122967D01*
X10995967Y-11229033D01*
X11102034Y-11229033D01*
X11737033Y-7165033D02*
X11737033Y-7058966D01*
X11630966Y-7058966D01*
X11630966Y-7165033D01*
X11737033Y-7165033D01*
X11737033Y-9070034D02*
X11737033Y-8963967D01*
X11630966Y-8963967D01*
X11630966Y-9070034D01*
X11737033Y-9070034D01*
X11737033Y-10975034D02*
X11737033Y-10868967D01*
X11630966Y-10868967D01*
X11630966Y-10975034D01*
X11737033Y-10975034D01*
X13007033Y-7419033D02*
X13007033Y-7312966D01*
X12900966Y-7312966D01*
X12900966Y-7419033D01*
X13007033Y-7419033D01*
X13007033Y-9324034D02*
X13007033Y-9217967D01*
X12900966Y-9217967D01*
X12900966Y-9324034D01*
X13007033Y-9324034D01*
X13007033Y-11229033D02*
X13007033Y-11122967D01*
X12900966Y-11122967D01*
X12900966Y-11229033D01*
X13007033Y-11229033D01*
X13642033Y-7165033D02*
X13642033Y-7058966D01*
X13535966Y-7058966D01*
X13535966Y-7165033D01*
X13642033Y-7165033D01*
X13642033Y-9070034D02*
X13642033Y-8963967D01*
X13535966Y-8963967D01*
X13535966Y-9070034D01*
X13642033Y-9070034D01*
X13642033Y-10975034D02*
X13642033Y-10868967D01*
X13535966Y-10868967D01*
X13535966Y-10975034D01*
X13642033Y-10975034D01*
X13704033Y-5331034D02*
X13704033Y-5224967D01*
X13597966Y-5224967D01*
X13597966Y-5331034D01*
X13704033Y-5331034D01*
D12*
X13586000Y-5353000D02*
X13716000Y-5353000D01*
X13716000Y-5203000D02*
G75*
G02*
X13716000Y-5353000I0J-75000D01*
G01*
X13716000Y-5203000D02*
X13586000Y-5203000D01*
X13586000Y-5203000D02*
G75*
G03*
X13586000Y-5353000I0J-75000D01*
G01*
D13*
X13704033Y-6451033D02*
X13704033Y-6344966D01*
X13597966Y-6344966D01*
X13597966Y-6451033D01*
X13704033Y-6451033D01*
D12*
X13586000Y-6473000D02*
X13716000Y-6473000D01*
X13716000Y-6323000D02*
G75*
G02*
X13716000Y-6473000I0J-75000D01*
G01*
X13716000Y-6323000D02*
X13586000Y-6323000D01*
X13586000Y-6323000D02*
G75*
G03*
X13586000Y-6473000I0J-75000D01*
G01*
D11*
X7878277Y-13267984D02*
X7878277Y-13067984D01*
X7878277Y-13067984D02*
X7925896Y-13067984D01*
X7925896Y-13067984D02*
X7954467Y-13077508D01*
X7954467Y-13077508D02*
X7973515Y-13096555D01*
X7973515Y-13096555D02*
X7983039Y-13115603D01*
X7983039Y-13115603D02*
X7992562Y-13153698D01*
X7992562Y-13153698D02*
X7992562Y-13182269D01*
X7992562Y-13182269D02*
X7983039Y-13220365D01*
X7983039Y-13220365D02*
X7973515Y-13239412D01*
X7973515Y-13239412D02*
X7954467Y-13258460D01*
X7954467Y-13258460D02*
X7925896Y-13267984D01*
X7925896Y-13267984D02*
X7878277Y-13267984D01*
X8078277Y-13267984D02*
X8078277Y-13134650D01*
X8078277Y-13172746D02*
X8087801Y-13153698D01*
X8087801Y-13153698D02*
X8097324Y-13144174D01*
X8097324Y-13144174D02*
X8116372Y-13134650D01*
X8116372Y-13134650D02*
X8135420Y-13134650D01*
X8202086Y-13267984D02*
X8202086Y-13134650D01*
X8202086Y-13067984D02*
X8192562Y-13077508D01*
X8192562Y-13077508D02*
X8202086Y-13087031D01*
X8202086Y-13087031D02*
X8211610Y-13077508D01*
X8211610Y-13077508D02*
X8202086Y-13067984D01*
X8202086Y-13067984D02*
X8202086Y-13087031D01*
X8325896Y-13267984D02*
X8306848Y-13258460D01*
X8306848Y-13258460D02*
X8297324Y-13239412D01*
X8297324Y-13239412D02*
X8297324Y-13067984D01*
X8430658Y-13267984D02*
X8411610Y-13258460D01*
X8411610Y-13258460D02*
X8402086Y-13239412D01*
X8402086Y-13239412D02*
X8402086Y-13067984D01*
X8659229Y-13267984D02*
X8659229Y-13067984D01*
X8659229Y-13067984D02*
X8725896Y-13210841D01*
X8725896Y-13210841D02*
X8792563Y-13067984D01*
X8792563Y-13067984D02*
X8792563Y-13267984D01*
X8973515Y-13267984D02*
X8973515Y-13163222D01*
X8973515Y-13163222D02*
X8963991Y-13144174D01*
X8963991Y-13144174D02*
X8944944Y-13134650D01*
X8944944Y-13134650D02*
X8906848Y-13134650D01*
X8906848Y-13134650D02*
X8887801Y-13144174D01*
X8973515Y-13258460D02*
X8954467Y-13267984D01*
X8954467Y-13267984D02*
X8906848Y-13267984D01*
X8906848Y-13267984D02*
X8887801Y-13258460D01*
X8887801Y-13258460D02*
X8878277Y-13239412D01*
X8878277Y-13239412D02*
X8878277Y-13220365D01*
X8878277Y-13220365D02*
X8887801Y-13201317D01*
X8887801Y-13201317D02*
X8906848Y-13191793D01*
X8906848Y-13191793D02*
X8954467Y-13191793D01*
X8954467Y-13191793D02*
X8973515Y-13182269D01*
X9068753Y-13134650D02*
X9068753Y-13334650D01*
X9068753Y-13144174D02*
X9087801Y-13134650D01*
X9087801Y-13134650D02*
X9125896Y-13134650D01*
X9125896Y-13134650D02*
X9144944Y-13144174D01*
X9144944Y-13144174D02*
X9154467Y-13153698D01*
X9154467Y-13153698D02*
X9163991Y-13172746D01*
X9163991Y-13172746D02*
X9163991Y-13229888D01*
X9163991Y-13229888D02*
X9154467Y-13248936D01*
X9154467Y-13248936D02*
X9144944Y-13258460D01*
X9144944Y-13258460D02*
X9125896Y-13267984D01*
X9125896Y-13267984D02*
X9087801Y-13267984D01*
X9087801Y-13267984D02*
X9068753Y-13258460D01*
X9249705Y-13248936D02*
X9259229Y-13258460D01*
X9259229Y-13258460D02*
X9249705Y-13267984D01*
X9249705Y-13267984D02*
X9240182Y-13258460D01*
X9240182Y-13258460D02*
X9249705Y-13248936D01*
X9249705Y-13248936D02*
X9249705Y-13267984D01*
X9249705Y-13144174D02*
X9259229Y-13153698D01*
X9259229Y-13153698D02*
X9249705Y-13163222D01*
X9249705Y-13163222D02*
X9240182Y-13153698D01*
X9240182Y-13153698D02*
X9249705Y-13144174D01*
X9249705Y-13144174D02*
X9249705Y-13163222D01*
D12*
X7587500Y-13581500D02*
X7617500Y-13611500D01*
X7617500Y-13581500D02*
X7587500Y-13611500D01*
D11*
X7916372Y-13487984D02*
X7935420Y-13487984D01*
X7935420Y-13487984D02*
X7954467Y-13497508D01*
X7954467Y-13497508D02*
X7963991Y-13507031D01*
X7963991Y-13507031D02*
X7973515Y-13526079D01*
X7973515Y-13526079D02*
X7983039Y-13564174D01*
X7983039Y-13564174D02*
X7983039Y-13611793D01*
X7983039Y-13611793D02*
X7973515Y-13649888D01*
X7973515Y-13649888D02*
X7963991Y-13668936D01*
X7963991Y-13668936D02*
X7954467Y-13678460D01*
X7954467Y-13678460D02*
X7935420Y-13687984D01*
X7935420Y-13687984D02*
X7916372Y-13687984D01*
X7916372Y-13687984D02*
X7897324Y-13678460D01*
X7897324Y-13678460D02*
X7887801Y-13668936D01*
X7887801Y-13668936D02*
X7878277Y-13649888D01*
X7878277Y-13649888D02*
X7868753Y-13611793D01*
X7868753Y-13611793D02*
X7868753Y-13564174D01*
X7868753Y-13564174D02*
X7878277Y-13526079D01*
X7878277Y-13526079D02*
X7887801Y-13507031D01*
X7887801Y-13507031D02*
X7897324Y-13497508D01*
X7897324Y-13497508D02*
X7916372Y-13487984D01*
X8068753Y-13668936D02*
X8078277Y-13678460D01*
X8078277Y-13678460D02*
X8068753Y-13687984D01*
X8068753Y-13687984D02*
X8059229Y-13678460D01*
X8059229Y-13678460D02*
X8068753Y-13668936D01*
X8068753Y-13668936D02*
X8068753Y-13687984D01*
X8144943Y-13487984D02*
X8268753Y-13487984D01*
X8268753Y-13487984D02*
X8202086Y-13564174D01*
X8202086Y-13564174D02*
X8230658Y-13564174D01*
X8230658Y-13564174D02*
X8249705Y-13573698D01*
X8249705Y-13573698D02*
X8259229Y-13583222D01*
X8259229Y-13583222D02*
X8268753Y-13602269D01*
X8268753Y-13602269D02*
X8268753Y-13649888D01*
X8268753Y-13649888D02*
X8259229Y-13668936D01*
X8259229Y-13668936D02*
X8249705Y-13678460D01*
X8249705Y-13678460D02*
X8230658Y-13687984D01*
X8230658Y-13687984D02*
X8173515Y-13687984D01*
X8173515Y-13687984D02*
X8154467Y-13678460D01*
X8154467Y-13678460D02*
X8144943Y-13668936D01*
X8392563Y-13487984D02*
X8411610Y-13487984D01*
X8411610Y-13487984D02*
X8430658Y-13497508D01*
X8430658Y-13497508D02*
X8440182Y-13507031D01*
X8440182Y-13507031D02*
X8449705Y-13526079D01*
X8449705Y-13526079D02*
X8459229Y-13564174D01*
X8459229Y-13564174D02*
X8459229Y-13611793D01*
X8459229Y-13611793D02*
X8449705Y-13649888D01*
X8449705Y-13649888D02*
X8440182Y-13668936D01*
X8440182Y-13668936D02*
X8430658Y-13678460D01*
X8430658Y-13678460D02*
X8411610Y-13687984D01*
X8411610Y-13687984D02*
X8392563Y-13687984D01*
X8392563Y-13687984D02*
X8373515Y-13678460D01*
X8373515Y-13678460D02*
X8363991Y-13668936D01*
X8363991Y-13668936D02*
X8354467Y-13649888D01*
X8354467Y-13649888D02*
X8344943Y-13611793D01*
X8344943Y-13611793D02*
X8344943Y-13564174D01*
X8344943Y-13564174D02*
X8354467Y-13526079D01*
X8354467Y-13526079D02*
X8363991Y-13507031D01*
X8363991Y-13507031D02*
X8373515Y-13497508D01*
X8373515Y-13497508D02*
X8392563Y-13487984D01*
X8583039Y-13487984D02*
X8602086Y-13487984D01*
X8602086Y-13487984D02*
X8621134Y-13497508D01*
X8621134Y-13497508D02*
X8630658Y-13507031D01*
X8630658Y-13507031D02*
X8640182Y-13526079D01*
X8640182Y-13526079D02*
X8649705Y-13564174D01*
X8649705Y-13564174D02*
X8649705Y-13611793D01*
X8649705Y-13611793D02*
X8640182Y-13649888D01*
X8640182Y-13649888D02*
X8630658Y-13668936D01*
X8630658Y-13668936D02*
X8621134Y-13678460D01*
X8621134Y-13678460D02*
X8602086Y-13687984D01*
X8602086Y-13687984D02*
X8583039Y-13687984D01*
X8583039Y-13687984D02*
X8563991Y-13678460D01*
X8563991Y-13678460D02*
X8554467Y-13668936D01*
X8554467Y-13668936D02*
X8544944Y-13649888D01*
X8544944Y-13649888D02*
X8535420Y-13611793D01*
X8535420Y-13611793D02*
X8535420Y-13564174D01*
X8535420Y-13564174D02*
X8544944Y-13526079D01*
X8544944Y-13526079D02*
X8554467Y-13507031D01*
X8554467Y-13507031D02*
X8563991Y-13497508D01*
X8563991Y-13497508D02*
X8583039Y-13487984D01*
X8735420Y-13687984D02*
X8735420Y-13554650D01*
X8735420Y-13573698D02*
X8744944Y-13564174D01*
X8744944Y-13564174D02*
X8763991Y-13554650D01*
X8763991Y-13554650D02*
X8792563Y-13554650D01*
X8792563Y-13554650D02*
X8811610Y-13564174D01*
X8811610Y-13564174D02*
X8821134Y-13583222D01*
X8821134Y-13583222D02*
X8821134Y-13687984D01*
X8821134Y-13583222D02*
X8830658Y-13564174D01*
X8830658Y-13564174D02*
X8849705Y-13554650D01*
X8849705Y-13554650D02*
X8878277Y-13554650D01*
X8878277Y-13554650D02*
X8897325Y-13564174D01*
X8897325Y-13564174D02*
X8906848Y-13583222D01*
X8906848Y-13583222D02*
X8906848Y-13687984D01*
X9002086Y-13687984D02*
X9002086Y-13554650D01*
X9002086Y-13573698D02*
X9011610Y-13564174D01*
X9011610Y-13564174D02*
X9030658Y-13554650D01*
X9030658Y-13554650D02*
X9059229Y-13554650D01*
X9059229Y-13554650D02*
X9078277Y-13564174D01*
X9078277Y-13564174D02*
X9087801Y-13583222D01*
X9087801Y-13583222D02*
X9087801Y-13687984D01*
X9087801Y-13583222D02*
X9097325Y-13564174D01*
X9097325Y-13564174D02*
X9116372Y-13554650D01*
X9116372Y-13554650D02*
X9144944Y-13554650D01*
X9144944Y-13554650D02*
X9163991Y-13564174D01*
X9163991Y-13564174D02*
X9173515Y-13583222D01*
X9173515Y-13583222D02*
X9173515Y-13687984D01*
X9563991Y-13478460D02*
X9392563Y-13735603D01*
X9821134Y-13487984D02*
X9840182Y-13487984D01*
X9840182Y-13487984D02*
X9859229Y-13497508D01*
X9859229Y-13497508D02*
X9868753Y-13507031D01*
X9868753Y-13507031D02*
X9878277Y-13526079D01*
X9878277Y-13526079D02*
X9887801Y-13564174D01*
X9887801Y-13564174D02*
X9887801Y-13611793D01*
X9887801Y-13611793D02*
X9878277Y-13649888D01*
X9878277Y-13649888D02*
X9868753Y-13668936D01*
X9868753Y-13668936D02*
X9859229Y-13678460D01*
X9859229Y-13678460D02*
X9840182Y-13687984D01*
X9840182Y-13687984D02*
X9821134Y-13687984D01*
X9821134Y-13687984D02*
X9802087Y-13678460D01*
X9802087Y-13678460D02*
X9792563Y-13668936D01*
X9792563Y-13668936D02*
X9783039Y-13649888D01*
X9783039Y-13649888D02*
X9773515Y-13611793D01*
X9773515Y-13611793D02*
X9773515Y-13564174D01*
X9773515Y-13564174D02*
X9783039Y-13526079D01*
X9783039Y-13526079D02*
X9792563Y-13507031D01*
X9792563Y-13507031D02*
X9802087Y-13497508D01*
X9802087Y-13497508D02*
X9821134Y-13487984D01*
X9973515Y-13668936D02*
X9983039Y-13678460D01*
X9983039Y-13678460D02*
X9973515Y-13687984D01*
X9973515Y-13687984D02*
X9963991Y-13678460D01*
X9963991Y-13678460D02*
X9973515Y-13668936D01*
X9973515Y-13668936D02*
X9973515Y-13687984D01*
X10106848Y-13487984D02*
X10125896Y-13487984D01*
X10125896Y-13487984D02*
X10144944Y-13497508D01*
X10144944Y-13497508D02*
X10154468Y-13507031D01*
X10154468Y-13507031D02*
X10163991Y-13526079D01*
X10163991Y-13526079D02*
X10173515Y-13564174D01*
X10173515Y-13564174D02*
X10173515Y-13611793D01*
X10173515Y-13611793D02*
X10163991Y-13649888D01*
X10163991Y-13649888D02*
X10154468Y-13668936D01*
X10154468Y-13668936D02*
X10144944Y-13678460D01*
X10144944Y-13678460D02*
X10125896Y-13687984D01*
X10125896Y-13687984D02*
X10106848Y-13687984D01*
X10106848Y-13687984D02*
X10087801Y-13678460D01*
X10087801Y-13678460D02*
X10078277Y-13668936D01*
X10078277Y-13668936D02*
X10068753Y-13649888D01*
X10068753Y-13649888D02*
X10059229Y-13611793D01*
X10059229Y-13611793D02*
X10059229Y-13564174D01*
X10059229Y-13564174D02*
X10068753Y-13526079D01*
X10068753Y-13526079D02*
X10078277Y-13507031D01*
X10078277Y-13507031D02*
X10087801Y-13497508D01*
X10087801Y-13497508D02*
X10106848Y-13487984D01*
X10363991Y-13687984D02*
X10249706Y-13687984D01*
X10306848Y-13687984D02*
X10306848Y-13487984D01*
X10306848Y-13487984D02*
X10287801Y-13516555D01*
X10287801Y-13516555D02*
X10268753Y-13535603D01*
X10268753Y-13535603D02*
X10249706Y-13545127D01*
X10554468Y-13687984D02*
X10440182Y-13687984D01*
X10497325Y-13687984D02*
X10497325Y-13487984D01*
X10497325Y-13487984D02*
X10478277Y-13516555D01*
X10478277Y-13516555D02*
X10459229Y-13535603D01*
X10459229Y-13535603D02*
X10440182Y-13545127D01*
X10668753Y-13573698D02*
X10649706Y-13564174D01*
X10649706Y-13564174D02*
X10640182Y-13554650D01*
X10640182Y-13554650D02*
X10630658Y-13535603D01*
X10630658Y-13535603D02*
X10630658Y-13526079D01*
X10630658Y-13526079D02*
X10640182Y-13507031D01*
X10640182Y-13507031D02*
X10649706Y-13497508D01*
X10649706Y-13497508D02*
X10668753Y-13487984D01*
X10668753Y-13487984D02*
X10706849Y-13487984D01*
X10706849Y-13487984D02*
X10725896Y-13497508D01*
X10725896Y-13497508D02*
X10735420Y-13507031D01*
X10735420Y-13507031D02*
X10744944Y-13526079D01*
X10744944Y-13526079D02*
X10744944Y-13535603D01*
X10744944Y-13535603D02*
X10735420Y-13554650D01*
X10735420Y-13554650D02*
X10725896Y-13564174D01*
X10725896Y-13564174D02*
X10706849Y-13573698D01*
X10706849Y-13573698D02*
X10668753Y-13573698D01*
X10668753Y-13573698D02*
X10649706Y-13583222D01*
X10649706Y-13583222D02*
X10640182Y-13592746D01*
X10640182Y-13592746D02*
X10630658Y-13611793D01*
X10630658Y-13611793D02*
X10630658Y-13649888D01*
X10630658Y-13649888D02*
X10640182Y-13668936D01*
X10640182Y-13668936D02*
X10649706Y-13678460D01*
X10649706Y-13678460D02*
X10668753Y-13687984D01*
X10668753Y-13687984D02*
X10706849Y-13687984D01*
X10706849Y-13687984D02*
X10725896Y-13678460D01*
X10725896Y-13678460D02*
X10735420Y-13668936D01*
X10735420Y-13668936D02*
X10744944Y-13649888D01*
X10744944Y-13649888D02*
X10744944Y-13611793D01*
X10744944Y-13611793D02*
X10735420Y-13592746D01*
X10735420Y-13592746D02*
X10725896Y-13583222D01*
X10725896Y-13583222D02*
X10706849Y-13573698D01*
X10821134Y-13487984D02*
X10821134Y-13526079D01*
X10897325Y-13487984D02*
X10897325Y-13526079D01*
X11192563Y-13764174D02*
X11183039Y-13754650D01*
X11183039Y-13754650D02*
X11163991Y-13726079D01*
X11163991Y-13726079D02*
X11154468Y-13707031D01*
X11154468Y-13707031D02*
X11144944Y-13678460D01*
X11144944Y-13678460D02*
X11135420Y-13630841D01*
X11135420Y-13630841D02*
X11135420Y-13592746D01*
X11135420Y-13592746D02*
X11144944Y-13545127D01*
X11144944Y-13545127D02*
X11154468Y-13516555D01*
X11154468Y-13516555D02*
X11163991Y-13497508D01*
X11163991Y-13497508D02*
X11183039Y-13468936D01*
X11183039Y-13468936D02*
X11192563Y-13459412D01*
X11373515Y-13687984D02*
X11259229Y-13687984D01*
X11316372Y-13687984D02*
X11316372Y-13487984D01*
X11316372Y-13487984D02*
X11297325Y-13516555D01*
X11297325Y-13516555D02*
X11278277Y-13535603D01*
X11278277Y-13535603D02*
X11259229Y-13545127D01*
X11544944Y-13554650D02*
X11544944Y-13687984D01*
X11497325Y-13478460D02*
X11449706Y-13621317D01*
X11449706Y-13621317D02*
X11573515Y-13621317D01*
X11802087Y-13687984D02*
X11802087Y-13487984D01*
X11887801Y-13687984D02*
X11887801Y-13583222D01*
X11887801Y-13583222D02*
X11878277Y-13564174D01*
X11878277Y-13564174D02*
X11859230Y-13554650D01*
X11859230Y-13554650D02*
X11830658Y-13554650D01*
X11830658Y-13554650D02*
X11811610Y-13564174D01*
X11811610Y-13564174D02*
X11802087Y-13573698D01*
X12011610Y-13687984D02*
X11992563Y-13678460D01*
X11992563Y-13678460D02*
X11983039Y-13668936D01*
X11983039Y-13668936D02*
X11973515Y-13649888D01*
X11973515Y-13649888D02*
X11973515Y-13592746D01*
X11973515Y-13592746D02*
X11983039Y-13573698D01*
X11983039Y-13573698D02*
X11992563Y-13564174D01*
X11992563Y-13564174D02*
X12011610Y-13554650D01*
X12011610Y-13554650D02*
X12040182Y-13554650D01*
X12040182Y-13554650D02*
X12059230Y-13564174D01*
X12059230Y-13564174D02*
X12068753Y-13573698D01*
X12068753Y-13573698D02*
X12078277Y-13592746D01*
X12078277Y-13592746D02*
X12078277Y-13649888D01*
X12078277Y-13649888D02*
X12068753Y-13668936D01*
X12068753Y-13668936D02*
X12059230Y-13678460D01*
X12059230Y-13678460D02*
X12040182Y-13687984D01*
X12040182Y-13687984D02*
X12011610Y-13687984D01*
X12192563Y-13687984D02*
X12173515Y-13678460D01*
X12173515Y-13678460D02*
X12163991Y-13659412D01*
X12163991Y-13659412D02*
X12163991Y-13487984D01*
X12344944Y-13678460D02*
X12325896Y-13687984D01*
X12325896Y-13687984D02*
X12287801Y-13687984D01*
X12287801Y-13687984D02*
X12268753Y-13678460D01*
X12268753Y-13678460D02*
X12259230Y-13659412D01*
X12259230Y-13659412D02*
X12259230Y-13583222D01*
X12259230Y-13583222D02*
X12268753Y-13564174D01*
X12268753Y-13564174D02*
X12287801Y-13554650D01*
X12287801Y-13554650D02*
X12325896Y-13554650D01*
X12325896Y-13554650D02*
X12344944Y-13564174D01*
X12344944Y-13564174D02*
X12354468Y-13583222D01*
X12354468Y-13583222D02*
X12354468Y-13602269D01*
X12354468Y-13602269D02*
X12259230Y-13621317D01*
X12430658Y-13678460D02*
X12449706Y-13687984D01*
X12449706Y-13687984D02*
X12487801Y-13687984D01*
X12487801Y-13687984D02*
X12506849Y-13678460D01*
X12506849Y-13678460D02*
X12516372Y-13659412D01*
X12516372Y-13659412D02*
X12516372Y-13649888D01*
X12516372Y-13649888D02*
X12506849Y-13630841D01*
X12506849Y-13630841D02*
X12487801Y-13621317D01*
X12487801Y-13621317D02*
X12459230Y-13621317D01*
X12459230Y-13621317D02*
X12440182Y-13611793D01*
X12440182Y-13611793D02*
X12430658Y-13592746D01*
X12430658Y-13592746D02*
X12430658Y-13583222D01*
X12430658Y-13583222D02*
X12440182Y-13564174D01*
X12440182Y-13564174D02*
X12459230Y-13554650D01*
X12459230Y-13554650D02*
X12487801Y-13554650D01*
X12487801Y-13554650D02*
X12506849Y-13564174D01*
X12583039Y-13764174D02*
X12592563Y-13754650D01*
X12592563Y-13754650D02*
X12611611Y-13726079D01*
X12611611Y-13726079D02*
X12621134Y-13707031D01*
X12621134Y-13707031D02*
X12630658Y-13678460D01*
X12630658Y-13678460D02*
X12640182Y-13630841D01*
X12640182Y-13630841D02*
X12640182Y-13592746D01*
X12640182Y-13592746D02*
X12630658Y-13545127D01*
X12630658Y-13545127D02*
X12621134Y-13516555D01*
X12621134Y-13516555D02*
X12611611Y-13497508D01*
X12611611Y-13497508D02*
X12592563Y-13468936D01*
X12592563Y-13468936D02*
X12583039Y-13459412D01*
D12*
X7617500Y-13860500D02*
G75*
G02*
X7537500Y-13860500I-40000J0D01*
G01*
X7537500Y-13860500D02*
G75*
G02*
X7617500Y-13860500I40000J0D01*
G01*
D11*
X7916372Y-13751984D02*
X7935420Y-13751984D01*
X7935420Y-13751984D02*
X7954467Y-13761508D01*
X7954467Y-13761508D02*
X7963991Y-13771031D01*
X7963991Y-13771031D02*
X7973515Y-13790079D01*
X7973515Y-13790079D02*
X7983039Y-13828174D01*
X7983039Y-13828174D02*
X7983039Y-13875793D01*
X7983039Y-13875793D02*
X7973515Y-13913888D01*
X7973515Y-13913888D02*
X7963991Y-13932936D01*
X7963991Y-13932936D02*
X7954467Y-13942460D01*
X7954467Y-13942460D02*
X7935420Y-13951984D01*
X7935420Y-13951984D02*
X7916372Y-13951984D01*
X7916372Y-13951984D02*
X7897324Y-13942460D01*
X7897324Y-13942460D02*
X7887801Y-13932936D01*
X7887801Y-13932936D02*
X7878277Y-13913888D01*
X7878277Y-13913888D02*
X7868753Y-13875793D01*
X7868753Y-13875793D02*
X7868753Y-13828174D01*
X7868753Y-13828174D02*
X7878277Y-13790079D01*
X7878277Y-13790079D02*
X7887801Y-13771031D01*
X7887801Y-13771031D02*
X7897324Y-13761508D01*
X7897324Y-13761508D02*
X7916372Y-13751984D01*
X8068753Y-13932936D02*
X8078277Y-13942460D01*
X8078277Y-13942460D02*
X8068753Y-13951984D01*
X8068753Y-13951984D02*
X8059229Y-13942460D01*
X8059229Y-13942460D02*
X8068753Y-13932936D01*
X8068753Y-13932936D02*
X8068753Y-13951984D01*
X8192562Y-13837698D02*
X8173515Y-13828174D01*
X8173515Y-13828174D02*
X8163991Y-13818650D01*
X8163991Y-13818650D02*
X8154467Y-13799603D01*
X8154467Y-13799603D02*
X8154467Y-13790079D01*
X8154467Y-13790079D02*
X8163991Y-13771031D01*
X8163991Y-13771031D02*
X8173515Y-13761508D01*
X8173515Y-13761508D02*
X8192562Y-13751984D01*
X8192562Y-13751984D02*
X8230658Y-13751984D01*
X8230658Y-13751984D02*
X8249705Y-13761508D01*
X8249705Y-13761508D02*
X8259229Y-13771031D01*
X8259229Y-13771031D02*
X8268753Y-13790079D01*
X8268753Y-13790079D02*
X8268753Y-13799603D01*
X8268753Y-13799603D02*
X8259229Y-13818650D01*
X8259229Y-13818650D02*
X8249705Y-13828174D01*
X8249705Y-13828174D02*
X8230658Y-13837698D01*
X8230658Y-13837698D02*
X8192562Y-13837698D01*
X8192562Y-13837698D02*
X8173515Y-13847222D01*
X8173515Y-13847222D02*
X8163991Y-13856746D01*
X8163991Y-13856746D02*
X8154467Y-13875793D01*
X8154467Y-13875793D02*
X8154467Y-13913888D01*
X8154467Y-13913888D02*
X8163991Y-13932936D01*
X8163991Y-13932936D02*
X8173515Y-13942460D01*
X8173515Y-13942460D02*
X8192562Y-13951984D01*
X8192562Y-13951984D02*
X8230658Y-13951984D01*
X8230658Y-13951984D02*
X8249705Y-13942460D01*
X8249705Y-13942460D02*
X8259229Y-13932936D01*
X8259229Y-13932936D02*
X8268753Y-13913888D01*
X8268753Y-13913888D02*
X8268753Y-13875793D01*
X8268753Y-13875793D02*
X8259229Y-13856746D01*
X8259229Y-13856746D02*
X8249705Y-13847222D01*
X8249705Y-13847222D02*
X8230658Y-13837698D01*
X8392563Y-13751984D02*
X8411610Y-13751984D01*
X8411610Y-13751984D02*
X8430658Y-13761508D01*
X8430658Y-13761508D02*
X8440182Y-13771031D01*
X8440182Y-13771031D02*
X8449705Y-13790079D01*
X8449705Y-13790079D02*
X8459229Y-13828174D01*
X8459229Y-13828174D02*
X8459229Y-13875793D01*
X8459229Y-13875793D02*
X8449705Y-13913888D01*
X8449705Y-13913888D02*
X8440182Y-13932936D01*
X8440182Y-13932936D02*
X8430658Y-13942460D01*
X8430658Y-13942460D02*
X8411610Y-13951984D01*
X8411610Y-13951984D02*
X8392563Y-13951984D01*
X8392563Y-13951984D02*
X8373515Y-13942460D01*
X8373515Y-13942460D02*
X8363991Y-13932936D01*
X8363991Y-13932936D02*
X8354467Y-13913888D01*
X8354467Y-13913888D02*
X8344943Y-13875793D01*
X8344943Y-13875793D02*
X8344943Y-13828174D01*
X8344943Y-13828174D02*
X8354467Y-13790079D01*
X8354467Y-13790079D02*
X8363991Y-13771031D01*
X8363991Y-13771031D02*
X8373515Y-13761508D01*
X8373515Y-13761508D02*
X8392563Y-13751984D01*
X8583039Y-13751984D02*
X8602086Y-13751984D01*
X8602086Y-13751984D02*
X8621134Y-13761508D01*
X8621134Y-13761508D02*
X8630658Y-13771031D01*
X8630658Y-13771031D02*
X8640182Y-13790079D01*
X8640182Y-13790079D02*
X8649705Y-13828174D01*
X8649705Y-13828174D02*
X8649705Y-13875793D01*
X8649705Y-13875793D02*
X8640182Y-13913888D01*
X8640182Y-13913888D02*
X8630658Y-13932936D01*
X8630658Y-13932936D02*
X8621134Y-13942460D01*
X8621134Y-13942460D02*
X8602086Y-13951984D01*
X8602086Y-13951984D02*
X8583039Y-13951984D01*
X8583039Y-13951984D02*
X8563991Y-13942460D01*
X8563991Y-13942460D02*
X8554467Y-13932936D01*
X8554467Y-13932936D02*
X8544944Y-13913888D01*
X8544944Y-13913888D02*
X8535420Y-13875793D01*
X8535420Y-13875793D02*
X8535420Y-13828174D01*
X8535420Y-13828174D02*
X8544944Y-13790079D01*
X8544944Y-13790079D02*
X8554467Y-13771031D01*
X8554467Y-13771031D02*
X8563991Y-13761508D01*
X8563991Y-13761508D02*
X8583039Y-13751984D01*
X8735420Y-13951984D02*
X8735420Y-13818650D01*
X8735420Y-13837698D02*
X8744944Y-13828174D01*
X8744944Y-13828174D02*
X8763991Y-13818650D01*
X8763991Y-13818650D02*
X8792563Y-13818650D01*
X8792563Y-13818650D02*
X8811610Y-13828174D01*
X8811610Y-13828174D02*
X8821134Y-13847222D01*
X8821134Y-13847222D02*
X8821134Y-13951984D01*
X8821134Y-13847222D02*
X8830658Y-13828174D01*
X8830658Y-13828174D02*
X8849705Y-13818650D01*
X8849705Y-13818650D02*
X8878277Y-13818650D01*
X8878277Y-13818650D02*
X8897325Y-13828174D01*
X8897325Y-13828174D02*
X8906848Y-13847222D01*
X8906848Y-13847222D02*
X8906848Y-13951984D01*
X9002086Y-13951984D02*
X9002086Y-13818650D01*
X9002086Y-13837698D02*
X9011610Y-13828174D01*
X9011610Y-13828174D02*
X9030658Y-13818650D01*
X9030658Y-13818650D02*
X9059229Y-13818650D01*
X9059229Y-13818650D02*
X9078277Y-13828174D01*
X9078277Y-13828174D02*
X9087801Y-13847222D01*
X9087801Y-13847222D02*
X9087801Y-13951984D01*
X9087801Y-13847222D02*
X9097325Y-13828174D01*
X9097325Y-13828174D02*
X9116372Y-13818650D01*
X9116372Y-13818650D02*
X9144944Y-13818650D01*
X9144944Y-13818650D02*
X9163991Y-13828174D01*
X9163991Y-13828174D02*
X9173515Y-13847222D01*
X9173515Y-13847222D02*
X9173515Y-13951984D01*
X9563991Y-13742460D02*
X9392563Y-13999603D01*
X9821134Y-13751984D02*
X9840182Y-13751984D01*
X9840182Y-13751984D02*
X9859229Y-13761508D01*
X9859229Y-13761508D02*
X9868753Y-13771031D01*
X9868753Y-13771031D02*
X9878277Y-13790079D01*
X9878277Y-13790079D02*
X9887801Y-13828174D01*
X9887801Y-13828174D02*
X9887801Y-13875793D01*
X9887801Y-13875793D02*
X9878277Y-13913888D01*
X9878277Y-13913888D02*
X9868753Y-13932936D01*
X9868753Y-13932936D02*
X9859229Y-13942460D01*
X9859229Y-13942460D02*
X9840182Y-13951984D01*
X9840182Y-13951984D02*
X9821134Y-13951984D01*
X9821134Y-13951984D02*
X9802087Y-13942460D01*
X9802087Y-13942460D02*
X9792563Y-13932936D01*
X9792563Y-13932936D02*
X9783039Y-13913888D01*
X9783039Y-13913888D02*
X9773515Y-13875793D01*
X9773515Y-13875793D02*
X9773515Y-13828174D01*
X9773515Y-13828174D02*
X9783039Y-13790079D01*
X9783039Y-13790079D02*
X9792563Y-13771031D01*
X9792563Y-13771031D02*
X9802087Y-13761508D01*
X9802087Y-13761508D02*
X9821134Y-13751984D01*
X9973515Y-13932936D02*
X9983039Y-13942460D01*
X9983039Y-13942460D02*
X9973515Y-13951984D01*
X9973515Y-13951984D02*
X9963991Y-13942460D01*
X9963991Y-13942460D02*
X9973515Y-13932936D01*
X9973515Y-13932936D02*
X9973515Y-13951984D01*
X10106848Y-13751984D02*
X10125896Y-13751984D01*
X10125896Y-13751984D02*
X10144944Y-13761508D01*
X10144944Y-13761508D02*
X10154468Y-13771031D01*
X10154468Y-13771031D02*
X10163991Y-13790079D01*
X10163991Y-13790079D02*
X10173515Y-13828174D01*
X10173515Y-13828174D02*
X10173515Y-13875793D01*
X10173515Y-13875793D02*
X10163991Y-13913888D01*
X10163991Y-13913888D02*
X10154468Y-13932936D01*
X10154468Y-13932936D02*
X10144944Y-13942460D01*
X10144944Y-13942460D02*
X10125896Y-13951984D01*
X10125896Y-13951984D02*
X10106848Y-13951984D01*
X10106848Y-13951984D02*
X10087801Y-13942460D01*
X10087801Y-13942460D02*
X10078277Y-13932936D01*
X10078277Y-13932936D02*
X10068753Y-13913888D01*
X10068753Y-13913888D02*
X10059229Y-13875793D01*
X10059229Y-13875793D02*
X10059229Y-13828174D01*
X10059229Y-13828174D02*
X10068753Y-13790079D01*
X10068753Y-13790079D02*
X10078277Y-13771031D01*
X10078277Y-13771031D02*
X10087801Y-13761508D01*
X10087801Y-13761508D02*
X10106848Y-13751984D01*
X10240182Y-13751984D02*
X10363991Y-13751984D01*
X10363991Y-13751984D02*
X10297325Y-13828174D01*
X10297325Y-13828174D02*
X10325896Y-13828174D01*
X10325896Y-13828174D02*
X10344944Y-13837698D01*
X10344944Y-13837698D02*
X10354468Y-13847222D01*
X10354468Y-13847222D02*
X10363991Y-13866269D01*
X10363991Y-13866269D02*
X10363991Y-13913888D01*
X10363991Y-13913888D02*
X10354468Y-13932936D01*
X10354468Y-13932936D02*
X10344944Y-13942460D01*
X10344944Y-13942460D02*
X10325896Y-13951984D01*
X10325896Y-13951984D02*
X10268753Y-13951984D01*
X10268753Y-13951984D02*
X10249706Y-13942460D01*
X10249706Y-13942460D02*
X10240182Y-13932936D01*
X10554468Y-13951984D02*
X10440182Y-13951984D01*
X10497325Y-13951984D02*
X10497325Y-13751984D01*
X10497325Y-13751984D02*
X10478277Y-13780555D01*
X10478277Y-13780555D02*
X10459229Y-13799603D01*
X10459229Y-13799603D02*
X10440182Y-13809127D01*
X10735420Y-13751984D02*
X10640182Y-13751984D01*
X10640182Y-13751984D02*
X10630658Y-13847222D01*
X10630658Y-13847222D02*
X10640182Y-13837698D01*
X10640182Y-13837698D02*
X10659229Y-13828174D01*
X10659229Y-13828174D02*
X10706849Y-13828174D01*
X10706849Y-13828174D02*
X10725896Y-13837698D01*
X10725896Y-13837698D02*
X10735420Y-13847222D01*
X10735420Y-13847222D02*
X10744944Y-13866269D01*
X10744944Y-13866269D02*
X10744944Y-13913888D01*
X10744944Y-13913888D02*
X10735420Y-13932936D01*
X10735420Y-13932936D02*
X10725896Y-13942460D01*
X10725896Y-13942460D02*
X10706849Y-13951984D01*
X10706849Y-13951984D02*
X10659229Y-13951984D01*
X10659229Y-13951984D02*
X10640182Y-13942460D01*
X10640182Y-13942460D02*
X10630658Y-13932936D01*
X10821134Y-13751984D02*
X10821134Y-13790079D01*
X10897325Y-13751984D02*
X10897325Y-13790079D01*
X11192563Y-14028174D02*
X11183039Y-14018650D01*
X11183039Y-14018650D02*
X11163991Y-13990079D01*
X11163991Y-13990079D02*
X11154468Y-13971031D01*
X11154468Y-13971031D02*
X11144944Y-13942460D01*
X11144944Y-13942460D02*
X11135420Y-13894841D01*
X11135420Y-13894841D02*
X11135420Y-13856746D01*
X11135420Y-13856746D02*
X11144944Y-13809127D01*
X11144944Y-13809127D02*
X11154468Y-13780555D01*
X11154468Y-13780555D02*
X11163991Y-13761508D01*
X11163991Y-13761508D02*
X11183039Y-13732936D01*
X11183039Y-13732936D02*
X11192563Y-13723412D01*
X11373515Y-13951984D02*
X11259229Y-13951984D01*
X11316372Y-13951984D02*
X11316372Y-13751984D01*
X11316372Y-13751984D02*
X11297325Y-13780555D01*
X11297325Y-13780555D02*
X11278277Y-13799603D01*
X11278277Y-13799603D02*
X11259229Y-13809127D01*
X11487801Y-13837698D02*
X11468753Y-13828174D01*
X11468753Y-13828174D02*
X11459229Y-13818650D01*
X11459229Y-13818650D02*
X11449706Y-13799603D01*
X11449706Y-13799603D02*
X11449706Y-13790079D01*
X11449706Y-13790079D02*
X11459229Y-13771031D01*
X11459229Y-13771031D02*
X11468753Y-13761508D01*
X11468753Y-13761508D02*
X11487801Y-13751984D01*
X11487801Y-13751984D02*
X11525896Y-13751984D01*
X11525896Y-13751984D02*
X11544944Y-13761508D01*
X11544944Y-13761508D02*
X11554468Y-13771031D01*
X11554468Y-13771031D02*
X11563991Y-13790079D01*
X11563991Y-13790079D02*
X11563991Y-13799603D01*
X11563991Y-13799603D02*
X11554468Y-13818650D01*
X11554468Y-13818650D02*
X11544944Y-13828174D01*
X11544944Y-13828174D02*
X11525896Y-13837698D01*
X11525896Y-13837698D02*
X11487801Y-13837698D01*
X11487801Y-13837698D02*
X11468753Y-13847222D01*
X11468753Y-13847222D02*
X11459229Y-13856746D01*
X11459229Y-13856746D02*
X11449706Y-13875793D01*
X11449706Y-13875793D02*
X11449706Y-13913888D01*
X11449706Y-13913888D02*
X11459229Y-13932936D01*
X11459229Y-13932936D02*
X11468753Y-13942460D01*
X11468753Y-13942460D02*
X11487801Y-13951984D01*
X11487801Y-13951984D02*
X11525896Y-13951984D01*
X11525896Y-13951984D02*
X11544944Y-13942460D01*
X11544944Y-13942460D02*
X11554468Y-13932936D01*
X11554468Y-13932936D02*
X11563991Y-13913888D01*
X11563991Y-13913888D02*
X11563991Y-13875793D01*
X11563991Y-13875793D02*
X11554468Y-13856746D01*
X11554468Y-13856746D02*
X11544944Y-13847222D01*
X11544944Y-13847222D02*
X11525896Y-13837698D01*
X11802087Y-13951984D02*
X11802087Y-13751984D01*
X11887801Y-13951984D02*
X11887801Y-13847222D01*
X11887801Y-13847222D02*
X11878277Y-13828174D01*
X11878277Y-13828174D02*
X11859230Y-13818650D01*
X11859230Y-13818650D02*
X11830658Y-13818650D01*
X11830658Y-13818650D02*
X11811610Y-13828174D01*
X11811610Y-13828174D02*
X11802087Y-13837698D01*
X12011610Y-13951984D02*
X11992563Y-13942460D01*
X11992563Y-13942460D02*
X11983039Y-13932936D01*
X11983039Y-13932936D02*
X11973515Y-13913888D01*
X11973515Y-13913888D02*
X11973515Y-13856746D01*
X11973515Y-13856746D02*
X11983039Y-13837698D01*
X11983039Y-13837698D02*
X11992563Y-13828174D01*
X11992563Y-13828174D02*
X12011610Y-13818650D01*
X12011610Y-13818650D02*
X12040182Y-13818650D01*
X12040182Y-13818650D02*
X12059230Y-13828174D01*
X12059230Y-13828174D02*
X12068753Y-13837698D01*
X12068753Y-13837698D02*
X12078277Y-13856746D01*
X12078277Y-13856746D02*
X12078277Y-13913888D01*
X12078277Y-13913888D02*
X12068753Y-13932936D01*
X12068753Y-13932936D02*
X12059230Y-13942460D01*
X12059230Y-13942460D02*
X12040182Y-13951984D01*
X12040182Y-13951984D02*
X12011610Y-13951984D01*
X12192563Y-13951984D02*
X12173515Y-13942460D01*
X12173515Y-13942460D02*
X12163991Y-13923412D01*
X12163991Y-13923412D02*
X12163991Y-13751984D01*
X12344944Y-13942460D02*
X12325896Y-13951984D01*
X12325896Y-13951984D02*
X12287801Y-13951984D01*
X12287801Y-13951984D02*
X12268753Y-13942460D01*
X12268753Y-13942460D02*
X12259230Y-13923412D01*
X12259230Y-13923412D02*
X12259230Y-13847222D01*
X12259230Y-13847222D02*
X12268753Y-13828174D01*
X12268753Y-13828174D02*
X12287801Y-13818650D01*
X12287801Y-13818650D02*
X12325896Y-13818650D01*
X12325896Y-13818650D02*
X12344944Y-13828174D01*
X12344944Y-13828174D02*
X12354468Y-13847222D01*
X12354468Y-13847222D02*
X12354468Y-13866269D01*
X12354468Y-13866269D02*
X12259230Y-13885317D01*
X12430658Y-13942460D02*
X12449706Y-13951984D01*
X12449706Y-13951984D02*
X12487801Y-13951984D01*
X12487801Y-13951984D02*
X12506849Y-13942460D01*
X12506849Y-13942460D02*
X12516372Y-13923412D01*
X12516372Y-13923412D02*
X12516372Y-13913888D01*
X12516372Y-13913888D02*
X12506849Y-13894841D01*
X12506849Y-13894841D02*
X12487801Y-13885317D01*
X12487801Y-13885317D02*
X12459230Y-13885317D01*
X12459230Y-13885317D02*
X12440182Y-13875793D01*
X12440182Y-13875793D02*
X12430658Y-13856746D01*
X12430658Y-13856746D02*
X12430658Y-13847222D01*
X12430658Y-13847222D02*
X12440182Y-13828174D01*
X12440182Y-13828174D02*
X12459230Y-13818650D01*
X12459230Y-13818650D02*
X12487801Y-13818650D01*
X12487801Y-13818650D02*
X12506849Y-13828174D01*
X12583039Y-14028174D02*
X12592563Y-14018650D01*
X12592563Y-14018650D02*
X12611611Y-13990079D01*
X12611611Y-13990079D02*
X12621134Y-13971031D01*
X12621134Y-13971031D02*
X12630658Y-13942460D01*
X12630658Y-13942460D02*
X12640182Y-13894841D01*
X12640182Y-13894841D02*
X12640182Y-13856746D01*
X12640182Y-13856746D02*
X12630658Y-13809127D01*
X12630658Y-13809127D02*
X12621134Y-13780555D01*
X12621134Y-13780555D02*
X12611611Y-13761508D01*
X12611611Y-13761508D02*
X12592563Y-13732936D01*
X12592563Y-13732936D02*
X12583039Y-13723412D01*
D12*
X7567500Y-14074500D02*
X7567500Y-14174500D01*
X7517500Y-14124500D02*
X7617500Y-14124500D01*
D11*
X7983039Y-14215984D02*
X7868753Y-14215984D01*
X7925896Y-14215984D02*
X7925896Y-14015984D01*
X7925896Y-14015984D02*
X7906848Y-14044555D01*
X7906848Y-14044555D02*
X7887801Y-14063603D01*
X7887801Y-14063603D02*
X7868753Y-14073127D01*
X8068753Y-14196936D02*
X8078277Y-14206460D01*
X8078277Y-14206460D02*
X8068753Y-14215984D01*
X8068753Y-14215984D02*
X8059229Y-14206460D01*
X8059229Y-14206460D02*
X8068753Y-14196936D01*
X8068753Y-14196936D02*
X8068753Y-14215984D01*
X8202086Y-14015984D02*
X8221134Y-14015984D01*
X8221134Y-14015984D02*
X8240182Y-14025508D01*
X8240182Y-14025508D02*
X8249705Y-14035031D01*
X8249705Y-14035031D02*
X8259229Y-14054079D01*
X8259229Y-14054079D02*
X8268753Y-14092174D01*
X8268753Y-14092174D02*
X8268753Y-14139793D01*
X8268753Y-14139793D02*
X8259229Y-14177888D01*
X8259229Y-14177888D02*
X8249705Y-14196936D01*
X8249705Y-14196936D02*
X8240182Y-14206460D01*
X8240182Y-14206460D02*
X8221134Y-14215984D01*
X8221134Y-14215984D02*
X8202086Y-14215984D01*
X8202086Y-14215984D02*
X8183039Y-14206460D01*
X8183039Y-14206460D02*
X8173515Y-14196936D01*
X8173515Y-14196936D02*
X8163991Y-14177888D01*
X8163991Y-14177888D02*
X8154467Y-14139793D01*
X8154467Y-14139793D02*
X8154467Y-14092174D01*
X8154467Y-14092174D02*
X8163991Y-14054079D01*
X8163991Y-14054079D02*
X8173515Y-14035031D01*
X8173515Y-14035031D02*
X8183039Y-14025508D01*
X8183039Y-14025508D02*
X8202086Y-14015984D01*
X8392563Y-14015984D02*
X8411610Y-14015984D01*
X8411610Y-14015984D02*
X8430658Y-14025508D01*
X8430658Y-14025508D02*
X8440182Y-14035031D01*
X8440182Y-14035031D02*
X8449705Y-14054079D01*
X8449705Y-14054079D02*
X8459229Y-14092174D01*
X8459229Y-14092174D02*
X8459229Y-14139793D01*
X8459229Y-14139793D02*
X8449705Y-14177888D01*
X8449705Y-14177888D02*
X8440182Y-14196936D01*
X8440182Y-14196936D02*
X8430658Y-14206460D01*
X8430658Y-14206460D02*
X8411610Y-14215984D01*
X8411610Y-14215984D02*
X8392563Y-14215984D01*
X8392563Y-14215984D02*
X8373515Y-14206460D01*
X8373515Y-14206460D02*
X8363991Y-14196936D01*
X8363991Y-14196936D02*
X8354467Y-14177888D01*
X8354467Y-14177888D02*
X8344943Y-14139793D01*
X8344943Y-14139793D02*
X8344943Y-14092174D01*
X8344943Y-14092174D02*
X8354467Y-14054079D01*
X8354467Y-14054079D02*
X8363991Y-14035031D01*
X8363991Y-14035031D02*
X8373515Y-14025508D01*
X8373515Y-14025508D02*
X8392563Y-14015984D01*
X8583039Y-14015984D02*
X8602086Y-14015984D01*
X8602086Y-14015984D02*
X8621134Y-14025508D01*
X8621134Y-14025508D02*
X8630658Y-14035031D01*
X8630658Y-14035031D02*
X8640182Y-14054079D01*
X8640182Y-14054079D02*
X8649705Y-14092174D01*
X8649705Y-14092174D02*
X8649705Y-14139793D01*
X8649705Y-14139793D02*
X8640182Y-14177888D01*
X8640182Y-14177888D02*
X8630658Y-14196936D01*
X8630658Y-14196936D02*
X8621134Y-14206460D01*
X8621134Y-14206460D02*
X8602086Y-14215984D01*
X8602086Y-14215984D02*
X8583039Y-14215984D01*
X8583039Y-14215984D02*
X8563991Y-14206460D01*
X8563991Y-14206460D02*
X8554467Y-14196936D01*
X8554467Y-14196936D02*
X8544944Y-14177888D01*
X8544944Y-14177888D02*
X8535420Y-14139793D01*
X8535420Y-14139793D02*
X8535420Y-14092174D01*
X8535420Y-14092174D02*
X8544944Y-14054079D01*
X8544944Y-14054079D02*
X8554467Y-14035031D01*
X8554467Y-14035031D02*
X8563991Y-14025508D01*
X8563991Y-14025508D02*
X8583039Y-14015984D01*
X8735420Y-14215984D02*
X8735420Y-14082650D01*
X8735420Y-14101698D02*
X8744944Y-14092174D01*
X8744944Y-14092174D02*
X8763991Y-14082650D01*
X8763991Y-14082650D02*
X8792563Y-14082650D01*
X8792563Y-14082650D02*
X8811610Y-14092174D01*
X8811610Y-14092174D02*
X8821134Y-14111222D01*
X8821134Y-14111222D02*
X8821134Y-14215984D01*
X8821134Y-14111222D02*
X8830658Y-14092174D01*
X8830658Y-14092174D02*
X8849705Y-14082650D01*
X8849705Y-14082650D02*
X8878277Y-14082650D01*
X8878277Y-14082650D02*
X8897325Y-14092174D01*
X8897325Y-14092174D02*
X8906848Y-14111222D01*
X8906848Y-14111222D02*
X8906848Y-14215984D01*
X9002086Y-14215984D02*
X9002086Y-14082650D01*
X9002086Y-14101698D02*
X9011610Y-14092174D01*
X9011610Y-14092174D02*
X9030658Y-14082650D01*
X9030658Y-14082650D02*
X9059229Y-14082650D01*
X9059229Y-14082650D02*
X9078277Y-14092174D01*
X9078277Y-14092174D02*
X9087801Y-14111222D01*
X9087801Y-14111222D02*
X9087801Y-14215984D01*
X9087801Y-14111222D02*
X9097325Y-14092174D01*
X9097325Y-14092174D02*
X9116372Y-14082650D01*
X9116372Y-14082650D02*
X9144944Y-14082650D01*
X9144944Y-14082650D02*
X9163991Y-14092174D01*
X9163991Y-14092174D02*
X9173515Y-14111222D01*
X9173515Y-14111222D02*
X9173515Y-14215984D01*
X9563991Y-14006460D02*
X9392563Y-14263603D01*
X9821134Y-14015984D02*
X9840182Y-14015984D01*
X9840182Y-14015984D02*
X9859229Y-14025508D01*
X9859229Y-14025508D02*
X9868753Y-14035031D01*
X9868753Y-14035031D02*
X9878277Y-14054079D01*
X9878277Y-14054079D02*
X9887801Y-14092174D01*
X9887801Y-14092174D02*
X9887801Y-14139793D01*
X9887801Y-14139793D02*
X9878277Y-14177888D01*
X9878277Y-14177888D02*
X9868753Y-14196936D01*
X9868753Y-14196936D02*
X9859229Y-14206460D01*
X9859229Y-14206460D02*
X9840182Y-14215984D01*
X9840182Y-14215984D02*
X9821134Y-14215984D01*
X9821134Y-14215984D02*
X9802087Y-14206460D01*
X9802087Y-14206460D02*
X9792563Y-14196936D01*
X9792563Y-14196936D02*
X9783039Y-14177888D01*
X9783039Y-14177888D02*
X9773515Y-14139793D01*
X9773515Y-14139793D02*
X9773515Y-14092174D01*
X9773515Y-14092174D02*
X9783039Y-14054079D01*
X9783039Y-14054079D02*
X9792563Y-14035031D01*
X9792563Y-14035031D02*
X9802087Y-14025508D01*
X9802087Y-14025508D02*
X9821134Y-14015984D01*
X9973515Y-14196936D02*
X9983039Y-14206460D01*
X9983039Y-14206460D02*
X9973515Y-14215984D01*
X9973515Y-14215984D02*
X9963991Y-14206460D01*
X9963991Y-14206460D02*
X9973515Y-14196936D01*
X9973515Y-14196936D02*
X9973515Y-14215984D01*
X10106848Y-14015984D02*
X10125896Y-14015984D01*
X10125896Y-14015984D02*
X10144944Y-14025508D01*
X10144944Y-14025508D02*
X10154468Y-14035031D01*
X10154468Y-14035031D02*
X10163991Y-14054079D01*
X10163991Y-14054079D02*
X10173515Y-14092174D01*
X10173515Y-14092174D02*
X10173515Y-14139793D01*
X10173515Y-14139793D02*
X10163991Y-14177888D01*
X10163991Y-14177888D02*
X10154468Y-14196936D01*
X10154468Y-14196936D02*
X10144944Y-14206460D01*
X10144944Y-14206460D02*
X10125896Y-14215984D01*
X10125896Y-14215984D02*
X10106848Y-14215984D01*
X10106848Y-14215984D02*
X10087801Y-14206460D01*
X10087801Y-14206460D02*
X10078277Y-14196936D01*
X10078277Y-14196936D02*
X10068753Y-14177888D01*
X10068753Y-14177888D02*
X10059229Y-14139793D01*
X10059229Y-14139793D02*
X10059229Y-14092174D01*
X10059229Y-14092174D02*
X10068753Y-14054079D01*
X10068753Y-14054079D02*
X10078277Y-14035031D01*
X10078277Y-14035031D02*
X10087801Y-14025508D01*
X10087801Y-14025508D02*
X10106848Y-14015984D01*
X10240182Y-14015984D02*
X10363991Y-14015984D01*
X10363991Y-14015984D02*
X10297325Y-14092174D01*
X10297325Y-14092174D02*
X10325896Y-14092174D01*
X10325896Y-14092174D02*
X10344944Y-14101698D01*
X10344944Y-14101698D02*
X10354468Y-14111222D01*
X10354468Y-14111222D02*
X10363991Y-14130269D01*
X10363991Y-14130269D02*
X10363991Y-14177888D01*
X10363991Y-14177888D02*
X10354468Y-14196936D01*
X10354468Y-14196936D02*
X10344944Y-14206460D01*
X10344944Y-14206460D02*
X10325896Y-14215984D01*
X10325896Y-14215984D02*
X10268753Y-14215984D01*
X10268753Y-14215984D02*
X10249706Y-14206460D01*
X10249706Y-14206460D02*
X10240182Y-14196936D01*
X10459229Y-14215984D02*
X10497325Y-14215984D01*
X10497325Y-14215984D02*
X10516372Y-14206460D01*
X10516372Y-14206460D02*
X10525896Y-14196936D01*
X10525896Y-14196936D02*
X10544944Y-14168365D01*
X10544944Y-14168365D02*
X10554468Y-14130269D01*
X10554468Y-14130269D02*
X10554468Y-14054079D01*
X10554468Y-14054079D02*
X10544944Y-14035031D01*
X10544944Y-14035031D02*
X10535420Y-14025508D01*
X10535420Y-14025508D02*
X10516372Y-14015984D01*
X10516372Y-14015984D02*
X10478277Y-14015984D01*
X10478277Y-14015984D02*
X10459229Y-14025508D01*
X10459229Y-14025508D02*
X10449706Y-14035031D01*
X10449706Y-14035031D02*
X10440182Y-14054079D01*
X10440182Y-14054079D02*
X10440182Y-14101698D01*
X10440182Y-14101698D02*
X10449706Y-14120746D01*
X10449706Y-14120746D02*
X10459229Y-14130269D01*
X10459229Y-14130269D02*
X10478277Y-14139793D01*
X10478277Y-14139793D02*
X10516372Y-14139793D01*
X10516372Y-14139793D02*
X10535420Y-14130269D01*
X10535420Y-14130269D02*
X10544944Y-14120746D01*
X10544944Y-14120746D02*
X10554468Y-14101698D01*
X10725896Y-14082650D02*
X10725896Y-14215984D01*
X10678277Y-14006460D02*
X10630658Y-14149317D01*
X10630658Y-14149317D02*
X10754468Y-14149317D01*
X10821134Y-14015984D02*
X10821134Y-14054079D01*
X10897325Y-14015984D02*
X10897325Y-14054079D01*
X11192563Y-14292174D02*
X11183039Y-14282650D01*
X11183039Y-14282650D02*
X11163991Y-14254079D01*
X11163991Y-14254079D02*
X11154468Y-14235031D01*
X11154468Y-14235031D02*
X11144944Y-14206460D01*
X11144944Y-14206460D02*
X11135420Y-14158841D01*
X11135420Y-14158841D02*
X11135420Y-14120746D01*
X11135420Y-14120746D02*
X11144944Y-14073127D01*
X11144944Y-14073127D02*
X11154468Y-14044555D01*
X11154468Y-14044555D02*
X11163991Y-14025508D01*
X11163991Y-14025508D02*
X11183039Y-13996936D01*
X11183039Y-13996936D02*
X11192563Y-13987412D01*
X11259229Y-14035031D02*
X11268753Y-14025508D01*
X11268753Y-14025508D02*
X11287801Y-14015984D01*
X11287801Y-14015984D02*
X11335420Y-14015984D01*
X11335420Y-14015984D02*
X11354468Y-14025508D01*
X11354468Y-14025508D02*
X11363991Y-14035031D01*
X11363991Y-14035031D02*
X11373515Y-14054079D01*
X11373515Y-14054079D02*
X11373515Y-14073127D01*
X11373515Y-14073127D02*
X11363991Y-14101698D01*
X11363991Y-14101698D02*
X11249706Y-14215984D01*
X11249706Y-14215984D02*
X11373515Y-14215984D01*
X11440182Y-14015984D02*
X11563991Y-14015984D01*
X11563991Y-14015984D02*
X11497325Y-14092174D01*
X11497325Y-14092174D02*
X11525896Y-14092174D01*
X11525896Y-14092174D02*
X11544944Y-14101698D01*
X11544944Y-14101698D02*
X11554468Y-14111222D01*
X11554468Y-14111222D02*
X11563991Y-14130269D01*
X11563991Y-14130269D02*
X11563991Y-14177888D01*
X11563991Y-14177888D02*
X11554468Y-14196936D01*
X11554468Y-14196936D02*
X11544944Y-14206460D01*
X11544944Y-14206460D02*
X11525896Y-14215984D01*
X11525896Y-14215984D02*
X11468753Y-14215984D01*
X11468753Y-14215984D02*
X11449706Y-14206460D01*
X11449706Y-14206460D02*
X11440182Y-14196936D01*
X11802087Y-14215984D02*
X11802087Y-14015984D01*
X11887801Y-14215984D02*
X11887801Y-14111222D01*
X11887801Y-14111222D02*
X11878277Y-14092174D01*
X11878277Y-14092174D02*
X11859230Y-14082650D01*
X11859230Y-14082650D02*
X11830658Y-14082650D01*
X11830658Y-14082650D02*
X11811610Y-14092174D01*
X11811610Y-14092174D02*
X11802087Y-14101698D01*
X12011610Y-14215984D02*
X11992563Y-14206460D01*
X11992563Y-14206460D02*
X11983039Y-14196936D01*
X11983039Y-14196936D02*
X11973515Y-14177888D01*
X11973515Y-14177888D02*
X11973515Y-14120746D01*
X11973515Y-14120746D02*
X11983039Y-14101698D01*
X11983039Y-14101698D02*
X11992563Y-14092174D01*
X11992563Y-14092174D02*
X12011610Y-14082650D01*
X12011610Y-14082650D02*
X12040182Y-14082650D01*
X12040182Y-14082650D02*
X12059230Y-14092174D01*
X12059230Y-14092174D02*
X12068753Y-14101698D01*
X12068753Y-14101698D02*
X12078277Y-14120746D01*
X12078277Y-14120746D02*
X12078277Y-14177888D01*
X12078277Y-14177888D02*
X12068753Y-14196936D01*
X12068753Y-14196936D02*
X12059230Y-14206460D01*
X12059230Y-14206460D02*
X12040182Y-14215984D01*
X12040182Y-14215984D02*
X12011610Y-14215984D01*
X12192563Y-14215984D02*
X12173515Y-14206460D01*
X12173515Y-14206460D02*
X12163991Y-14187412D01*
X12163991Y-14187412D02*
X12163991Y-14015984D01*
X12344944Y-14206460D02*
X12325896Y-14215984D01*
X12325896Y-14215984D02*
X12287801Y-14215984D01*
X12287801Y-14215984D02*
X12268753Y-14206460D01*
X12268753Y-14206460D02*
X12259230Y-14187412D01*
X12259230Y-14187412D02*
X12259230Y-14111222D01*
X12259230Y-14111222D02*
X12268753Y-14092174D01*
X12268753Y-14092174D02*
X12287801Y-14082650D01*
X12287801Y-14082650D02*
X12325896Y-14082650D01*
X12325896Y-14082650D02*
X12344944Y-14092174D01*
X12344944Y-14092174D02*
X12354468Y-14111222D01*
X12354468Y-14111222D02*
X12354468Y-14130269D01*
X12354468Y-14130269D02*
X12259230Y-14149317D01*
X12430658Y-14206460D02*
X12449706Y-14215984D01*
X12449706Y-14215984D02*
X12487801Y-14215984D01*
X12487801Y-14215984D02*
X12506849Y-14206460D01*
X12506849Y-14206460D02*
X12516372Y-14187412D01*
X12516372Y-14187412D02*
X12516372Y-14177888D01*
X12516372Y-14177888D02*
X12506849Y-14158841D01*
X12506849Y-14158841D02*
X12487801Y-14149317D01*
X12487801Y-14149317D02*
X12459230Y-14149317D01*
X12459230Y-14149317D02*
X12440182Y-14139793D01*
X12440182Y-14139793D02*
X12430658Y-14120746D01*
X12430658Y-14120746D02*
X12430658Y-14111222D01*
X12430658Y-14111222D02*
X12440182Y-14092174D01*
X12440182Y-14092174D02*
X12459230Y-14082650D01*
X12459230Y-14082650D02*
X12487801Y-14082650D01*
X12487801Y-14082650D02*
X12506849Y-14092174D01*
X12583039Y-14292174D02*
X12592563Y-14282650D01*
X12592563Y-14282650D02*
X12611611Y-14254079D01*
X12611611Y-14254079D02*
X12621134Y-14235031D01*
X12621134Y-14235031D02*
X12630658Y-14206460D01*
X12630658Y-14206460D02*
X12640182Y-14158841D01*
X12640182Y-14158841D02*
X12640182Y-14120746D01*
X12640182Y-14120746D02*
X12630658Y-14073127D01*
X12630658Y-14073127D02*
X12621134Y-14044555D01*
X12621134Y-14044555D02*
X12611611Y-14025508D01*
X12611611Y-14025508D02*
X12592563Y-13996936D01*
X12592563Y-13996936D02*
X12583039Y-13987412D01*
D13*
X7595533Y-14441533D02*
X7595533Y-14335466D01*
X7489466Y-14335466D01*
X7489466Y-14441533D01*
X7595533Y-14441533D01*
D11*
X7983039Y-14479984D02*
X7868753Y-14479984D01*
X7925896Y-14479984D02*
X7925896Y-14279984D01*
X7925896Y-14279984D02*
X7906848Y-14308555D01*
X7906848Y-14308555D02*
X7887801Y-14327603D01*
X7887801Y-14327603D02*
X7868753Y-14337127D01*
X8068753Y-14460936D02*
X8078277Y-14470460D01*
X8078277Y-14470460D02*
X8068753Y-14479984D01*
X8068753Y-14479984D02*
X8059229Y-14470460D01*
X8059229Y-14470460D02*
X8068753Y-14460936D01*
X8068753Y-14460936D02*
X8068753Y-14479984D01*
X8259229Y-14279984D02*
X8163991Y-14279984D01*
X8163991Y-14279984D02*
X8154467Y-14375222D01*
X8154467Y-14375222D02*
X8163991Y-14365698D01*
X8163991Y-14365698D02*
X8183039Y-14356174D01*
X8183039Y-14356174D02*
X8230658Y-14356174D01*
X8230658Y-14356174D02*
X8249705Y-14365698D01*
X8249705Y-14365698D02*
X8259229Y-14375222D01*
X8259229Y-14375222D02*
X8268753Y-14394269D01*
X8268753Y-14394269D02*
X8268753Y-14441888D01*
X8268753Y-14441888D02*
X8259229Y-14460936D01*
X8259229Y-14460936D02*
X8249705Y-14470460D01*
X8249705Y-14470460D02*
X8230658Y-14479984D01*
X8230658Y-14479984D02*
X8183039Y-14479984D01*
X8183039Y-14479984D02*
X8163991Y-14470460D01*
X8163991Y-14470460D02*
X8154467Y-14460936D01*
X8392563Y-14279984D02*
X8411610Y-14279984D01*
X8411610Y-14279984D02*
X8430658Y-14289508D01*
X8430658Y-14289508D02*
X8440182Y-14299031D01*
X8440182Y-14299031D02*
X8449705Y-14318079D01*
X8449705Y-14318079D02*
X8459229Y-14356174D01*
X8459229Y-14356174D02*
X8459229Y-14403793D01*
X8459229Y-14403793D02*
X8449705Y-14441888D01*
X8449705Y-14441888D02*
X8440182Y-14460936D01*
X8440182Y-14460936D02*
X8430658Y-14470460D01*
X8430658Y-14470460D02*
X8411610Y-14479984D01*
X8411610Y-14479984D02*
X8392563Y-14479984D01*
X8392563Y-14479984D02*
X8373515Y-14470460D01*
X8373515Y-14470460D02*
X8363991Y-14460936D01*
X8363991Y-14460936D02*
X8354467Y-14441888D01*
X8354467Y-14441888D02*
X8344943Y-14403793D01*
X8344943Y-14403793D02*
X8344943Y-14356174D01*
X8344943Y-14356174D02*
X8354467Y-14318079D01*
X8354467Y-14318079D02*
X8363991Y-14299031D01*
X8363991Y-14299031D02*
X8373515Y-14289508D01*
X8373515Y-14289508D02*
X8392563Y-14279984D01*
X8583039Y-14279984D02*
X8602086Y-14279984D01*
X8602086Y-14279984D02*
X8621134Y-14289508D01*
X8621134Y-14289508D02*
X8630658Y-14299031D01*
X8630658Y-14299031D02*
X8640182Y-14318079D01*
X8640182Y-14318079D02*
X8649705Y-14356174D01*
X8649705Y-14356174D02*
X8649705Y-14403793D01*
X8649705Y-14403793D02*
X8640182Y-14441888D01*
X8640182Y-14441888D02*
X8630658Y-14460936D01*
X8630658Y-14460936D02*
X8621134Y-14470460D01*
X8621134Y-14470460D02*
X8602086Y-14479984D01*
X8602086Y-14479984D02*
X8583039Y-14479984D01*
X8583039Y-14479984D02*
X8563991Y-14470460D01*
X8563991Y-14470460D02*
X8554467Y-14460936D01*
X8554467Y-14460936D02*
X8544944Y-14441888D01*
X8544944Y-14441888D02*
X8535420Y-14403793D01*
X8535420Y-14403793D02*
X8535420Y-14356174D01*
X8535420Y-14356174D02*
X8544944Y-14318079D01*
X8544944Y-14318079D02*
X8554467Y-14299031D01*
X8554467Y-14299031D02*
X8563991Y-14289508D01*
X8563991Y-14289508D02*
X8583039Y-14279984D01*
X8735420Y-14479984D02*
X8735420Y-14346650D01*
X8735420Y-14365698D02*
X8744944Y-14356174D01*
X8744944Y-14356174D02*
X8763991Y-14346650D01*
X8763991Y-14346650D02*
X8792563Y-14346650D01*
X8792563Y-14346650D02*
X8811610Y-14356174D01*
X8811610Y-14356174D02*
X8821134Y-14375222D01*
X8821134Y-14375222D02*
X8821134Y-14479984D01*
X8821134Y-14375222D02*
X8830658Y-14356174D01*
X8830658Y-14356174D02*
X8849705Y-14346650D01*
X8849705Y-14346650D02*
X8878277Y-14346650D01*
X8878277Y-14346650D02*
X8897325Y-14356174D01*
X8897325Y-14356174D02*
X8906848Y-14375222D01*
X8906848Y-14375222D02*
X8906848Y-14479984D01*
X9002086Y-14479984D02*
X9002086Y-14346650D01*
X9002086Y-14365698D02*
X9011610Y-14356174D01*
X9011610Y-14356174D02*
X9030658Y-14346650D01*
X9030658Y-14346650D02*
X9059229Y-14346650D01*
X9059229Y-14346650D02*
X9078277Y-14356174D01*
X9078277Y-14356174D02*
X9087801Y-14375222D01*
X9087801Y-14375222D02*
X9087801Y-14479984D01*
X9087801Y-14375222D02*
X9097325Y-14356174D01*
X9097325Y-14356174D02*
X9116372Y-14346650D01*
X9116372Y-14346650D02*
X9144944Y-14346650D01*
X9144944Y-14346650D02*
X9163991Y-14356174D01*
X9163991Y-14356174D02*
X9173515Y-14375222D01*
X9173515Y-14375222D02*
X9173515Y-14479984D01*
X9563991Y-14270460D02*
X9392563Y-14527603D01*
X9821134Y-14279984D02*
X9840182Y-14279984D01*
X9840182Y-14279984D02*
X9859229Y-14289508D01*
X9859229Y-14289508D02*
X9868753Y-14299031D01*
X9868753Y-14299031D02*
X9878277Y-14318079D01*
X9878277Y-14318079D02*
X9887801Y-14356174D01*
X9887801Y-14356174D02*
X9887801Y-14403793D01*
X9887801Y-14403793D02*
X9878277Y-14441888D01*
X9878277Y-14441888D02*
X9868753Y-14460936D01*
X9868753Y-14460936D02*
X9859229Y-14470460D01*
X9859229Y-14470460D02*
X9840182Y-14479984D01*
X9840182Y-14479984D02*
X9821134Y-14479984D01*
X9821134Y-14479984D02*
X9802087Y-14470460D01*
X9802087Y-14470460D02*
X9792563Y-14460936D01*
X9792563Y-14460936D02*
X9783039Y-14441888D01*
X9783039Y-14441888D02*
X9773515Y-14403793D01*
X9773515Y-14403793D02*
X9773515Y-14356174D01*
X9773515Y-14356174D02*
X9783039Y-14318079D01*
X9783039Y-14318079D02*
X9792563Y-14299031D01*
X9792563Y-14299031D02*
X9802087Y-14289508D01*
X9802087Y-14289508D02*
X9821134Y-14279984D01*
X9973515Y-14460936D02*
X9983039Y-14470460D01*
X9983039Y-14470460D02*
X9973515Y-14479984D01*
X9973515Y-14479984D02*
X9963991Y-14470460D01*
X9963991Y-14470460D02*
X9973515Y-14460936D01*
X9973515Y-14460936D02*
X9973515Y-14479984D01*
X10106848Y-14279984D02*
X10125896Y-14279984D01*
X10125896Y-14279984D02*
X10144944Y-14289508D01*
X10144944Y-14289508D02*
X10154468Y-14299031D01*
X10154468Y-14299031D02*
X10163991Y-14318079D01*
X10163991Y-14318079D02*
X10173515Y-14356174D01*
X10173515Y-14356174D02*
X10173515Y-14403793D01*
X10173515Y-14403793D02*
X10163991Y-14441888D01*
X10163991Y-14441888D02*
X10154468Y-14460936D01*
X10154468Y-14460936D02*
X10144944Y-14470460D01*
X10144944Y-14470460D02*
X10125896Y-14479984D01*
X10125896Y-14479984D02*
X10106848Y-14479984D01*
X10106848Y-14479984D02*
X10087801Y-14470460D01*
X10087801Y-14470460D02*
X10078277Y-14460936D01*
X10078277Y-14460936D02*
X10068753Y-14441888D01*
X10068753Y-14441888D02*
X10059229Y-14403793D01*
X10059229Y-14403793D02*
X10059229Y-14356174D01*
X10059229Y-14356174D02*
X10068753Y-14318079D01*
X10068753Y-14318079D02*
X10078277Y-14299031D01*
X10078277Y-14299031D02*
X10087801Y-14289508D01*
X10087801Y-14289508D02*
X10106848Y-14279984D01*
X10354468Y-14279984D02*
X10259229Y-14279984D01*
X10259229Y-14279984D02*
X10249706Y-14375222D01*
X10249706Y-14375222D02*
X10259229Y-14365698D01*
X10259229Y-14365698D02*
X10278277Y-14356174D01*
X10278277Y-14356174D02*
X10325896Y-14356174D01*
X10325896Y-14356174D02*
X10344944Y-14365698D01*
X10344944Y-14365698D02*
X10354468Y-14375222D01*
X10354468Y-14375222D02*
X10363991Y-14394269D01*
X10363991Y-14394269D02*
X10363991Y-14441888D01*
X10363991Y-14441888D02*
X10354468Y-14460936D01*
X10354468Y-14460936D02*
X10344944Y-14470460D01*
X10344944Y-14470460D02*
X10325896Y-14479984D01*
X10325896Y-14479984D02*
X10278277Y-14479984D01*
X10278277Y-14479984D02*
X10259229Y-14470460D01*
X10259229Y-14470460D02*
X10249706Y-14460936D01*
X10459229Y-14479984D02*
X10497325Y-14479984D01*
X10497325Y-14479984D02*
X10516372Y-14470460D01*
X10516372Y-14470460D02*
X10525896Y-14460936D01*
X10525896Y-14460936D02*
X10544944Y-14432365D01*
X10544944Y-14432365D02*
X10554468Y-14394269D01*
X10554468Y-14394269D02*
X10554468Y-14318079D01*
X10554468Y-14318079D02*
X10544944Y-14299031D01*
X10544944Y-14299031D02*
X10535420Y-14289508D01*
X10535420Y-14289508D02*
X10516372Y-14279984D01*
X10516372Y-14279984D02*
X10478277Y-14279984D01*
X10478277Y-14279984D02*
X10459229Y-14289508D01*
X10459229Y-14289508D02*
X10449706Y-14299031D01*
X10449706Y-14299031D02*
X10440182Y-14318079D01*
X10440182Y-14318079D02*
X10440182Y-14365698D01*
X10440182Y-14365698D02*
X10449706Y-14384746D01*
X10449706Y-14384746D02*
X10459229Y-14394269D01*
X10459229Y-14394269D02*
X10478277Y-14403793D01*
X10478277Y-14403793D02*
X10516372Y-14403793D01*
X10516372Y-14403793D02*
X10535420Y-14394269D01*
X10535420Y-14394269D02*
X10544944Y-14384746D01*
X10544944Y-14384746D02*
X10554468Y-14365698D01*
X10744944Y-14479984D02*
X10630658Y-14479984D01*
X10687801Y-14479984D02*
X10687801Y-14279984D01*
X10687801Y-14279984D02*
X10668753Y-14308555D01*
X10668753Y-14308555D02*
X10649706Y-14327603D01*
X10649706Y-14327603D02*
X10630658Y-14337127D01*
X10821134Y-14279984D02*
X10821134Y-14318079D01*
X10897325Y-14279984D02*
X10897325Y-14318079D01*
X11192563Y-14556174D02*
X11183039Y-14546650D01*
X11183039Y-14546650D02*
X11163991Y-14518079D01*
X11163991Y-14518079D02*
X11154468Y-14499031D01*
X11154468Y-14499031D02*
X11144944Y-14470460D01*
X11144944Y-14470460D02*
X11135420Y-14422841D01*
X11135420Y-14422841D02*
X11135420Y-14384746D01*
X11135420Y-14384746D02*
X11144944Y-14337127D01*
X11144944Y-14337127D02*
X11154468Y-14308555D01*
X11154468Y-14308555D02*
X11163991Y-14289508D01*
X11163991Y-14289508D02*
X11183039Y-14260936D01*
X11183039Y-14260936D02*
X11192563Y-14251412D01*
X11373515Y-14479984D02*
X11259229Y-14479984D01*
X11316372Y-14479984D02*
X11316372Y-14279984D01*
X11316372Y-14279984D02*
X11297325Y-14308555D01*
X11297325Y-14308555D02*
X11278277Y-14327603D01*
X11278277Y-14327603D02*
X11259229Y-14337127D01*
X11487801Y-14365698D02*
X11468753Y-14356174D01*
X11468753Y-14356174D02*
X11459229Y-14346650D01*
X11459229Y-14346650D02*
X11449706Y-14327603D01*
X11449706Y-14327603D02*
X11449706Y-14318079D01*
X11449706Y-14318079D02*
X11459229Y-14299031D01*
X11459229Y-14299031D02*
X11468753Y-14289508D01*
X11468753Y-14289508D02*
X11487801Y-14279984D01*
X11487801Y-14279984D02*
X11525896Y-14279984D01*
X11525896Y-14279984D02*
X11544944Y-14289508D01*
X11544944Y-14289508D02*
X11554468Y-14299031D01*
X11554468Y-14299031D02*
X11563991Y-14318079D01*
X11563991Y-14318079D02*
X11563991Y-14327603D01*
X11563991Y-14327603D02*
X11554468Y-14346650D01*
X11554468Y-14346650D02*
X11544944Y-14356174D01*
X11544944Y-14356174D02*
X11525896Y-14365698D01*
X11525896Y-14365698D02*
X11487801Y-14365698D01*
X11487801Y-14365698D02*
X11468753Y-14375222D01*
X11468753Y-14375222D02*
X11459229Y-14384746D01*
X11459229Y-14384746D02*
X11449706Y-14403793D01*
X11449706Y-14403793D02*
X11449706Y-14441888D01*
X11449706Y-14441888D02*
X11459229Y-14460936D01*
X11459229Y-14460936D02*
X11468753Y-14470460D01*
X11468753Y-14470460D02*
X11487801Y-14479984D01*
X11487801Y-14479984D02*
X11525896Y-14479984D01*
X11525896Y-14479984D02*
X11544944Y-14470460D01*
X11544944Y-14470460D02*
X11554468Y-14460936D01*
X11554468Y-14460936D02*
X11563991Y-14441888D01*
X11563991Y-14441888D02*
X11563991Y-14403793D01*
X11563991Y-14403793D02*
X11554468Y-14384746D01*
X11554468Y-14384746D02*
X11544944Y-14375222D01*
X11544944Y-14375222D02*
X11525896Y-14365698D01*
X11802087Y-14479984D02*
X11802087Y-14279984D01*
X11887801Y-14479984D02*
X11887801Y-14375222D01*
X11887801Y-14375222D02*
X11878277Y-14356174D01*
X11878277Y-14356174D02*
X11859230Y-14346650D01*
X11859230Y-14346650D02*
X11830658Y-14346650D01*
X11830658Y-14346650D02*
X11811610Y-14356174D01*
X11811610Y-14356174D02*
X11802087Y-14365698D01*
X12011610Y-14479984D02*
X11992563Y-14470460D01*
X11992563Y-14470460D02*
X11983039Y-14460936D01*
X11983039Y-14460936D02*
X11973515Y-14441888D01*
X11973515Y-14441888D02*
X11973515Y-14384746D01*
X11973515Y-14384746D02*
X11983039Y-14365698D01*
X11983039Y-14365698D02*
X11992563Y-14356174D01*
X11992563Y-14356174D02*
X12011610Y-14346650D01*
X12011610Y-14346650D02*
X12040182Y-14346650D01*
X12040182Y-14346650D02*
X12059230Y-14356174D01*
X12059230Y-14356174D02*
X12068753Y-14365698D01*
X12068753Y-14365698D02*
X12078277Y-14384746D01*
X12078277Y-14384746D02*
X12078277Y-14441888D01*
X12078277Y-14441888D02*
X12068753Y-14460936D01*
X12068753Y-14460936D02*
X12059230Y-14470460D01*
X12059230Y-14470460D02*
X12040182Y-14479984D01*
X12040182Y-14479984D02*
X12011610Y-14479984D01*
X12192563Y-14479984D02*
X12173515Y-14470460D01*
X12173515Y-14470460D02*
X12163991Y-14451412D01*
X12163991Y-14451412D02*
X12163991Y-14279984D01*
X12344944Y-14470460D02*
X12325896Y-14479984D01*
X12325896Y-14479984D02*
X12287801Y-14479984D01*
X12287801Y-14479984D02*
X12268753Y-14470460D01*
X12268753Y-14470460D02*
X12259230Y-14451412D01*
X12259230Y-14451412D02*
X12259230Y-14375222D01*
X12259230Y-14375222D02*
X12268753Y-14356174D01*
X12268753Y-14356174D02*
X12287801Y-14346650D01*
X12287801Y-14346650D02*
X12325896Y-14346650D01*
X12325896Y-14346650D02*
X12344944Y-14356174D01*
X12344944Y-14356174D02*
X12354468Y-14375222D01*
X12354468Y-14375222D02*
X12354468Y-14394269D01*
X12354468Y-14394269D02*
X12259230Y-14413317D01*
X12430658Y-14470460D02*
X12449706Y-14479984D01*
X12449706Y-14479984D02*
X12487801Y-14479984D01*
X12487801Y-14479984D02*
X12506849Y-14470460D01*
X12506849Y-14470460D02*
X12516372Y-14451412D01*
X12516372Y-14451412D02*
X12516372Y-14441888D01*
X12516372Y-14441888D02*
X12506849Y-14422841D01*
X12506849Y-14422841D02*
X12487801Y-14413317D01*
X12487801Y-14413317D02*
X12459230Y-14413317D01*
X12459230Y-14413317D02*
X12440182Y-14403793D01*
X12440182Y-14403793D02*
X12430658Y-14384746D01*
X12430658Y-14384746D02*
X12430658Y-14375222D01*
X12430658Y-14375222D02*
X12440182Y-14356174D01*
X12440182Y-14356174D02*
X12459230Y-14346650D01*
X12459230Y-14346650D02*
X12487801Y-14346650D01*
X12487801Y-14346650D02*
X12506849Y-14356174D01*
X12754468Y-14403793D02*
X12906849Y-14403793D01*
X12830658Y-14479984D02*
X12830658Y-14327603D01*
X13144944Y-14299031D02*
X13154468Y-14289508D01*
X13154468Y-14289508D02*
X13173515Y-14279984D01*
X13173515Y-14279984D02*
X13221134Y-14279984D01*
X13221134Y-14279984D02*
X13240182Y-14289508D01*
X13240182Y-14289508D02*
X13249706Y-14299031D01*
X13249706Y-14299031D02*
X13259230Y-14318079D01*
X13259230Y-14318079D02*
X13259230Y-14337127D01*
X13259230Y-14337127D02*
X13249706Y-14365698D01*
X13249706Y-14365698D02*
X13135420Y-14479984D01*
X13135420Y-14479984D02*
X13259230Y-14479984D01*
X13487801Y-14470460D02*
X13506849Y-14479984D01*
X13506849Y-14479984D02*
X13544944Y-14479984D01*
X13544944Y-14479984D02*
X13563992Y-14470460D01*
X13563992Y-14470460D02*
X13573515Y-14451412D01*
X13573515Y-14451412D02*
X13573515Y-14441888D01*
X13573515Y-14441888D02*
X13563992Y-14422841D01*
X13563992Y-14422841D02*
X13544944Y-14413317D01*
X13544944Y-14413317D02*
X13516373Y-14413317D01*
X13516373Y-14413317D02*
X13497325Y-14403793D01*
X13497325Y-14403793D02*
X13487801Y-14384746D01*
X13487801Y-14384746D02*
X13487801Y-14375222D01*
X13487801Y-14375222D02*
X13497325Y-14356174D01*
X13497325Y-14356174D02*
X13516373Y-14346650D01*
X13516373Y-14346650D02*
X13544944Y-14346650D01*
X13544944Y-14346650D02*
X13563992Y-14356174D01*
X13687801Y-14479984D02*
X13668754Y-14470460D01*
X13668754Y-14470460D02*
X13659230Y-14451412D01*
X13659230Y-14451412D02*
X13659230Y-14279984D01*
X13792563Y-14479984D02*
X13773515Y-14470460D01*
X13773515Y-14470460D02*
X13763992Y-14460936D01*
X13763992Y-14460936D02*
X13754468Y-14441888D01*
X13754468Y-14441888D02*
X13754468Y-14384746D01*
X13754468Y-14384746D02*
X13763992Y-14365698D01*
X13763992Y-14365698D02*
X13773515Y-14356174D01*
X13773515Y-14356174D02*
X13792563Y-14346650D01*
X13792563Y-14346650D02*
X13821135Y-14346650D01*
X13821135Y-14346650D02*
X13840182Y-14356174D01*
X13840182Y-14356174D02*
X13849706Y-14365698D01*
X13849706Y-14365698D02*
X13859230Y-14384746D01*
X13859230Y-14384746D02*
X13859230Y-14441888D01*
X13859230Y-14441888D02*
X13849706Y-14460936D01*
X13849706Y-14460936D02*
X13840182Y-14470460D01*
X13840182Y-14470460D02*
X13821135Y-14479984D01*
X13821135Y-14479984D02*
X13792563Y-14479984D01*
X13916373Y-14346650D02*
X13992563Y-14346650D01*
X13944944Y-14279984D02*
X13944944Y-14451412D01*
X13944944Y-14451412D02*
X13954468Y-14470460D01*
X13954468Y-14470460D02*
X13973515Y-14479984D01*
X13973515Y-14479984D02*
X13992563Y-14479984D01*
X14049706Y-14470460D02*
X14068754Y-14479984D01*
X14068754Y-14479984D02*
X14106849Y-14479984D01*
X14106849Y-14479984D02*
X14125896Y-14470460D01*
X14125896Y-14470460D02*
X14135420Y-14451412D01*
X14135420Y-14451412D02*
X14135420Y-14441888D01*
X14135420Y-14441888D02*
X14125896Y-14422841D01*
X14125896Y-14422841D02*
X14106849Y-14413317D01*
X14106849Y-14413317D02*
X14078277Y-14413317D01*
X14078277Y-14413317D02*
X14059230Y-14403793D01*
X14059230Y-14403793D02*
X14049706Y-14384746D01*
X14049706Y-14384746D02*
X14049706Y-14375222D01*
X14049706Y-14375222D02*
X14059230Y-14356174D01*
X14059230Y-14356174D02*
X14078277Y-14346650D01*
X14078277Y-14346650D02*
X14106849Y-14346650D01*
X14106849Y-14346650D02*
X14125896Y-14356174D01*
X14202087Y-14556174D02*
X14211611Y-14546650D01*
X14211611Y-14546650D02*
X14230658Y-14518079D01*
X14230658Y-14518079D02*
X14240182Y-14499031D01*
X14240182Y-14499031D02*
X14249706Y-14470460D01*
X14249706Y-14470460D02*
X14259230Y-14422841D01*
X14259230Y-14422841D02*
X14259230Y-14384746D01*
X14259230Y-14384746D02*
X14249706Y-14337127D01*
X14249706Y-14337127D02*
X14240182Y-14308555D01*
X14240182Y-14308555D02*
X14230658Y-14289508D01*
X14230658Y-14289508D02*
X14211611Y-14260936D01*
X14211611Y-14260936D02*
X14202087Y-14251412D01*
M02*
