%TF.GenerationSoftware,KiCad,Pcbnew,10.0.4*%
%TF.CreationDate,2026-07-01T10:39:58-05:00*%
%TF.ProjectId,Hackboard_v1,4861636b-626f-4617-9264-5f76312e6b69,rev?*%
%TF.SameCoordinates,Original*%
%TF.FileFunction,Copper,L2,Bot*%
%TF.FilePolarity,Positive*%
%FSLAX46Y46*%
G04 Gerber Fmt 4.6, Leading zero omitted, Abs format (unit mm)*
G04 Created by KiCad (PCBNEW 10.0.4) date 2026-07-01 10:39:58*
%MOMM*%
%LPD*%
G01*
G04 APERTURE LIST*
G04 Aperture macros list*
%AMRoundRect*
0 Rectangle with rounded corners*
0 $1 Rounding radius*
0 $2 $3 $4 $5 $6 $7 $8 $9 X,Y pos of 4 corners*
0 Add a 4 corners polygon primitive as box body*
4,1,4,$2,$3,$4,$5,$6,$7,$8,$9,$2,$3,0*
0 Add four circle primitives for the rounded corners*
1,1,$1+$1,$2,$3*
1,1,$1+$1,$4,$5*
1,1,$1+$1,$6,$7*
1,1,$1+$1,$8,$9*
0 Add four rect primitives between the rounded corners*
20,1,$1+$1,$2,$3,$4,$5,0*
20,1,$1+$1,$4,$5,$6,$7,0*
20,1,$1+$1,$6,$7,$8,$9,0*
20,1,$1+$1,$8,$9,$2,$3,0*%
G04 Aperture macros list end*
%TA.AperFunction,ComponentPad*%
%ADD10RoundRect,0.250000X-0.550000X-0.550000X0.550000X-0.550000X0.550000X0.550000X-0.550000X0.550000X0*%
%TD*%
%TA.AperFunction,ComponentPad*%
%ADD11C,1.600000*%
%TD*%
%TA.AperFunction,ComponentPad*%
%ADD12C,2.200000*%
%TD*%
%TA.AperFunction,ComponentPad*%
%ADD13R,2.000000X2.000000*%
%TD*%
%TA.AperFunction,ComponentPad*%
%ADD14C,2.000000*%
%TD*%
%TA.AperFunction,ComponentPad*%
%ADD15R,3.200000X2.000000*%
%TD*%
%TA.AperFunction,ComponentPad*%
%ADD16RoundRect,0.250000X0.550000X0.550000X-0.550000X0.550000X-0.550000X-0.550000X0.550000X-0.550000X0*%
%TD*%
%TA.AperFunction,SMDPad,CuDef*%
%ADD17RoundRect,0.082000X-0.718000X0.328000X-0.718000X-0.328000X0.718000X-0.328000X0.718000X0.328000X0*%
%TD*%
%TA.AperFunction,ComponentPad*%
%ADD18RoundRect,0.170000X0.680000X-0.680000X0.680000X0.680000X-0.680000X0.680000X-0.680000X-0.680000X0*%
%TD*%
%TA.AperFunction,ComponentPad*%
%ADD19C,1.700000*%
%TD*%
%TA.AperFunction,ComponentPad*%
%ADD20R,3.500000X1.700000*%
%TD*%
%TA.AperFunction,ComponentPad*%
%ADD21O,3.600000X1.700000*%
%TD*%
%TA.AperFunction,ComponentPad*%
%ADD22O,3.700000X1.700000*%
%TD*%
%TA.AperFunction,ViaPad*%
%ADD23C,0.600000*%
%TD*%
%TA.AperFunction,Conductor*%
%ADD24C,0.250000*%
%TD*%
G04 APERTURE END LIST*
D10*
%TO.P,D5,1,K_1*%
%TO.N,N/C*%
X91440000Y-86360000D03*
D11*
%TO.P,D5,2,A_2*%
%TO.N,/C0*%
X99060000Y-86360000D03*
%TD*%
D12*
%TO.P,SW3,1,1_1*%
%TO.N,/R0*%
X135890000Y-71120000D03*
%TO.P,SW3,2,2_2*%
%TO.N,Net-(D4-K)*%
X129540000Y-73660000D03*
%TD*%
D13*
%TO.P,SW10,A,A_A*%
%TO.N,/ENC_A*%
X129010000Y-55880000D03*
D14*
%TO.P,SW10,B,B_B*%
%TO.N,/ENC_B*%
X129010000Y-60880000D03*
%TO.P,SW10,C,C_C*%
%TO.N,GND*%
X129010000Y-58380000D03*
D15*
%TO.P,SW10,MP*%
%TO.N,N/C*%
X136510000Y-52780000D03*
X136510000Y-63980000D03*
D14*
%TO.P,SW10,S1,S1_S1*%
%TO.N,unconnected-(SW10-PadS1)*%
X143510000Y-60880000D03*
%TO.P,SW10,S2,S2_S2*%
%TO.N,unconnected-(SW10-PadS2)*%
X143510000Y-55880000D03*
%TD*%
D10*
%TO.P,D7,1,K_1*%
%TO.N,N/C*%
X133350000Y-86360000D03*
D11*
%TO.P,D7,2,A_2*%
%TO.N,/C2*%
X140970000Y-86360000D03*
%TD*%
D16*
%TO.P,D9,1,K_1*%
%TO.N,N/C*%
X116840000Y-105410000D03*
D11*
%TO.P,D9,2,A_2*%
%TO.N,/C1*%
X109220000Y-105410000D03*
%TD*%
D12*
%TO.P,SW9,1,1_1*%
%TO.N,/R2*%
X135890000Y-109220000D03*
%TO.P,SW9,2,2_2*%
%TO.N,Net-(D10-K)*%
X129540000Y-111760000D03*
%TD*%
D10*
%TO.P,D4,1,K_1*%
%TO.N,N/C*%
X125730000Y-67310000D03*
D11*
%TO.P,D4,2,A_2*%
%TO.N,/C2*%
X133350000Y-67310000D03*
%TD*%
D12*
%TO.P,SW2,1,1_1*%
%TO.N,/R0*%
X116840000Y-71120000D03*
%TO.P,SW2,2,2_2*%
%TO.N,Net-(D3-K)*%
X110490000Y-73660000D03*
%TD*%
%TO.P,SW1,1,1_1*%
%TO.N,/R0*%
X97790000Y-71120000D03*
%TO.P,SW1,2,2_2*%
%TO.N,Net-(D2-K)*%
X91440000Y-73660000D03*
%TD*%
%TO.P,SW4,1,1_1*%
%TO.N,/R1*%
X97790000Y-90170000D03*
%TO.P,SW4,2,2_2*%
%TO.N,Net-(D5-K)*%
X91440000Y-92710000D03*
%TD*%
D17*
%TO.P,D1,1,VDD_1*%
%TO.N,Net-(D1-VDD)*%
X120590001Y-104140000D03*
%TO.P,D1,2,DOUT_2*%
%TO.N,unconnected-(D1-DOUT-Pad2)*%
X120590001Y-105640000D03*
%TO.P,D1,3,VSS_3*%
%TO.N,GND*%
X125790001Y-105640000D03*
%TO.P,D1,4,DIN_4*%
%TO.N,Net-(D1-DIN)*%
X125790001Y-104140000D03*
%TD*%
D12*
%TO.P,SW7,1,1_1*%
%TO.N,/R2*%
X97790000Y-109220000D03*
%TO.P,SW7,2,2_2*%
%TO.N,Net-(D8-K)*%
X91440000Y-111760000D03*
%TD*%
D18*
%TO.P,U2,1,GND_1*%
%TO.N,Net-(U1-GND)*%
X86640000Y-62230000D03*
D19*
%TO.P,U2,2,VCC_2*%
%TO.N,Net-(U1-3V3)*%
X86640000Y-59690000D03*
%TO.P,U2,3,SCL_3*%
%TO.N,Net-(U1-PA9_A5_D5_SCL)*%
X86640000Y-57150000D03*
%TO.P,U2,4,SDA_4*%
%TO.N,Net-(U1-PA8_A4_D4_SDA)*%
X86640000Y-54610000D03*
%TD*%
D10*
%TO.P,D10,1,K_1*%
%TO.N,N/C*%
X129540000Y-105410000D03*
D11*
%TO.P,D10,2,A_2*%
%TO.N,/C2*%
X137160000Y-105410000D03*
%TD*%
D12*
%TO.P,SW8,1,1_1*%
%TO.N,/R2*%
X116840000Y-109220000D03*
%TO.P,SW8,2,2_2*%
%TO.N,Net-(D9-K)*%
X110490000Y-111760000D03*
%TD*%
D10*
%TO.P,D3,1,K_1*%
%TO.N,N/C*%
X107950000Y-67310000D03*
D11*
%TO.P,D3,2,A_2*%
%TO.N,/C1*%
X115570000Y-67310000D03*
%TD*%
D12*
%TO.P,SW5,1,1_1*%
%TO.N,/R1*%
X116840000Y-90170000D03*
%TO.P,SW5,2,2_2*%
%TO.N,Net-(D6-K)*%
X110490000Y-92710000D03*
%TD*%
D10*
%TO.P,D6,1,K_1*%
%TO.N,N/C*%
X113030000Y-86360000D03*
D11*
%TO.P,D6,2,A_2*%
%TO.N,/C1*%
X120650000Y-86360000D03*
%TD*%
D10*
%TO.P,D8,1,K_1*%
%TO.N,N/C*%
X95250000Y-105410000D03*
D11*
%TO.P,D8,2,A_2*%
%TO.N,/C0*%
X102870000Y-105410000D03*
%TD*%
D12*
%TO.P,SW6,1,1_1*%
%TO.N,/R1*%
X135890000Y-90170000D03*
%TO.P,SW6,2,2_2*%
%TO.N,Net-(D7-K)*%
X129540000Y-92710000D03*
%TD*%
D20*
%TO.P,U1,1,PA02_A0_D0_1*%
%TO.N,/R0*%
X87895000Y-33000000D03*
D21*
%TO.P,U1,2,PA4_A1_D1_2*%
%TO.N,/R1*%
X87895000Y-35540000D03*
%TO.P,U1,3,PA10_A2_D2_3*%
%TO.N,/R2*%
X87895000Y-38080000D03*
%TO.P,U1,4,PA11_A3_D3_4*%
%TO.N,/C0*%
X87895000Y-40620000D03*
%TO.P,U1,5,PA8_A4_D4_SDA_5*%
%TO.N,Net-(U1-PA8_A4_D4_SDA)*%
X87895000Y-43160000D03*
%TO.P,U1,6,PA9_A5_D5_SCL_6*%
%TO.N,Net-(U1-PA9_A5_D5_SCL)*%
X87895000Y-45700000D03*
%TO.P,U1,7,PB08_A6_D6_TX_7*%
%TO.N,/C1*%
X87895000Y-48240000D03*
%TO.P,U1,8,PB09_A7_D7_RX_8*%
%TO.N,/C2*%
X105145000Y-48240000D03*
%TO.P,U1,9,PA7_A8_D8_SCK_9*%
%TO.N,/ENC_A*%
X105145000Y-45700000D03*
%TO.P,U1,10,PA5_A9_D9_MISO_10*%
%TO.N,/ENC_B*%
X105145000Y-43160000D03*
D22*
%TO.P,U1,11,PA6_A10_D10_MOSI_11*%
%TO.N,Net-(D1-DIN)*%
X105145000Y-40620000D03*
%TO.P,U1,12,3V3_12*%
%TO.N,Net-(U1-3V3)*%
X105145000Y-38080000D03*
%TO.P,U1,13,GND_13*%
%TO.N,Net-(U1-GND)*%
X105145000Y-35540000D03*
%TO.P,U1,14,5V_14*%
%TO.N,Net-(D1-VDD)*%
X105145000Y-33000000D03*
%TD*%
D16*
%TO.P,D2,1,K_1*%
%TO.N,N/C*%
X99060000Y-67310000D03*
D11*
%TO.P,D2,2,A_2*%
%TO.N,/C0*%
X91440000Y-67310000D03*
%TD*%
D23*
%TO.N,/C0*%
X86075000Y-67000000D03*
X103000000Y-89545000D03*
%TO.N,GND*%
X127625000Y-66688390D03*
%TO.N,/C1*%
X106000000Y-89545000D03*
X90815000Y-65000000D03*
X122000000Y-70495000D03*
%TO.N,/R1*%
X85625000Y-70495000D03*
%TO.N,Net-(D1-VDD)*%
X120590001Y-104140000D03*
X116000000Y-42535000D03*
%TO.N,Net-(D1-DIN)*%
X108000000Y-41000000D03*
%TO.N,Net-(U1-GND)*%
X90190001Y-57023883D03*
%TO.N,Net-(U1-3V3)*%
X90190001Y-50854252D03*
%TO.N,Net-(U1-PA9_A5_D5_SCL)*%
X90815001Y-49276117D03*
%TO.N,Net-(U1-PA8_A4_D4_SDA)*%
X89885558Y-50114442D03*
%TD*%
%TO.N,/C0*%
D24*
X103000000Y-89545000D02*
X102870000Y-89675000D01*
X87000000Y-67925000D02*
X87000000Y-85000000D01*
X102870000Y-89675000D02*
X102870000Y-105410000D01*
X86075000Y-67000000D02*
X87000000Y-67925000D01*
X97700000Y-85000000D02*
X99060000Y-86360000D01*
X87000000Y-85000000D02*
X97700000Y-85000000D01*
%TO.N,GND*%
X126915001Y-67398389D02*
X126915001Y-105315000D01*
X127625000Y-66688390D02*
X126915001Y-67398389D01*
X126915001Y-105315000D02*
X126590001Y-105640000D01*
X126590001Y-105640000D02*
X125790001Y-105640000D01*
%TO.N,/C1*%
X106000000Y-102190000D02*
X109220000Y-105410000D01*
X90815000Y-65000000D02*
X115000000Y-65000000D01*
X106000000Y-89545000D02*
X106000000Y-102190000D01*
X122000000Y-70495000D02*
X122000000Y-85010000D01*
X122000000Y-85010000D02*
X120650000Y-86360000D01*
X115000000Y-66740000D02*
X115570000Y-67310000D01*
X115000000Y-65000000D02*
X115000000Y-66740000D01*
%TO.N,/R2*%
X86161092Y-38086092D02*
X84550000Y-39697184D01*
X84550000Y-109550000D02*
X85000000Y-110000000D01*
X85000000Y-110000000D02*
X85780000Y-109220000D01*
X85780000Y-109220000D02*
X97790000Y-109220000D01*
X84550000Y-39697184D02*
X84550000Y-109550000D01*
%TO.N,/R1*%
X85000000Y-71120000D02*
X85000000Y-90000000D01*
X85625000Y-70495000D02*
X85000000Y-71120000D01*
X85170000Y-90170000D02*
X97790000Y-90170000D01*
X85000000Y-90000000D02*
X85170000Y-90170000D01*
%TO.N,Net-(D1-DIN)*%
X108000000Y-73247588D02*
X108000000Y-68435000D01*
X116695000Y-67775991D02*
X116695000Y-49695000D01*
X108000000Y-68435000D02*
X116035991Y-68435000D01*
X110445000Y-78142588D02*
X110445000Y-75692588D01*
X116035991Y-68435000D02*
X116695000Y-67775991D01*
X125790001Y-104140000D02*
X125790001Y-93487589D01*
X110445000Y-75692588D02*
X108000000Y-73247588D01*
X116695000Y-49695000D02*
X108000000Y-41000000D01*
X125790001Y-93487589D02*
X110445000Y-78142588D01*
%TO.N,Net-(U1-GND)*%
X107320000Y-37593299D02*
X105266701Y-35540000D01*
X107320000Y-43596701D02*
X107320000Y-37593299D01*
X106581701Y-44335000D02*
X107320000Y-43596701D01*
X105266701Y-35540000D02*
X104145000Y-35540000D01*
X102878884Y-44335000D02*
X106581701Y-44335000D01*
X90190001Y-57023883D02*
X102878884Y-44335000D01*
%TO.N,Net-(U1-3V3)*%
X90190001Y-52911700D02*
X87126701Y-55975000D01*
X90190001Y-50854252D02*
X90190001Y-52911700D01*
X86153299Y-58325000D02*
X87126701Y-58325000D01*
X85465000Y-56663299D02*
X85465000Y-57636701D01*
X86153299Y-55975000D02*
X85465000Y-56663299D01*
X102970000Y-39255000D02*
X104145000Y-38080000D01*
X85465000Y-57636701D02*
X86153299Y-58325000D01*
X87126701Y-55975000D02*
X86153299Y-55975000D01*
X87126701Y-58325000D02*
X102970000Y-42481701D01*
X102970000Y-42481701D02*
X102970000Y-39255000D01*
%TO.N,Net-(U1-PA9_A5_D5_SCL)*%
X90815001Y-49276117D02*
X90815001Y-52974999D01*
X90815001Y-52974999D02*
X86640000Y-57150000D01*
%TO.N,Net-(U1-PA8_A4_D4_SDA)*%
X89885558Y-50114442D02*
X90020000Y-49980000D01*
X90020000Y-49980000D02*
X90020000Y-44285000D01*
X90020000Y-44285000D02*
X88895000Y-43160000D01*
%TD*%
M02*
