%TF.GenerationSoftware,KiCad,Pcbnew,10.0.4*%
%TF.CreationDate,2026-07-01T10:39:58-05:00*%
%TF.ProjectId,Hackboard_v1,4861636b-626f-4617-9264-5f76312e6b69,rev?*%
%TF.SameCoordinates,Original*%
%TF.FileFunction,Drillmap*%
%TF.FilePolarity,Positive*%
%FSLAX45Y45*%
G04 Gerber Fmt 4.5, Leading zero omitted, Abs format (unit mm)*
G04 Created by KiCad (PCBNEW 10.0.4) date 2026-07-01 10:39:58*
%MOMM*%
%LPD*%
G01*
G04 APERTURE LIST*
%ADD10C,0.050000*%
%ADD11C,0.200000*%
%ADD12C,0.170000*%
%ADD13C,0.320000*%
%ADD14C,0.400000*%
G04 APERTURE END LIST*
D10*
X7620000Y-3000000D02*
X15240000Y-3000000D01*
X15240000Y-12954000D01*
X7620000Y-12954000D01*
X7620000Y-3000000D01*
D11*
D12*
X8932000Y-7535000D02*
X9102000Y-7705000D01*
X9102000Y-7535000D02*
X8932000Y-7705000D01*
X8932000Y-9440000D02*
X9102000Y-9610000D01*
X9102000Y-9440000D02*
X8932000Y-9610000D01*
X8932000Y-11345000D02*
X9102000Y-11515000D01*
X9102000Y-11345000D02*
X8932000Y-11515000D01*
X9948000Y-7535000D02*
X10118000Y-7705000D01*
X10118000Y-7535000D02*
X9948000Y-7705000D01*
X9948000Y-9440000D02*
X10118000Y-9610000D01*
X10118000Y-9440000D02*
X9948000Y-9610000D01*
X9948000Y-11345000D02*
X10118000Y-11515000D01*
X10118000Y-11345000D02*
X9948000Y-11515000D01*
X10837000Y-7535000D02*
X11007000Y-7705000D01*
X11007000Y-7535000D02*
X10837000Y-7705000D01*
X10837000Y-9440000D02*
X11007000Y-9610000D01*
X11007000Y-9440000D02*
X10837000Y-9610000D01*
X10837000Y-11345000D02*
X11007000Y-11515000D01*
X11007000Y-11345000D02*
X10837000Y-11515000D01*
X11853000Y-7535000D02*
X12023000Y-7705000D01*
X12023000Y-7535000D02*
X11853000Y-7705000D01*
X11853000Y-9440000D02*
X12023000Y-9610000D01*
X12023000Y-9440000D02*
X11853000Y-9610000D01*
X11853000Y-11345000D02*
X12023000Y-11515000D01*
X12023000Y-11345000D02*
X11853000Y-11515000D01*
X12742000Y-7535000D02*
X12912000Y-7705000D01*
X12912000Y-7535000D02*
X12742000Y-7705000D01*
X12742000Y-9440000D02*
X12912000Y-9610000D01*
X12912000Y-9440000D02*
X12742000Y-9610000D01*
X12742000Y-11345000D02*
X12912000Y-11515000D01*
X12912000Y-11345000D02*
X12742000Y-11515000D01*
X13758000Y-7535000D02*
X13928000Y-7705000D01*
X13928000Y-7535000D02*
X13758000Y-7705000D01*
X13758000Y-9440000D02*
X13928000Y-9610000D01*
X13928000Y-9440000D02*
X13758000Y-9610000D01*
X13758000Y-11345000D02*
X13928000Y-11515000D01*
X13928000Y-11345000D02*
X13758000Y-11515000D01*
D13*
X8260000Y-3500000D02*
G75*
G02*
X7940000Y-3500000I-160000J0D01*
G01*
X7940000Y-3500000D02*
G75*
G02*
X8260000Y-3500000I160000J0D01*
G01*
X8260000Y-12500000D02*
G75*
G02*
X7940000Y-12500000I-160000J0D01*
G01*
X7940000Y-12500000D02*
G75*
G02*
X8260000Y-12500000I160000J0D01*
G01*
X14960000Y-3500000D02*
G75*
G02*
X14640000Y-3500000I-160000J0D01*
G01*
X14640000Y-3500000D02*
G75*
G02*
X14960000Y-3500000I160000J0D01*
G01*
X14960000Y-12500000D02*
G75*
G02*
X14640000Y-12500000I-160000J0D01*
G01*
X14640000Y-12500000D02*
G75*
G02*
X14960000Y-12500000I160000J0D01*
G01*
D14*
X9525000Y-7420000D02*
X9525000Y-7820000D01*
X9325000Y-7620000D02*
X9725000Y-7620000D01*
X9525000Y-9325000D02*
X9525000Y-9725000D01*
X9325000Y-9525000D02*
X9725000Y-9525000D01*
X9525000Y-11230000D02*
X9525000Y-11630000D01*
X9325000Y-11430000D02*
X9725000Y-11430000D01*
X11430000Y-7420000D02*
X11430000Y-7820000D01*
X11230000Y-7620000D02*
X11630000Y-7620000D01*
X11430000Y-9325000D02*
X11430000Y-9725000D01*
X11230000Y-9525000D02*
X11630000Y-9525000D01*
X11430000Y-11230000D02*
X11430000Y-11630000D01*
X11230000Y-11430000D02*
X11630000Y-11430000D01*
X13335000Y-7420000D02*
X13335000Y-7820000D01*
X13135000Y-7620000D02*
X13535000Y-7620000D01*
X13335000Y-9325000D02*
X13335000Y-9725000D01*
X13135000Y-9525000D02*
X13535000Y-9525000D01*
X13335000Y-11230000D02*
X13335000Y-11630000D01*
X13135000Y-11430000D02*
X13535000Y-11430000D01*
D11*
X7878277Y-13267984D02*
X7878277Y-13067984D01*
X7878277Y-13067984D02*
X7925896Y-13067984D01*
X7925896Y-13067984D02*
X7954467Y-13077508D01*
X7954467Y-13077508D02*
X7973515Y-13096555D01*
X7973515Y-13096555D02*
X7983039Y-13115603D01*
X7983039Y-13115603D02*
X7992562Y-13153698D01*
X7992562Y-13153698D02*
X7992562Y-13182269D01*
X7992562Y-13182269D02*
X7983039Y-13220365D01*
X7983039Y-13220365D02*
X7973515Y-13239412D01*
X7973515Y-13239412D02*
X7954467Y-13258460D01*
X7954467Y-13258460D02*
X7925896Y-13267984D01*
X7925896Y-13267984D02*
X7878277Y-13267984D01*
X8078277Y-13267984D02*
X8078277Y-13134650D01*
X8078277Y-13172746D02*
X8087801Y-13153698D01*
X8087801Y-13153698D02*
X8097324Y-13144174D01*
X8097324Y-13144174D02*
X8116372Y-13134650D01*
X8116372Y-13134650D02*
X8135420Y-13134650D01*
X8202086Y-13267984D02*
X8202086Y-13134650D01*
X8202086Y-13067984D02*
X8192562Y-13077508D01*
X8192562Y-13077508D02*
X8202086Y-13087031D01*
X8202086Y-13087031D02*
X8211610Y-13077508D01*
X8211610Y-13077508D02*
X8202086Y-13067984D01*
X8202086Y-13067984D02*
X8202086Y-13087031D01*
X8325896Y-13267984D02*
X8306848Y-13258460D01*
X8306848Y-13258460D02*
X8297324Y-13239412D01*
X8297324Y-13239412D02*
X8297324Y-13067984D01*
X8430658Y-13267984D02*
X8411610Y-13258460D01*
X8411610Y-13258460D02*
X8402086Y-13239412D01*
X8402086Y-13239412D02*
X8402086Y-13067984D01*
X8659229Y-13267984D02*
X8659229Y-13067984D01*
X8659229Y-13067984D02*
X8725896Y-13210841D01*
X8725896Y-13210841D02*
X8792563Y-13067984D01*
X8792563Y-13067984D02*
X8792563Y-13267984D01*
X8973515Y-13267984D02*
X8973515Y-13163222D01*
X8973515Y-13163222D02*
X8963991Y-13144174D01*
X8963991Y-13144174D02*
X8944944Y-13134650D01*
X8944944Y-13134650D02*
X8906848Y-13134650D01*
X8906848Y-13134650D02*
X8887801Y-13144174D01*
X8973515Y-13258460D02*
X8954467Y-13267984D01*
X8954467Y-13267984D02*
X8906848Y-13267984D01*
X8906848Y-13267984D02*
X8887801Y-13258460D01*
X8887801Y-13258460D02*
X8878277Y-13239412D01*
X8878277Y-13239412D02*
X8878277Y-13220365D01*
X8878277Y-13220365D02*
X8887801Y-13201317D01*
X8887801Y-13201317D02*
X8906848Y-13191793D01*
X8906848Y-13191793D02*
X8954467Y-13191793D01*
X8954467Y-13191793D02*
X8973515Y-13182269D01*
X9068753Y-13134650D02*
X9068753Y-13334650D01*
X9068753Y-13144174D02*
X9087801Y-13134650D01*
X9087801Y-13134650D02*
X9125896Y-13134650D01*
X9125896Y-13134650D02*
X9144944Y-13144174D01*
X9144944Y-13144174D02*
X9154467Y-13153698D01*
X9154467Y-13153698D02*
X9163991Y-13172746D01*
X9163991Y-13172746D02*
X9163991Y-13229888D01*
X9163991Y-13229888D02*
X9154467Y-13248936D01*
X9154467Y-13248936D02*
X9144944Y-13258460D01*
X9144944Y-13258460D02*
X9125896Y-13267984D01*
X9125896Y-13267984D02*
X9087801Y-13267984D01*
X9087801Y-13267984D02*
X9068753Y-13258460D01*
X9249705Y-13248936D02*
X9259229Y-13258460D01*
X9259229Y-13258460D02*
X9249705Y-13267984D01*
X9249705Y-13267984D02*
X9240182Y-13258460D01*
X9240182Y-13258460D02*
X9249705Y-13248936D01*
X9249705Y-13248936D02*
X9249705Y-13267984D01*
X9249705Y-13144174D02*
X9259229Y-13153698D01*
X9259229Y-13153698D02*
X9249705Y-13163222D01*
X9249705Y-13163222D02*
X9240182Y-13153698D01*
X9240182Y-13153698D02*
X9249705Y-13144174D01*
X9249705Y-13144174D02*
X9249705Y-13163222D01*
D12*
X7447500Y-13511500D02*
X7617500Y-13681500D01*
X7617500Y-13511500D02*
X7447500Y-13681500D01*
D11*
X7983039Y-13687984D02*
X7868753Y-13687984D01*
X7925896Y-13687984D02*
X7925896Y-13487984D01*
X7925896Y-13487984D02*
X7906848Y-13516555D01*
X7906848Y-13516555D02*
X7887801Y-13535603D01*
X7887801Y-13535603D02*
X7868753Y-13545127D01*
X8068753Y-13668936D02*
X8078277Y-13678460D01*
X8078277Y-13678460D02*
X8068753Y-13687984D01*
X8068753Y-13687984D02*
X8059229Y-13678460D01*
X8059229Y-13678460D02*
X8068753Y-13668936D01*
X8068753Y-13668936D02*
X8068753Y-13687984D01*
X8144943Y-13487984D02*
X8278277Y-13487984D01*
X8278277Y-13487984D02*
X8192562Y-13687984D01*
X8392563Y-13487984D02*
X8411610Y-13487984D01*
X8411610Y-13487984D02*
X8430658Y-13497508D01*
X8430658Y-13497508D02*
X8440182Y-13507031D01*
X8440182Y-13507031D02*
X8449705Y-13526079D01*
X8449705Y-13526079D02*
X8459229Y-13564174D01*
X8459229Y-13564174D02*
X8459229Y-13611793D01*
X8459229Y-13611793D02*
X8449705Y-13649888D01*
X8449705Y-13649888D02*
X8440182Y-13668936D01*
X8440182Y-13668936D02*
X8430658Y-13678460D01*
X8430658Y-13678460D02*
X8411610Y-13687984D01*
X8411610Y-13687984D02*
X8392563Y-13687984D01*
X8392563Y-13687984D02*
X8373515Y-13678460D01*
X8373515Y-13678460D02*
X8363991Y-13668936D01*
X8363991Y-13668936D02*
X8354467Y-13649888D01*
X8354467Y-13649888D02*
X8344943Y-13611793D01*
X8344943Y-13611793D02*
X8344943Y-13564174D01*
X8344943Y-13564174D02*
X8354467Y-13526079D01*
X8354467Y-13526079D02*
X8363991Y-13507031D01*
X8363991Y-13507031D02*
X8373515Y-13497508D01*
X8373515Y-13497508D02*
X8392563Y-13487984D01*
X8583039Y-13487984D02*
X8602086Y-13487984D01*
X8602086Y-13487984D02*
X8621134Y-13497508D01*
X8621134Y-13497508D02*
X8630658Y-13507031D01*
X8630658Y-13507031D02*
X8640182Y-13526079D01*
X8640182Y-13526079D02*
X8649705Y-13564174D01*
X8649705Y-13564174D02*
X8649705Y-13611793D01*
X8649705Y-13611793D02*
X8640182Y-13649888D01*
X8640182Y-13649888D02*
X8630658Y-13668936D01*
X8630658Y-13668936D02*
X8621134Y-13678460D01*
X8621134Y-13678460D02*
X8602086Y-13687984D01*
X8602086Y-13687984D02*
X8583039Y-13687984D01*
X8583039Y-13687984D02*
X8563991Y-13678460D01*
X8563991Y-13678460D02*
X8554467Y-13668936D01*
X8554467Y-13668936D02*
X8544944Y-13649888D01*
X8544944Y-13649888D02*
X8535420Y-13611793D01*
X8535420Y-13611793D02*
X8535420Y-13564174D01*
X8535420Y-13564174D02*
X8544944Y-13526079D01*
X8544944Y-13526079D02*
X8554467Y-13507031D01*
X8554467Y-13507031D02*
X8563991Y-13497508D01*
X8563991Y-13497508D02*
X8583039Y-13487984D01*
X8735420Y-13687984D02*
X8735420Y-13554650D01*
X8735420Y-13573698D02*
X8744944Y-13564174D01*
X8744944Y-13564174D02*
X8763991Y-13554650D01*
X8763991Y-13554650D02*
X8792563Y-13554650D01*
X8792563Y-13554650D02*
X8811610Y-13564174D01*
X8811610Y-13564174D02*
X8821134Y-13583222D01*
X8821134Y-13583222D02*
X8821134Y-13687984D01*
X8821134Y-13583222D02*
X8830658Y-13564174D01*
X8830658Y-13564174D02*
X8849705Y-13554650D01*
X8849705Y-13554650D02*
X8878277Y-13554650D01*
X8878277Y-13554650D02*
X8897325Y-13564174D01*
X8897325Y-13564174D02*
X8906848Y-13583222D01*
X8906848Y-13583222D02*
X8906848Y-13687984D01*
X9002086Y-13687984D02*
X9002086Y-13554650D01*
X9002086Y-13573698D02*
X9011610Y-13564174D01*
X9011610Y-13564174D02*
X9030658Y-13554650D01*
X9030658Y-13554650D02*
X9059229Y-13554650D01*
X9059229Y-13554650D02*
X9078277Y-13564174D01*
X9078277Y-13564174D02*
X9087801Y-13583222D01*
X9087801Y-13583222D02*
X9087801Y-13687984D01*
X9087801Y-13583222D02*
X9097325Y-13564174D01*
X9097325Y-13564174D02*
X9116372Y-13554650D01*
X9116372Y-13554650D02*
X9144944Y-13554650D01*
X9144944Y-13554650D02*
X9163991Y-13564174D01*
X9163991Y-13564174D02*
X9173515Y-13583222D01*
X9173515Y-13583222D02*
X9173515Y-13687984D01*
X9563991Y-13478460D02*
X9392563Y-13735603D01*
X9821134Y-13487984D02*
X9840182Y-13487984D01*
X9840182Y-13487984D02*
X9859229Y-13497508D01*
X9859229Y-13497508D02*
X9868753Y-13507031D01*
X9868753Y-13507031D02*
X9878277Y-13526079D01*
X9878277Y-13526079D02*
X9887801Y-13564174D01*
X9887801Y-13564174D02*
X9887801Y-13611793D01*
X9887801Y-13611793D02*
X9878277Y-13649888D01*
X9878277Y-13649888D02*
X9868753Y-13668936D01*
X9868753Y-13668936D02*
X9859229Y-13678460D01*
X9859229Y-13678460D02*
X9840182Y-13687984D01*
X9840182Y-13687984D02*
X9821134Y-13687984D01*
X9821134Y-13687984D02*
X9802087Y-13678460D01*
X9802087Y-13678460D02*
X9792563Y-13668936D01*
X9792563Y-13668936D02*
X9783039Y-13649888D01*
X9783039Y-13649888D02*
X9773515Y-13611793D01*
X9773515Y-13611793D02*
X9773515Y-13564174D01*
X9773515Y-13564174D02*
X9783039Y-13526079D01*
X9783039Y-13526079D02*
X9792563Y-13507031D01*
X9792563Y-13507031D02*
X9802087Y-13497508D01*
X9802087Y-13497508D02*
X9821134Y-13487984D01*
X9973515Y-13668936D02*
X9983039Y-13678460D01*
X9983039Y-13678460D02*
X9973515Y-13687984D01*
X9973515Y-13687984D02*
X9963991Y-13678460D01*
X9963991Y-13678460D02*
X9973515Y-13668936D01*
X9973515Y-13668936D02*
X9973515Y-13687984D01*
X10106848Y-13487984D02*
X10125896Y-13487984D01*
X10125896Y-13487984D02*
X10144944Y-13497508D01*
X10144944Y-13497508D02*
X10154468Y-13507031D01*
X10154468Y-13507031D02*
X10163991Y-13526079D01*
X10163991Y-13526079D02*
X10173515Y-13564174D01*
X10173515Y-13564174D02*
X10173515Y-13611793D01*
X10173515Y-13611793D02*
X10163991Y-13649888D01*
X10163991Y-13649888D02*
X10154468Y-13668936D01*
X10154468Y-13668936D02*
X10144944Y-13678460D01*
X10144944Y-13678460D02*
X10125896Y-13687984D01*
X10125896Y-13687984D02*
X10106848Y-13687984D01*
X10106848Y-13687984D02*
X10087801Y-13678460D01*
X10087801Y-13678460D02*
X10078277Y-13668936D01*
X10078277Y-13668936D02*
X10068753Y-13649888D01*
X10068753Y-13649888D02*
X10059229Y-13611793D01*
X10059229Y-13611793D02*
X10059229Y-13564174D01*
X10059229Y-13564174D02*
X10068753Y-13526079D01*
X10068753Y-13526079D02*
X10078277Y-13507031D01*
X10078277Y-13507031D02*
X10087801Y-13497508D01*
X10087801Y-13497508D02*
X10106848Y-13487984D01*
X10344944Y-13487984D02*
X10306848Y-13487984D01*
X10306848Y-13487984D02*
X10287801Y-13497508D01*
X10287801Y-13497508D02*
X10278277Y-13507031D01*
X10278277Y-13507031D02*
X10259229Y-13535603D01*
X10259229Y-13535603D02*
X10249706Y-13573698D01*
X10249706Y-13573698D02*
X10249706Y-13649888D01*
X10249706Y-13649888D02*
X10259229Y-13668936D01*
X10259229Y-13668936D02*
X10268753Y-13678460D01*
X10268753Y-13678460D02*
X10287801Y-13687984D01*
X10287801Y-13687984D02*
X10325896Y-13687984D01*
X10325896Y-13687984D02*
X10344944Y-13678460D01*
X10344944Y-13678460D02*
X10354468Y-13668936D01*
X10354468Y-13668936D02*
X10363991Y-13649888D01*
X10363991Y-13649888D02*
X10363991Y-13602269D01*
X10363991Y-13602269D02*
X10354468Y-13583222D01*
X10354468Y-13583222D02*
X10344944Y-13573698D01*
X10344944Y-13573698D02*
X10325896Y-13564174D01*
X10325896Y-13564174D02*
X10287801Y-13564174D01*
X10287801Y-13564174D02*
X10268753Y-13573698D01*
X10268753Y-13573698D02*
X10259229Y-13583222D01*
X10259229Y-13583222D02*
X10249706Y-13602269D01*
X10535420Y-13487984D02*
X10497325Y-13487984D01*
X10497325Y-13487984D02*
X10478277Y-13497508D01*
X10478277Y-13497508D02*
X10468753Y-13507031D01*
X10468753Y-13507031D02*
X10449706Y-13535603D01*
X10449706Y-13535603D02*
X10440182Y-13573698D01*
X10440182Y-13573698D02*
X10440182Y-13649888D01*
X10440182Y-13649888D02*
X10449706Y-13668936D01*
X10449706Y-13668936D02*
X10459229Y-13678460D01*
X10459229Y-13678460D02*
X10478277Y-13687984D01*
X10478277Y-13687984D02*
X10516372Y-13687984D01*
X10516372Y-13687984D02*
X10535420Y-13678460D01*
X10535420Y-13678460D02*
X10544944Y-13668936D01*
X10544944Y-13668936D02*
X10554468Y-13649888D01*
X10554468Y-13649888D02*
X10554468Y-13602269D01*
X10554468Y-13602269D02*
X10544944Y-13583222D01*
X10544944Y-13583222D02*
X10535420Y-13573698D01*
X10535420Y-13573698D02*
X10516372Y-13564174D01*
X10516372Y-13564174D02*
X10478277Y-13564174D01*
X10478277Y-13564174D02*
X10459229Y-13573698D01*
X10459229Y-13573698D02*
X10449706Y-13583222D01*
X10449706Y-13583222D02*
X10440182Y-13602269D01*
X10649706Y-13687984D02*
X10687801Y-13687984D01*
X10687801Y-13687984D02*
X10706849Y-13678460D01*
X10706849Y-13678460D02*
X10716372Y-13668936D01*
X10716372Y-13668936D02*
X10735420Y-13640365D01*
X10735420Y-13640365D02*
X10744944Y-13602269D01*
X10744944Y-13602269D02*
X10744944Y-13526079D01*
X10744944Y-13526079D02*
X10735420Y-13507031D01*
X10735420Y-13507031D02*
X10725896Y-13497508D01*
X10725896Y-13497508D02*
X10706849Y-13487984D01*
X10706849Y-13487984D02*
X10668753Y-13487984D01*
X10668753Y-13487984D02*
X10649706Y-13497508D01*
X10649706Y-13497508D02*
X10640182Y-13507031D01*
X10640182Y-13507031D02*
X10630658Y-13526079D01*
X10630658Y-13526079D02*
X10630658Y-13573698D01*
X10630658Y-13573698D02*
X10640182Y-13592746D01*
X10640182Y-13592746D02*
X10649706Y-13602269D01*
X10649706Y-13602269D02*
X10668753Y-13611793D01*
X10668753Y-13611793D02*
X10706849Y-13611793D01*
X10706849Y-13611793D02*
X10725896Y-13602269D01*
X10725896Y-13602269D02*
X10735420Y-13592746D01*
X10735420Y-13592746D02*
X10744944Y-13573698D01*
X10821134Y-13487984D02*
X10821134Y-13526079D01*
X10897325Y-13487984D02*
X10897325Y-13526079D01*
X11192563Y-13764174D02*
X11183039Y-13754650D01*
X11183039Y-13754650D02*
X11163991Y-13726079D01*
X11163991Y-13726079D02*
X11154468Y-13707031D01*
X11154468Y-13707031D02*
X11144944Y-13678460D01*
X11144944Y-13678460D02*
X11135420Y-13630841D01*
X11135420Y-13630841D02*
X11135420Y-13592746D01*
X11135420Y-13592746D02*
X11144944Y-13545127D01*
X11144944Y-13545127D02*
X11154468Y-13516555D01*
X11154468Y-13516555D02*
X11163991Y-13497508D01*
X11163991Y-13497508D02*
X11183039Y-13468936D01*
X11183039Y-13468936D02*
X11192563Y-13459412D01*
X11373515Y-13687984D02*
X11259229Y-13687984D01*
X11316372Y-13687984D02*
X11316372Y-13487984D01*
X11316372Y-13487984D02*
X11297325Y-13516555D01*
X11297325Y-13516555D02*
X11278277Y-13535603D01*
X11278277Y-13535603D02*
X11259229Y-13545127D01*
X11487801Y-13573698D02*
X11468753Y-13564174D01*
X11468753Y-13564174D02*
X11459229Y-13554650D01*
X11459229Y-13554650D02*
X11449706Y-13535603D01*
X11449706Y-13535603D02*
X11449706Y-13526079D01*
X11449706Y-13526079D02*
X11459229Y-13507031D01*
X11459229Y-13507031D02*
X11468753Y-13497508D01*
X11468753Y-13497508D02*
X11487801Y-13487984D01*
X11487801Y-13487984D02*
X11525896Y-13487984D01*
X11525896Y-13487984D02*
X11544944Y-13497508D01*
X11544944Y-13497508D02*
X11554468Y-13507031D01*
X11554468Y-13507031D02*
X11563991Y-13526079D01*
X11563991Y-13526079D02*
X11563991Y-13535603D01*
X11563991Y-13535603D02*
X11554468Y-13554650D01*
X11554468Y-13554650D02*
X11544944Y-13564174D01*
X11544944Y-13564174D02*
X11525896Y-13573698D01*
X11525896Y-13573698D02*
X11487801Y-13573698D01*
X11487801Y-13573698D02*
X11468753Y-13583222D01*
X11468753Y-13583222D02*
X11459229Y-13592746D01*
X11459229Y-13592746D02*
X11449706Y-13611793D01*
X11449706Y-13611793D02*
X11449706Y-13649888D01*
X11449706Y-13649888D02*
X11459229Y-13668936D01*
X11459229Y-13668936D02*
X11468753Y-13678460D01*
X11468753Y-13678460D02*
X11487801Y-13687984D01*
X11487801Y-13687984D02*
X11525896Y-13687984D01*
X11525896Y-13687984D02*
X11544944Y-13678460D01*
X11544944Y-13678460D02*
X11554468Y-13668936D01*
X11554468Y-13668936D02*
X11563991Y-13649888D01*
X11563991Y-13649888D02*
X11563991Y-13611793D01*
X11563991Y-13611793D02*
X11554468Y-13592746D01*
X11554468Y-13592746D02*
X11544944Y-13583222D01*
X11544944Y-13583222D02*
X11525896Y-13573698D01*
X11802087Y-13687984D02*
X11802087Y-13487984D01*
X11887801Y-13687984D02*
X11887801Y-13583222D01*
X11887801Y-13583222D02*
X11878277Y-13564174D01*
X11878277Y-13564174D02*
X11859230Y-13554650D01*
X11859230Y-13554650D02*
X11830658Y-13554650D01*
X11830658Y-13554650D02*
X11811610Y-13564174D01*
X11811610Y-13564174D02*
X11802087Y-13573698D01*
X12011610Y-13687984D02*
X11992563Y-13678460D01*
X11992563Y-13678460D02*
X11983039Y-13668936D01*
X11983039Y-13668936D02*
X11973515Y-13649888D01*
X11973515Y-13649888D02*
X11973515Y-13592746D01*
X11973515Y-13592746D02*
X11983039Y-13573698D01*
X11983039Y-13573698D02*
X11992563Y-13564174D01*
X11992563Y-13564174D02*
X12011610Y-13554650D01*
X12011610Y-13554650D02*
X12040182Y-13554650D01*
X12040182Y-13554650D02*
X12059230Y-13564174D01*
X12059230Y-13564174D02*
X12068753Y-13573698D01*
X12068753Y-13573698D02*
X12078277Y-13592746D01*
X12078277Y-13592746D02*
X12078277Y-13649888D01*
X12078277Y-13649888D02*
X12068753Y-13668936D01*
X12068753Y-13668936D02*
X12059230Y-13678460D01*
X12059230Y-13678460D02*
X12040182Y-13687984D01*
X12040182Y-13687984D02*
X12011610Y-13687984D01*
X12192563Y-13687984D02*
X12173515Y-13678460D01*
X12173515Y-13678460D02*
X12163991Y-13659412D01*
X12163991Y-13659412D02*
X12163991Y-13487984D01*
X12344944Y-13678460D02*
X12325896Y-13687984D01*
X12325896Y-13687984D02*
X12287801Y-13687984D01*
X12287801Y-13687984D02*
X12268753Y-13678460D01*
X12268753Y-13678460D02*
X12259230Y-13659412D01*
X12259230Y-13659412D02*
X12259230Y-13583222D01*
X12259230Y-13583222D02*
X12268753Y-13564174D01*
X12268753Y-13564174D02*
X12287801Y-13554650D01*
X12287801Y-13554650D02*
X12325896Y-13554650D01*
X12325896Y-13554650D02*
X12344944Y-13564174D01*
X12344944Y-13564174D02*
X12354468Y-13583222D01*
X12354468Y-13583222D02*
X12354468Y-13602269D01*
X12354468Y-13602269D02*
X12259230Y-13621317D01*
X12430658Y-13678460D02*
X12449706Y-13687984D01*
X12449706Y-13687984D02*
X12487801Y-13687984D01*
X12487801Y-13687984D02*
X12506849Y-13678460D01*
X12506849Y-13678460D02*
X12516372Y-13659412D01*
X12516372Y-13659412D02*
X12516372Y-13649888D01*
X12516372Y-13649888D02*
X12506849Y-13630841D01*
X12506849Y-13630841D02*
X12487801Y-13621317D01*
X12487801Y-13621317D02*
X12459230Y-13621317D01*
X12459230Y-13621317D02*
X12440182Y-13611793D01*
X12440182Y-13611793D02*
X12430658Y-13592746D01*
X12430658Y-13592746D02*
X12430658Y-13583222D01*
X12430658Y-13583222D02*
X12440182Y-13564174D01*
X12440182Y-13564174D02*
X12459230Y-13554650D01*
X12459230Y-13554650D02*
X12487801Y-13554650D01*
X12487801Y-13554650D02*
X12506849Y-13564174D01*
X12583039Y-13764174D02*
X12592563Y-13754650D01*
X12592563Y-13754650D02*
X12611611Y-13726079D01*
X12611611Y-13726079D02*
X12621134Y-13707031D01*
X12621134Y-13707031D02*
X12630658Y-13678460D01*
X12630658Y-13678460D02*
X12640182Y-13630841D01*
X12640182Y-13630841D02*
X12640182Y-13592746D01*
X12640182Y-13592746D02*
X12630658Y-13545127D01*
X12630658Y-13545127D02*
X12621134Y-13516555D01*
X12621134Y-13516555D02*
X12611611Y-13497508D01*
X12611611Y-13497508D02*
X12592563Y-13468936D01*
X12592563Y-13468936D02*
X12583039Y-13459412D01*
X12944944Y-13764174D02*
X12935420Y-13754650D01*
X12935420Y-13754650D02*
X12916372Y-13726079D01*
X12916372Y-13726079D02*
X12906849Y-13707031D01*
X12906849Y-13707031D02*
X12897325Y-13678460D01*
X12897325Y-13678460D02*
X12887801Y-13630841D01*
X12887801Y-13630841D02*
X12887801Y-13592746D01*
X12887801Y-13592746D02*
X12897325Y-13545127D01*
X12897325Y-13545127D02*
X12906849Y-13516555D01*
X12906849Y-13516555D02*
X12916372Y-13497508D01*
X12916372Y-13497508D02*
X12935420Y-13468936D01*
X12935420Y-13468936D02*
X12944944Y-13459412D01*
X13021134Y-13554650D02*
X13021134Y-13687984D01*
X13021134Y-13573698D02*
X13030658Y-13564174D01*
X13030658Y-13564174D02*
X13049706Y-13554650D01*
X13049706Y-13554650D02*
X13078277Y-13554650D01*
X13078277Y-13554650D02*
X13097325Y-13564174D01*
X13097325Y-13564174D02*
X13106849Y-13583222D01*
X13106849Y-13583222D02*
X13106849Y-13687984D01*
X13230658Y-13687984D02*
X13211611Y-13678460D01*
X13211611Y-13678460D02*
X13202087Y-13668936D01*
X13202087Y-13668936D02*
X13192563Y-13649888D01*
X13192563Y-13649888D02*
X13192563Y-13592746D01*
X13192563Y-13592746D02*
X13202087Y-13573698D01*
X13202087Y-13573698D02*
X13211611Y-13564174D01*
X13211611Y-13564174D02*
X13230658Y-13554650D01*
X13230658Y-13554650D02*
X13259230Y-13554650D01*
X13259230Y-13554650D02*
X13278277Y-13564174D01*
X13278277Y-13564174D02*
X13287801Y-13573698D01*
X13287801Y-13573698D02*
X13297325Y-13592746D01*
X13297325Y-13592746D02*
X13297325Y-13649888D01*
X13297325Y-13649888D02*
X13287801Y-13668936D01*
X13287801Y-13668936D02*
X13278277Y-13678460D01*
X13278277Y-13678460D02*
X13259230Y-13687984D01*
X13259230Y-13687984D02*
X13230658Y-13687984D01*
X13354468Y-13554650D02*
X13430658Y-13554650D01*
X13383039Y-13487984D02*
X13383039Y-13659412D01*
X13383039Y-13659412D02*
X13392563Y-13678460D01*
X13392563Y-13678460D02*
X13411611Y-13687984D01*
X13411611Y-13687984D02*
X13430658Y-13687984D01*
X13649706Y-13554650D02*
X13649706Y-13754650D01*
X13649706Y-13564174D02*
X13668753Y-13554650D01*
X13668753Y-13554650D02*
X13706849Y-13554650D01*
X13706849Y-13554650D02*
X13725896Y-13564174D01*
X13725896Y-13564174D02*
X13735420Y-13573698D01*
X13735420Y-13573698D02*
X13744944Y-13592746D01*
X13744944Y-13592746D02*
X13744944Y-13649888D01*
X13744944Y-13649888D02*
X13735420Y-13668936D01*
X13735420Y-13668936D02*
X13725896Y-13678460D01*
X13725896Y-13678460D02*
X13706849Y-13687984D01*
X13706849Y-13687984D02*
X13668753Y-13687984D01*
X13668753Y-13687984D02*
X13649706Y-13678460D01*
X13859230Y-13687984D02*
X13840182Y-13678460D01*
X13840182Y-13678460D02*
X13830658Y-13659412D01*
X13830658Y-13659412D02*
X13830658Y-13487984D01*
X14021134Y-13687984D02*
X14021134Y-13583222D01*
X14021134Y-13583222D02*
X14011611Y-13564174D01*
X14011611Y-13564174D02*
X13992563Y-13554650D01*
X13992563Y-13554650D02*
X13954468Y-13554650D01*
X13954468Y-13554650D02*
X13935420Y-13564174D01*
X14021134Y-13678460D02*
X14002087Y-13687984D01*
X14002087Y-13687984D02*
X13954468Y-13687984D01*
X13954468Y-13687984D02*
X13935420Y-13678460D01*
X13935420Y-13678460D02*
X13925896Y-13659412D01*
X13925896Y-13659412D02*
X13925896Y-13640365D01*
X13925896Y-13640365D02*
X13935420Y-13621317D01*
X13935420Y-13621317D02*
X13954468Y-13611793D01*
X13954468Y-13611793D02*
X14002087Y-13611793D01*
X14002087Y-13611793D02*
X14021134Y-13602269D01*
X14087801Y-13554650D02*
X14163992Y-13554650D01*
X14116373Y-13487984D02*
X14116373Y-13659412D01*
X14116373Y-13659412D02*
X14125896Y-13678460D01*
X14125896Y-13678460D02*
X14144944Y-13687984D01*
X14144944Y-13687984D02*
X14163992Y-13687984D01*
X14306849Y-13678460D02*
X14287801Y-13687984D01*
X14287801Y-13687984D02*
X14249706Y-13687984D01*
X14249706Y-13687984D02*
X14230658Y-13678460D01*
X14230658Y-13678460D02*
X14221134Y-13659412D01*
X14221134Y-13659412D02*
X14221134Y-13583222D01*
X14221134Y-13583222D02*
X14230658Y-13564174D01*
X14230658Y-13564174D02*
X14249706Y-13554650D01*
X14249706Y-13554650D02*
X14287801Y-13554650D01*
X14287801Y-13554650D02*
X14306849Y-13564174D01*
X14306849Y-13564174D02*
X14316373Y-13583222D01*
X14316373Y-13583222D02*
X14316373Y-13602269D01*
X14316373Y-13602269D02*
X14221134Y-13621317D01*
X14487801Y-13687984D02*
X14487801Y-13487984D01*
X14487801Y-13678460D02*
X14468754Y-13687984D01*
X14468754Y-13687984D02*
X14430658Y-13687984D01*
X14430658Y-13687984D02*
X14411611Y-13678460D01*
X14411611Y-13678460D02*
X14402087Y-13668936D01*
X14402087Y-13668936D02*
X14392563Y-13649888D01*
X14392563Y-13649888D02*
X14392563Y-13592746D01*
X14392563Y-13592746D02*
X14402087Y-13573698D01*
X14402087Y-13573698D02*
X14411611Y-13564174D01*
X14411611Y-13564174D02*
X14430658Y-13554650D01*
X14430658Y-13554650D02*
X14468754Y-13554650D01*
X14468754Y-13554650D02*
X14487801Y-13564174D01*
X14563992Y-13764174D02*
X14573515Y-13754650D01*
X14573515Y-13754650D02*
X14592563Y-13726079D01*
X14592563Y-13726079D02*
X14602087Y-13707031D01*
X14602087Y-13707031D02*
X14611611Y-13678460D01*
X14611611Y-13678460D02*
X14621134Y-13630841D01*
X14621134Y-13630841D02*
X14621134Y-13592746D01*
X14621134Y-13592746D02*
X14611611Y-13545127D01*
X14611611Y-13545127D02*
X14602087Y-13516555D01*
X14602087Y-13516555D02*
X14592563Y-13497508D01*
X14592563Y-13497508D02*
X14573515Y-13468936D01*
X14573515Y-13468936D02*
X14563992Y-13459412D01*
X7617500Y-13886500D02*
G75*
G02*
X7417500Y-13886500I-100000J0D01*
G01*
X7417500Y-13886500D02*
G75*
G02*
X7617500Y-13886500I100000J0D01*
G01*
X7859229Y-13777984D02*
X7983039Y-13777984D01*
X7983039Y-13777984D02*
X7916372Y-13854174D01*
X7916372Y-13854174D02*
X7944943Y-13854174D01*
X7944943Y-13854174D02*
X7963991Y-13863698D01*
X7963991Y-13863698D02*
X7973515Y-13873222D01*
X7973515Y-13873222D02*
X7983039Y-13892269D01*
X7983039Y-13892269D02*
X7983039Y-13939888D01*
X7983039Y-13939888D02*
X7973515Y-13958936D01*
X7973515Y-13958936D02*
X7963991Y-13968460D01*
X7963991Y-13968460D02*
X7944943Y-13977984D01*
X7944943Y-13977984D02*
X7887801Y-13977984D01*
X7887801Y-13977984D02*
X7868753Y-13968460D01*
X7868753Y-13968460D02*
X7859229Y-13958936D01*
X8068753Y-13958936D02*
X8078277Y-13968460D01*
X8078277Y-13968460D02*
X8068753Y-13977984D01*
X8068753Y-13977984D02*
X8059229Y-13968460D01*
X8059229Y-13968460D02*
X8068753Y-13958936D01*
X8068753Y-13958936D02*
X8068753Y-13977984D01*
X8154467Y-13797031D02*
X8163991Y-13787508D01*
X8163991Y-13787508D02*
X8183039Y-13777984D01*
X8183039Y-13777984D02*
X8230658Y-13777984D01*
X8230658Y-13777984D02*
X8249705Y-13787508D01*
X8249705Y-13787508D02*
X8259229Y-13797031D01*
X8259229Y-13797031D02*
X8268753Y-13816079D01*
X8268753Y-13816079D02*
X8268753Y-13835127D01*
X8268753Y-13835127D02*
X8259229Y-13863698D01*
X8259229Y-13863698D02*
X8144943Y-13977984D01*
X8144943Y-13977984D02*
X8268753Y-13977984D01*
X8392563Y-13777984D02*
X8411610Y-13777984D01*
X8411610Y-13777984D02*
X8430658Y-13787508D01*
X8430658Y-13787508D02*
X8440182Y-13797031D01*
X8440182Y-13797031D02*
X8449705Y-13816079D01*
X8449705Y-13816079D02*
X8459229Y-13854174D01*
X8459229Y-13854174D02*
X8459229Y-13901793D01*
X8459229Y-13901793D02*
X8449705Y-13939888D01*
X8449705Y-13939888D02*
X8440182Y-13958936D01*
X8440182Y-13958936D02*
X8430658Y-13968460D01*
X8430658Y-13968460D02*
X8411610Y-13977984D01*
X8411610Y-13977984D02*
X8392563Y-13977984D01*
X8392563Y-13977984D02*
X8373515Y-13968460D01*
X8373515Y-13968460D02*
X8363991Y-13958936D01*
X8363991Y-13958936D02*
X8354467Y-13939888D01*
X8354467Y-13939888D02*
X8344943Y-13901793D01*
X8344943Y-13901793D02*
X8344943Y-13854174D01*
X8344943Y-13854174D02*
X8354467Y-13816079D01*
X8354467Y-13816079D02*
X8363991Y-13797031D01*
X8363991Y-13797031D02*
X8373515Y-13787508D01*
X8373515Y-13787508D02*
X8392563Y-13777984D01*
X8583039Y-13777984D02*
X8602086Y-13777984D01*
X8602086Y-13777984D02*
X8621134Y-13787508D01*
X8621134Y-13787508D02*
X8630658Y-13797031D01*
X8630658Y-13797031D02*
X8640182Y-13816079D01*
X8640182Y-13816079D02*
X8649705Y-13854174D01*
X8649705Y-13854174D02*
X8649705Y-13901793D01*
X8649705Y-13901793D02*
X8640182Y-13939888D01*
X8640182Y-13939888D02*
X8630658Y-13958936D01*
X8630658Y-13958936D02*
X8621134Y-13968460D01*
X8621134Y-13968460D02*
X8602086Y-13977984D01*
X8602086Y-13977984D02*
X8583039Y-13977984D01*
X8583039Y-13977984D02*
X8563991Y-13968460D01*
X8563991Y-13968460D02*
X8554467Y-13958936D01*
X8554467Y-13958936D02*
X8544944Y-13939888D01*
X8544944Y-13939888D02*
X8535420Y-13901793D01*
X8535420Y-13901793D02*
X8535420Y-13854174D01*
X8535420Y-13854174D02*
X8544944Y-13816079D01*
X8544944Y-13816079D02*
X8554467Y-13797031D01*
X8554467Y-13797031D02*
X8563991Y-13787508D01*
X8563991Y-13787508D02*
X8583039Y-13777984D01*
X8735420Y-13977984D02*
X8735420Y-13844650D01*
X8735420Y-13863698D02*
X8744944Y-13854174D01*
X8744944Y-13854174D02*
X8763991Y-13844650D01*
X8763991Y-13844650D02*
X8792563Y-13844650D01*
X8792563Y-13844650D02*
X8811610Y-13854174D01*
X8811610Y-13854174D02*
X8821134Y-13873222D01*
X8821134Y-13873222D02*
X8821134Y-13977984D01*
X8821134Y-13873222D02*
X8830658Y-13854174D01*
X8830658Y-13854174D02*
X8849705Y-13844650D01*
X8849705Y-13844650D02*
X8878277Y-13844650D01*
X8878277Y-13844650D02*
X8897325Y-13854174D01*
X8897325Y-13854174D02*
X8906848Y-13873222D01*
X8906848Y-13873222D02*
X8906848Y-13977984D01*
X9002086Y-13977984D02*
X9002086Y-13844650D01*
X9002086Y-13863698D02*
X9011610Y-13854174D01*
X9011610Y-13854174D02*
X9030658Y-13844650D01*
X9030658Y-13844650D02*
X9059229Y-13844650D01*
X9059229Y-13844650D02*
X9078277Y-13854174D01*
X9078277Y-13854174D02*
X9087801Y-13873222D01*
X9087801Y-13873222D02*
X9087801Y-13977984D01*
X9087801Y-13873222D02*
X9097325Y-13854174D01*
X9097325Y-13854174D02*
X9116372Y-13844650D01*
X9116372Y-13844650D02*
X9144944Y-13844650D01*
X9144944Y-13844650D02*
X9163991Y-13854174D01*
X9163991Y-13854174D02*
X9173515Y-13873222D01*
X9173515Y-13873222D02*
X9173515Y-13977984D01*
X9563991Y-13768460D02*
X9392563Y-14025603D01*
X9821134Y-13777984D02*
X9840182Y-13777984D01*
X9840182Y-13777984D02*
X9859229Y-13787508D01*
X9859229Y-13787508D02*
X9868753Y-13797031D01*
X9868753Y-13797031D02*
X9878277Y-13816079D01*
X9878277Y-13816079D02*
X9887801Y-13854174D01*
X9887801Y-13854174D02*
X9887801Y-13901793D01*
X9887801Y-13901793D02*
X9878277Y-13939888D01*
X9878277Y-13939888D02*
X9868753Y-13958936D01*
X9868753Y-13958936D02*
X9859229Y-13968460D01*
X9859229Y-13968460D02*
X9840182Y-13977984D01*
X9840182Y-13977984D02*
X9821134Y-13977984D01*
X9821134Y-13977984D02*
X9802087Y-13968460D01*
X9802087Y-13968460D02*
X9792563Y-13958936D01*
X9792563Y-13958936D02*
X9783039Y-13939888D01*
X9783039Y-13939888D02*
X9773515Y-13901793D01*
X9773515Y-13901793D02*
X9773515Y-13854174D01*
X9773515Y-13854174D02*
X9783039Y-13816079D01*
X9783039Y-13816079D02*
X9792563Y-13797031D01*
X9792563Y-13797031D02*
X9802087Y-13787508D01*
X9802087Y-13787508D02*
X9821134Y-13777984D01*
X9973515Y-13958936D02*
X9983039Y-13968460D01*
X9983039Y-13968460D02*
X9973515Y-13977984D01*
X9973515Y-13977984D02*
X9963991Y-13968460D01*
X9963991Y-13968460D02*
X9973515Y-13958936D01*
X9973515Y-13958936D02*
X9973515Y-13977984D01*
X10173515Y-13977984D02*
X10059229Y-13977984D01*
X10116372Y-13977984D02*
X10116372Y-13777984D01*
X10116372Y-13777984D02*
X10097325Y-13806555D01*
X10097325Y-13806555D02*
X10078277Y-13825603D01*
X10078277Y-13825603D02*
X10059229Y-13835127D01*
X10249706Y-13797031D02*
X10259229Y-13787508D01*
X10259229Y-13787508D02*
X10278277Y-13777984D01*
X10278277Y-13777984D02*
X10325896Y-13777984D01*
X10325896Y-13777984D02*
X10344944Y-13787508D01*
X10344944Y-13787508D02*
X10354468Y-13797031D01*
X10354468Y-13797031D02*
X10363991Y-13816079D01*
X10363991Y-13816079D02*
X10363991Y-13835127D01*
X10363991Y-13835127D02*
X10354468Y-13863698D01*
X10354468Y-13863698D02*
X10240182Y-13977984D01*
X10240182Y-13977984D02*
X10363991Y-13977984D01*
X10535420Y-13777984D02*
X10497325Y-13777984D01*
X10497325Y-13777984D02*
X10478277Y-13787508D01*
X10478277Y-13787508D02*
X10468753Y-13797031D01*
X10468753Y-13797031D02*
X10449706Y-13825603D01*
X10449706Y-13825603D02*
X10440182Y-13863698D01*
X10440182Y-13863698D02*
X10440182Y-13939888D01*
X10440182Y-13939888D02*
X10449706Y-13958936D01*
X10449706Y-13958936D02*
X10459229Y-13968460D01*
X10459229Y-13968460D02*
X10478277Y-13977984D01*
X10478277Y-13977984D02*
X10516372Y-13977984D01*
X10516372Y-13977984D02*
X10535420Y-13968460D01*
X10535420Y-13968460D02*
X10544944Y-13958936D01*
X10544944Y-13958936D02*
X10554468Y-13939888D01*
X10554468Y-13939888D02*
X10554468Y-13892269D01*
X10554468Y-13892269D02*
X10544944Y-13873222D01*
X10544944Y-13873222D02*
X10535420Y-13863698D01*
X10535420Y-13863698D02*
X10516372Y-13854174D01*
X10516372Y-13854174D02*
X10478277Y-13854174D01*
X10478277Y-13854174D02*
X10459229Y-13863698D01*
X10459229Y-13863698D02*
X10449706Y-13873222D01*
X10449706Y-13873222D02*
X10440182Y-13892269D01*
X10678277Y-13777984D02*
X10697325Y-13777984D01*
X10697325Y-13777984D02*
X10716372Y-13787508D01*
X10716372Y-13787508D02*
X10725896Y-13797031D01*
X10725896Y-13797031D02*
X10735420Y-13816079D01*
X10735420Y-13816079D02*
X10744944Y-13854174D01*
X10744944Y-13854174D02*
X10744944Y-13901793D01*
X10744944Y-13901793D02*
X10735420Y-13939888D01*
X10735420Y-13939888D02*
X10725896Y-13958936D01*
X10725896Y-13958936D02*
X10716372Y-13968460D01*
X10716372Y-13968460D02*
X10697325Y-13977984D01*
X10697325Y-13977984D02*
X10678277Y-13977984D01*
X10678277Y-13977984D02*
X10659229Y-13968460D01*
X10659229Y-13968460D02*
X10649706Y-13958936D01*
X10649706Y-13958936D02*
X10640182Y-13939888D01*
X10640182Y-13939888D02*
X10630658Y-13901793D01*
X10630658Y-13901793D02*
X10630658Y-13854174D01*
X10630658Y-13854174D02*
X10640182Y-13816079D01*
X10640182Y-13816079D02*
X10649706Y-13797031D01*
X10649706Y-13797031D02*
X10659229Y-13787508D01*
X10659229Y-13787508D02*
X10678277Y-13777984D01*
X10821134Y-13777984D02*
X10821134Y-13816079D01*
X10897325Y-13777984D02*
X10897325Y-13816079D01*
X11192563Y-14054174D02*
X11183039Y-14044650D01*
X11183039Y-14044650D02*
X11163991Y-14016079D01*
X11163991Y-14016079D02*
X11154468Y-13997031D01*
X11154468Y-13997031D02*
X11144944Y-13968460D01*
X11144944Y-13968460D02*
X11135420Y-13920841D01*
X11135420Y-13920841D02*
X11135420Y-13882746D01*
X11135420Y-13882746D02*
X11144944Y-13835127D01*
X11144944Y-13835127D02*
X11154468Y-13806555D01*
X11154468Y-13806555D02*
X11163991Y-13787508D01*
X11163991Y-13787508D02*
X11183039Y-13758936D01*
X11183039Y-13758936D02*
X11192563Y-13749412D01*
X11354468Y-13844650D02*
X11354468Y-13977984D01*
X11306848Y-13768460D02*
X11259229Y-13911317D01*
X11259229Y-13911317D02*
X11383039Y-13911317D01*
X11611610Y-13977984D02*
X11611610Y-13777984D01*
X11697325Y-13977984D02*
X11697325Y-13873222D01*
X11697325Y-13873222D02*
X11687801Y-13854174D01*
X11687801Y-13854174D02*
X11668753Y-13844650D01*
X11668753Y-13844650D02*
X11640182Y-13844650D01*
X11640182Y-13844650D02*
X11621134Y-13854174D01*
X11621134Y-13854174D02*
X11611610Y-13863698D01*
X11821134Y-13977984D02*
X11802087Y-13968460D01*
X11802087Y-13968460D02*
X11792563Y-13958936D01*
X11792563Y-13958936D02*
X11783039Y-13939888D01*
X11783039Y-13939888D02*
X11783039Y-13882746D01*
X11783039Y-13882746D02*
X11792563Y-13863698D01*
X11792563Y-13863698D02*
X11802087Y-13854174D01*
X11802087Y-13854174D02*
X11821134Y-13844650D01*
X11821134Y-13844650D02*
X11849706Y-13844650D01*
X11849706Y-13844650D02*
X11868753Y-13854174D01*
X11868753Y-13854174D02*
X11878277Y-13863698D01*
X11878277Y-13863698D02*
X11887801Y-13882746D01*
X11887801Y-13882746D02*
X11887801Y-13939888D01*
X11887801Y-13939888D02*
X11878277Y-13958936D01*
X11878277Y-13958936D02*
X11868753Y-13968460D01*
X11868753Y-13968460D02*
X11849706Y-13977984D01*
X11849706Y-13977984D02*
X11821134Y-13977984D01*
X12002087Y-13977984D02*
X11983039Y-13968460D01*
X11983039Y-13968460D02*
X11973515Y-13949412D01*
X11973515Y-13949412D02*
X11973515Y-13777984D01*
X12154468Y-13968460D02*
X12135420Y-13977984D01*
X12135420Y-13977984D02*
X12097325Y-13977984D01*
X12097325Y-13977984D02*
X12078277Y-13968460D01*
X12078277Y-13968460D02*
X12068753Y-13949412D01*
X12068753Y-13949412D02*
X12068753Y-13873222D01*
X12068753Y-13873222D02*
X12078277Y-13854174D01*
X12078277Y-13854174D02*
X12097325Y-13844650D01*
X12097325Y-13844650D02*
X12135420Y-13844650D01*
X12135420Y-13844650D02*
X12154468Y-13854174D01*
X12154468Y-13854174D02*
X12163991Y-13873222D01*
X12163991Y-13873222D02*
X12163991Y-13892269D01*
X12163991Y-13892269D02*
X12068753Y-13911317D01*
X12240182Y-13968460D02*
X12259230Y-13977984D01*
X12259230Y-13977984D02*
X12297325Y-13977984D01*
X12297325Y-13977984D02*
X12316372Y-13968460D01*
X12316372Y-13968460D02*
X12325896Y-13949412D01*
X12325896Y-13949412D02*
X12325896Y-13939888D01*
X12325896Y-13939888D02*
X12316372Y-13920841D01*
X12316372Y-13920841D02*
X12297325Y-13911317D01*
X12297325Y-13911317D02*
X12268753Y-13911317D01*
X12268753Y-13911317D02*
X12249706Y-13901793D01*
X12249706Y-13901793D02*
X12240182Y-13882746D01*
X12240182Y-13882746D02*
X12240182Y-13873222D01*
X12240182Y-13873222D02*
X12249706Y-13854174D01*
X12249706Y-13854174D02*
X12268753Y-13844650D01*
X12268753Y-13844650D02*
X12297325Y-13844650D01*
X12297325Y-13844650D02*
X12316372Y-13854174D01*
X12392563Y-14054174D02*
X12402087Y-14044650D01*
X12402087Y-14044650D02*
X12421134Y-14016079D01*
X12421134Y-14016079D02*
X12430658Y-13997031D01*
X12430658Y-13997031D02*
X12440182Y-13968460D01*
X12440182Y-13968460D02*
X12449706Y-13920841D01*
X12449706Y-13920841D02*
X12449706Y-13882746D01*
X12449706Y-13882746D02*
X12440182Y-13835127D01*
X12440182Y-13835127D02*
X12430658Y-13806555D01*
X12430658Y-13806555D02*
X12421134Y-13787508D01*
X12421134Y-13787508D02*
X12402087Y-13758936D01*
X12402087Y-13758936D02*
X12392563Y-13749412D01*
X12754468Y-14054174D02*
X12744944Y-14044650D01*
X12744944Y-14044650D02*
X12725896Y-14016079D01*
X12725896Y-14016079D02*
X12716372Y-13997031D01*
X12716372Y-13997031D02*
X12706849Y-13968460D01*
X12706849Y-13968460D02*
X12697325Y-13920841D01*
X12697325Y-13920841D02*
X12697325Y-13882746D01*
X12697325Y-13882746D02*
X12706849Y-13835127D01*
X12706849Y-13835127D02*
X12716372Y-13806555D01*
X12716372Y-13806555D02*
X12725896Y-13787508D01*
X12725896Y-13787508D02*
X12744944Y-13758936D01*
X12744944Y-13758936D02*
X12754468Y-13749412D01*
X12830658Y-13844650D02*
X12830658Y-13977984D01*
X12830658Y-13863698D02*
X12840182Y-13854174D01*
X12840182Y-13854174D02*
X12859230Y-13844650D01*
X12859230Y-13844650D02*
X12887801Y-13844650D01*
X12887801Y-13844650D02*
X12906849Y-13854174D01*
X12906849Y-13854174D02*
X12916372Y-13873222D01*
X12916372Y-13873222D02*
X12916372Y-13977984D01*
X13040182Y-13977984D02*
X13021134Y-13968460D01*
X13021134Y-13968460D02*
X13011611Y-13958936D01*
X13011611Y-13958936D02*
X13002087Y-13939888D01*
X13002087Y-13939888D02*
X13002087Y-13882746D01*
X13002087Y-13882746D02*
X13011611Y-13863698D01*
X13011611Y-13863698D02*
X13021134Y-13854174D01*
X13021134Y-13854174D02*
X13040182Y-13844650D01*
X13040182Y-13844650D02*
X13068753Y-13844650D01*
X13068753Y-13844650D02*
X13087801Y-13854174D01*
X13087801Y-13854174D02*
X13097325Y-13863698D01*
X13097325Y-13863698D02*
X13106849Y-13882746D01*
X13106849Y-13882746D02*
X13106849Y-13939888D01*
X13106849Y-13939888D02*
X13097325Y-13958936D01*
X13097325Y-13958936D02*
X13087801Y-13968460D01*
X13087801Y-13968460D02*
X13068753Y-13977984D01*
X13068753Y-13977984D02*
X13040182Y-13977984D01*
X13163992Y-13844650D02*
X13240182Y-13844650D01*
X13192563Y-13777984D02*
X13192563Y-13949412D01*
X13192563Y-13949412D02*
X13202087Y-13968460D01*
X13202087Y-13968460D02*
X13221134Y-13977984D01*
X13221134Y-13977984D02*
X13240182Y-13977984D01*
X13459230Y-13844650D02*
X13459230Y-14044650D01*
X13459230Y-13854174D02*
X13478277Y-13844650D01*
X13478277Y-13844650D02*
X13516373Y-13844650D01*
X13516373Y-13844650D02*
X13535420Y-13854174D01*
X13535420Y-13854174D02*
X13544944Y-13863698D01*
X13544944Y-13863698D02*
X13554468Y-13882746D01*
X13554468Y-13882746D02*
X13554468Y-13939888D01*
X13554468Y-13939888D02*
X13544944Y-13958936D01*
X13544944Y-13958936D02*
X13535420Y-13968460D01*
X13535420Y-13968460D02*
X13516373Y-13977984D01*
X13516373Y-13977984D02*
X13478277Y-13977984D01*
X13478277Y-13977984D02*
X13459230Y-13968460D01*
X13668753Y-13977984D02*
X13649706Y-13968460D01*
X13649706Y-13968460D02*
X13640182Y-13949412D01*
X13640182Y-13949412D02*
X13640182Y-13777984D01*
X13830658Y-13977984D02*
X13830658Y-13873222D01*
X13830658Y-13873222D02*
X13821134Y-13854174D01*
X13821134Y-13854174D02*
X13802087Y-13844650D01*
X13802087Y-13844650D02*
X13763992Y-13844650D01*
X13763992Y-13844650D02*
X13744944Y-13854174D01*
X13830658Y-13968460D02*
X13811611Y-13977984D01*
X13811611Y-13977984D02*
X13763992Y-13977984D01*
X13763992Y-13977984D02*
X13744944Y-13968460D01*
X13744944Y-13968460D02*
X13735420Y-13949412D01*
X13735420Y-13949412D02*
X13735420Y-13930365D01*
X13735420Y-13930365D02*
X13744944Y-13911317D01*
X13744944Y-13911317D02*
X13763992Y-13901793D01*
X13763992Y-13901793D02*
X13811611Y-13901793D01*
X13811611Y-13901793D02*
X13830658Y-13892269D01*
X13897325Y-13844650D02*
X13973515Y-13844650D01*
X13925896Y-13777984D02*
X13925896Y-13949412D01*
X13925896Y-13949412D02*
X13935420Y-13968460D01*
X13935420Y-13968460D02*
X13954468Y-13977984D01*
X13954468Y-13977984D02*
X13973515Y-13977984D01*
X14116373Y-13968460D02*
X14097325Y-13977984D01*
X14097325Y-13977984D02*
X14059230Y-13977984D01*
X14059230Y-13977984D02*
X14040182Y-13968460D01*
X14040182Y-13968460D02*
X14030658Y-13949412D01*
X14030658Y-13949412D02*
X14030658Y-13873222D01*
X14030658Y-13873222D02*
X14040182Y-13854174D01*
X14040182Y-13854174D02*
X14059230Y-13844650D01*
X14059230Y-13844650D02*
X14097325Y-13844650D01*
X14097325Y-13844650D02*
X14116373Y-13854174D01*
X14116373Y-13854174D02*
X14125896Y-13873222D01*
X14125896Y-13873222D02*
X14125896Y-13892269D01*
X14125896Y-13892269D02*
X14030658Y-13911317D01*
X14297325Y-13977984D02*
X14297325Y-13777984D01*
X14297325Y-13968460D02*
X14278277Y-13977984D01*
X14278277Y-13977984D02*
X14240182Y-13977984D01*
X14240182Y-13977984D02*
X14221134Y-13968460D01*
X14221134Y-13968460D02*
X14211611Y-13958936D01*
X14211611Y-13958936D02*
X14202087Y-13939888D01*
X14202087Y-13939888D02*
X14202087Y-13882746D01*
X14202087Y-13882746D02*
X14211611Y-13863698D01*
X14211611Y-13863698D02*
X14221134Y-13854174D01*
X14221134Y-13854174D02*
X14240182Y-13844650D01*
X14240182Y-13844650D02*
X14278277Y-13844650D01*
X14278277Y-13844650D02*
X14297325Y-13854174D01*
X14373515Y-14054174D02*
X14383039Y-14044650D01*
X14383039Y-14044650D02*
X14402087Y-14016079D01*
X14402087Y-14016079D02*
X14411611Y-13997031D01*
X14411611Y-13997031D02*
X14421134Y-13968460D01*
X14421134Y-13968460D02*
X14430658Y-13920841D01*
X14430658Y-13920841D02*
X14430658Y-13882746D01*
X14430658Y-13882746D02*
X14421134Y-13835127D01*
X14421134Y-13835127D02*
X14411611Y-13806555D01*
X14411611Y-13806555D02*
X14402087Y-13787508D01*
X14402087Y-13787508D02*
X14383039Y-13758936D01*
X14383039Y-13758936D02*
X14373515Y-13749412D01*
X7517500Y-14106500D02*
X7517500Y-14306500D01*
X7417500Y-14206500D02*
X7617500Y-14206500D01*
X7963991Y-14164650D02*
X7963991Y-14297984D01*
X7916372Y-14088460D02*
X7868753Y-14231317D01*
X7868753Y-14231317D02*
X7992562Y-14231317D01*
X8068753Y-14278936D02*
X8078277Y-14288460D01*
X8078277Y-14288460D02*
X8068753Y-14297984D01*
X8068753Y-14297984D02*
X8059229Y-14288460D01*
X8059229Y-14288460D02*
X8068753Y-14278936D01*
X8068753Y-14278936D02*
X8068753Y-14297984D01*
X8202086Y-14097984D02*
X8221134Y-14097984D01*
X8221134Y-14097984D02*
X8240182Y-14107508D01*
X8240182Y-14107508D02*
X8249705Y-14117031D01*
X8249705Y-14117031D02*
X8259229Y-14136079D01*
X8259229Y-14136079D02*
X8268753Y-14174174D01*
X8268753Y-14174174D02*
X8268753Y-14221793D01*
X8268753Y-14221793D02*
X8259229Y-14259888D01*
X8259229Y-14259888D02*
X8249705Y-14278936D01*
X8249705Y-14278936D02*
X8240182Y-14288460D01*
X8240182Y-14288460D02*
X8221134Y-14297984D01*
X8221134Y-14297984D02*
X8202086Y-14297984D01*
X8202086Y-14297984D02*
X8183039Y-14288460D01*
X8183039Y-14288460D02*
X8173515Y-14278936D01*
X8173515Y-14278936D02*
X8163991Y-14259888D01*
X8163991Y-14259888D02*
X8154467Y-14221793D01*
X8154467Y-14221793D02*
X8154467Y-14174174D01*
X8154467Y-14174174D02*
X8163991Y-14136079D01*
X8163991Y-14136079D02*
X8173515Y-14117031D01*
X8173515Y-14117031D02*
X8183039Y-14107508D01*
X8183039Y-14107508D02*
X8202086Y-14097984D01*
X8392563Y-14097984D02*
X8411610Y-14097984D01*
X8411610Y-14097984D02*
X8430658Y-14107508D01*
X8430658Y-14107508D02*
X8440182Y-14117031D01*
X8440182Y-14117031D02*
X8449705Y-14136079D01*
X8449705Y-14136079D02*
X8459229Y-14174174D01*
X8459229Y-14174174D02*
X8459229Y-14221793D01*
X8459229Y-14221793D02*
X8449705Y-14259888D01*
X8449705Y-14259888D02*
X8440182Y-14278936D01*
X8440182Y-14278936D02*
X8430658Y-14288460D01*
X8430658Y-14288460D02*
X8411610Y-14297984D01*
X8411610Y-14297984D02*
X8392563Y-14297984D01*
X8392563Y-14297984D02*
X8373515Y-14288460D01*
X8373515Y-14288460D02*
X8363991Y-14278936D01*
X8363991Y-14278936D02*
X8354467Y-14259888D01*
X8354467Y-14259888D02*
X8344943Y-14221793D01*
X8344943Y-14221793D02*
X8344943Y-14174174D01*
X8344943Y-14174174D02*
X8354467Y-14136079D01*
X8354467Y-14136079D02*
X8363991Y-14117031D01*
X8363991Y-14117031D02*
X8373515Y-14107508D01*
X8373515Y-14107508D02*
X8392563Y-14097984D01*
X8583039Y-14097984D02*
X8602086Y-14097984D01*
X8602086Y-14097984D02*
X8621134Y-14107508D01*
X8621134Y-14107508D02*
X8630658Y-14117031D01*
X8630658Y-14117031D02*
X8640182Y-14136079D01*
X8640182Y-14136079D02*
X8649705Y-14174174D01*
X8649705Y-14174174D02*
X8649705Y-14221793D01*
X8649705Y-14221793D02*
X8640182Y-14259888D01*
X8640182Y-14259888D02*
X8630658Y-14278936D01*
X8630658Y-14278936D02*
X8621134Y-14288460D01*
X8621134Y-14288460D02*
X8602086Y-14297984D01*
X8602086Y-14297984D02*
X8583039Y-14297984D01*
X8583039Y-14297984D02*
X8563991Y-14288460D01*
X8563991Y-14288460D02*
X8554467Y-14278936D01*
X8554467Y-14278936D02*
X8544944Y-14259888D01*
X8544944Y-14259888D02*
X8535420Y-14221793D01*
X8535420Y-14221793D02*
X8535420Y-14174174D01*
X8535420Y-14174174D02*
X8544944Y-14136079D01*
X8544944Y-14136079D02*
X8554467Y-14117031D01*
X8554467Y-14117031D02*
X8563991Y-14107508D01*
X8563991Y-14107508D02*
X8583039Y-14097984D01*
X8735420Y-14297984D02*
X8735420Y-14164650D01*
X8735420Y-14183698D02*
X8744944Y-14174174D01*
X8744944Y-14174174D02*
X8763991Y-14164650D01*
X8763991Y-14164650D02*
X8792563Y-14164650D01*
X8792563Y-14164650D02*
X8811610Y-14174174D01*
X8811610Y-14174174D02*
X8821134Y-14193222D01*
X8821134Y-14193222D02*
X8821134Y-14297984D01*
X8821134Y-14193222D02*
X8830658Y-14174174D01*
X8830658Y-14174174D02*
X8849705Y-14164650D01*
X8849705Y-14164650D02*
X8878277Y-14164650D01*
X8878277Y-14164650D02*
X8897325Y-14174174D01*
X8897325Y-14174174D02*
X8906848Y-14193222D01*
X8906848Y-14193222D02*
X8906848Y-14297984D01*
X9002086Y-14297984D02*
X9002086Y-14164650D01*
X9002086Y-14183698D02*
X9011610Y-14174174D01*
X9011610Y-14174174D02*
X9030658Y-14164650D01*
X9030658Y-14164650D02*
X9059229Y-14164650D01*
X9059229Y-14164650D02*
X9078277Y-14174174D01*
X9078277Y-14174174D02*
X9087801Y-14193222D01*
X9087801Y-14193222D02*
X9087801Y-14297984D01*
X9087801Y-14193222D02*
X9097325Y-14174174D01*
X9097325Y-14174174D02*
X9116372Y-14164650D01*
X9116372Y-14164650D02*
X9144944Y-14164650D01*
X9144944Y-14164650D02*
X9163991Y-14174174D01*
X9163991Y-14174174D02*
X9173515Y-14193222D01*
X9173515Y-14193222D02*
X9173515Y-14297984D01*
X9563991Y-14088460D02*
X9392563Y-14345603D01*
X9821134Y-14097984D02*
X9840182Y-14097984D01*
X9840182Y-14097984D02*
X9859229Y-14107508D01*
X9859229Y-14107508D02*
X9868753Y-14117031D01*
X9868753Y-14117031D02*
X9878277Y-14136079D01*
X9878277Y-14136079D02*
X9887801Y-14174174D01*
X9887801Y-14174174D02*
X9887801Y-14221793D01*
X9887801Y-14221793D02*
X9878277Y-14259888D01*
X9878277Y-14259888D02*
X9868753Y-14278936D01*
X9868753Y-14278936D02*
X9859229Y-14288460D01*
X9859229Y-14288460D02*
X9840182Y-14297984D01*
X9840182Y-14297984D02*
X9821134Y-14297984D01*
X9821134Y-14297984D02*
X9802087Y-14288460D01*
X9802087Y-14288460D02*
X9792563Y-14278936D01*
X9792563Y-14278936D02*
X9783039Y-14259888D01*
X9783039Y-14259888D02*
X9773515Y-14221793D01*
X9773515Y-14221793D02*
X9773515Y-14174174D01*
X9773515Y-14174174D02*
X9783039Y-14136079D01*
X9783039Y-14136079D02*
X9792563Y-14117031D01*
X9792563Y-14117031D02*
X9802087Y-14107508D01*
X9802087Y-14107508D02*
X9821134Y-14097984D01*
X9973515Y-14278936D02*
X9983039Y-14288460D01*
X9983039Y-14288460D02*
X9973515Y-14297984D01*
X9973515Y-14297984D02*
X9963991Y-14288460D01*
X9963991Y-14288460D02*
X9973515Y-14278936D01*
X9973515Y-14278936D02*
X9973515Y-14297984D01*
X10173515Y-14297984D02*
X10059229Y-14297984D01*
X10116372Y-14297984D02*
X10116372Y-14097984D01*
X10116372Y-14097984D02*
X10097325Y-14126555D01*
X10097325Y-14126555D02*
X10078277Y-14145603D01*
X10078277Y-14145603D02*
X10059229Y-14155127D01*
X10354468Y-14097984D02*
X10259229Y-14097984D01*
X10259229Y-14097984D02*
X10249706Y-14193222D01*
X10249706Y-14193222D02*
X10259229Y-14183698D01*
X10259229Y-14183698D02*
X10278277Y-14174174D01*
X10278277Y-14174174D02*
X10325896Y-14174174D01*
X10325896Y-14174174D02*
X10344944Y-14183698D01*
X10344944Y-14183698D02*
X10354468Y-14193222D01*
X10354468Y-14193222D02*
X10363991Y-14212269D01*
X10363991Y-14212269D02*
X10363991Y-14259888D01*
X10363991Y-14259888D02*
X10354468Y-14278936D01*
X10354468Y-14278936D02*
X10344944Y-14288460D01*
X10344944Y-14288460D02*
X10325896Y-14297984D01*
X10325896Y-14297984D02*
X10278277Y-14297984D01*
X10278277Y-14297984D02*
X10259229Y-14288460D01*
X10259229Y-14288460D02*
X10249706Y-14278936D01*
X10430658Y-14097984D02*
X10563991Y-14097984D01*
X10563991Y-14097984D02*
X10478277Y-14297984D01*
X10735420Y-14097984D02*
X10640182Y-14097984D01*
X10640182Y-14097984D02*
X10630658Y-14193222D01*
X10630658Y-14193222D02*
X10640182Y-14183698D01*
X10640182Y-14183698D02*
X10659229Y-14174174D01*
X10659229Y-14174174D02*
X10706849Y-14174174D01*
X10706849Y-14174174D02*
X10725896Y-14183698D01*
X10725896Y-14183698D02*
X10735420Y-14193222D01*
X10735420Y-14193222D02*
X10744944Y-14212269D01*
X10744944Y-14212269D02*
X10744944Y-14259888D01*
X10744944Y-14259888D02*
X10735420Y-14278936D01*
X10735420Y-14278936D02*
X10725896Y-14288460D01*
X10725896Y-14288460D02*
X10706849Y-14297984D01*
X10706849Y-14297984D02*
X10659229Y-14297984D01*
X10659229Y-14297984D02*
X10640182Y-14288460D01*
X10640182Y-14288460D02*
X10630658Y-14278936D01*
X10821134Y-14097984D02*
X10821134Y-14136079D01*
X10897325Y-14097984D02*
X10897325Y-14136079D01*
X11192563Y-14374174D02*
X11183039Y-14364650D01*
X11183039Y-14364650D02*
X11163991Y-14336079D01*
X11163991Y-14336079D02*
X11154468Y-14317031D01*
X11154468Y-14317031D02*
X11144944Y-14288460D01*
X11144944Y-14288460D02*
X11135420Y-14240841D01*
X11135420Y-14240841D02*
X11135420Y-14202746D01*
X11135420Y-14202746D02*
X11144944Y-14155127D01*
X11144944Y-14155127D02*
X11154468Y-14126555D01*
X11154468Y-14126555D02*
X11163991Y-14107508D01*
X11163991Y-14107508D02*
X11183039Y-14078936D01*
X11183039Y-14078936D02*
X11192563Y-14069412D01*
X11278277Y-14297984D02*
X11316372Y-14297984D01*
X11316372Y-14297984D02*
X11335420Y-14288460D01*
X11335420Y-14288460D02*
X11344944Y-14278936D01*
X11344944Y-14278936D02*
X11363991Y-14250365D01*
X11363991Y-14250365D02*
X11373515Y-14212269D01*
X11373515Y-14212269D02*
X11373515Y-14136079D01*
X11373515Y-14136079D02*
X11363991Y-14117031D01*
X11363991Y-14117031D02*
X11354468Y-14107508D01*
X11354468Y-14107508D02*
X11335420Y-14097984D01*
X11335420Y-14097984D02*
X11297325Y-14097984D01*
X11297325Y-14097984D02*
X11278277Y-14107508D01*
X11278277Y-14107508D02*
X11268753Y-14117031D01*
X11268753Y-14117031D02*
X11259229Y-14136079D01*
X11259229Y-14136079D02*
X11259229Y-14183698D01*
X11259229Y-14183698D02*
X11268753Y-14202746D01*
X11268753Y-14202746D02*
X11278277Y-14212269D01*
X11278277Y-14212269D02*
X11297325Y-14221793D01*
X11297325Y-14221793D02*
X11335420Y-14221793D01*
X11335420Y-14221793D02*
X11354468Y-14212269D01*
X11354468Y-14212269D02*
X11363991Y-14202746D01*
X11363991Y-14202746D02*
X11373515Y-14183698D01*
X11611610Y-14297984D02*
X11611610Y-14097984D01*
X11697325Y-14297984D02*
X11697325Y-14193222D01*
X11697325Y-14193222D02*
X11687801Y-14174174D01*
X11687801Y-14174174D02*
X11668753Y-14164650D01*
X11668753Y-14164650D02*
X11640182Y-14164650D01*
X11640182Y-14164650D02*
X11621134Y-14174174D01*
X11621134Y-14174174D02*
X11611610Y-14183698D01*
X11821134Y-14297984D02*
X11802087Y-14288460D01*
X11802087Y-14288460D02*
X11792563Y-14278936D01*
X11792563Y-14278936D02*
X11783039Y-14259888D01*
X11783039Y-14259888D02*
X11783039Y-14202746D01*
X11783039Y-14202746D02*
X11792563Y-14183698D01*
X11792563Y-14183698D02*
X11802087Y-14174174D01*
X11802087Y-14174174D02*
X11821134Y-14164650D01*
X11821134Y-14164650D02*
X11849706Y-14164650D01*
X11849706Y-14164650D02*
X11868753Y-14174174D01*
X11868753Y-14174174D02*
X11878277Y-14183698D01*
X11878277Y-14183698D02*
X11887801Y-14202746D01*
X11887801Y-14202746D02*
X11887801Y-14259888D01*
X11887801Y-14259888D02*
X11878277Y-14278936D01*
X11878277Y-14278936D02*
X11868753Y-14288460D01*
X11868753Y-14288460D02*
X11849706Y-14297984D01*
X11849706Y-14297984D02*
X11821134Y-14297984D01*
X12002087Y-14297984D02*
X11983039Y-14288460D01*
X11983039Y-14288460D02*
X11973515Y-14269412D01*
X11973515Y-14269412D02*
X11973515Y-14097984D01*
X12154468Y-14288460D02*
X12135420Y-14297984D01*
X12135420Y-14297984D02*
X12097325Y-14297984D01*
X12097325Y-14297984D02*
X12078277Y-14288460D01*
X12078277Y-14288460D02*
X12068753Y-14269412D01*
X12068753Y-14269412D02*
X12068753Y-14193222D01*
X12068753Y-14193222D02*
X12078277Y-14174174D01*
X12078277Y-14174174D02*
X12097325Y-14164650D01*
X12097325Y-14164650D02*
X12135420Y-14164650D01*
X12135420Y-14164650D02*
X12154468Y-14174174D01*
X12154468Y-14174174D02*
X12163991Y-14193222D01*
X12163991Y-14193222D02*
X12163991Y-14212269D01*
X12163991Y-14212269D02*
X12068753Y-14231317D01*
X12240182Y-14288460D02*
X12259230Y-14297984D01*
X12259230Y-14297984D02*
X12297325Y-14297984D01*
X12297325Y-14297984D02*
X12316372Y-14288460D01*
X12316372Y-14288460D02*
X12325896Y-14269412D01*
X12325896Y-14269412D02*
X12325896Y-14259888D01*
X12325896Y-14259888D02*
X12316372Y-14240841D01*
X12316372Y-14240841D02*
X12297325Y-14231317D01*
X12297325Y-14231317D02*
X12268753Y-14231317D01*
X12268753Y-14231317D02*
X12249706Y-14221793D01*
X12249706Y-14221793D02*
X12240182Y-14202746D01*
X12240182Y-14202746D02*
X12240182Y-14193222D01*
X12240182Y-14193222D02*
X12249706Y-14174174D01*
X12249706Y-14174174D02*
X12268753Y-14164650D01*
X12268753Y-14164650D02*
X12297325Y-14164650D01*
X12297325Y-14164650D02*
X12316372Y-14174174D01*
X12392563Y-14374174D02*
X12402087Y-14364650D01*
X12402087Y-14364650D02*
X12421134Y-14336079D01*
X12421134Y-14336079D02*
X12430658Y-14317031D01*
X12430658Y-14317031D02*
X12440182Y-14288460D01*
X12440182Y-14288460D02*
X12449706Y-14240841D01*
X12449706Y-14240841D02*
X12449706Y-14202746D01*
X12449706Y-14202746D02*
X12440182Y-14155127D01*
X12440182Y-14155127D02*
X12430658Y-14126555D01*
X12430658Y-14126555D02*
X12421134Y-14107508D01*
X12421134Y-14107508D02*
X12402087Y-14078936D01*
X12402087Y-14078936D02*
X12392563Y-14069412D01*
X12754468Y-14374174D02*
X12744944Y-14364650D01*
X12744944Y-14364650D02*
X12725896Y-14336079D01*
X12725896Y-14336079D02*
X12716372Y-14317031D01*
X12716372Y-14317031D02*
X12706849Y-14288460D01*
X12706849Y-14288460D02*
X12697325Y-14240841D01*
X12697325Y-14240841D02*
X12697325Y-14202746D01*
X12697325Y-14202746D02*
X12706849Y-14155127D01*
X12706849Y-14155127D02*
X12716372Y-14126555D01*
X12716372Y-14126555D02*
X12725896Y-14107508D01*
X12725896Y-14107508D02*
X12744944Y-14078936D01*
X12744944Y-14078936D02*
X12754468Y-14069412D01*
X12830658Y-14164650D02*
X12830658Y-14297984D01*
X12830658Y-14183698D02*
X12840182Y-14174174D01*
X12840182Y-14174174D02*
X12859230Y-14164650D01*
X12859230Y-14164650D02*
X12887801Y-14164650D01*
X12887801Y-14164650D02*
X12906849Y-14174174D01*
X12906849Y-14174174D02*
X12916372Y-14193222D01*
X12916372Y-14193222D02*
X12916372Y-14297984D01*
X13040182Y-14297984D02*
X13021134Y-14288460D01*
X13021134Y-14288460D02*
X13011611Y-14278936D01*
X13011611Y-14278936D02*
X13002087Y-14259888D01*
X13002087Y-14259888D02*
X13002087Y-14202746D01*
X13002087Y-14202746D02*
X13011611Y-14183698D01*
X13011611Y-14183698D02*
X13021134Y-14174174D01*
X13021134Y-14174174D02*
X13040182Y-14164650D01*
X13040182Y-14164650D02*
X13068753Y-14164650D01*
X13068753Y-14164650D02*
X13087801Y-14174174D01*
X13087801Y-14174174D02*
X13097325Y-14183698D01*
X13097325Y-14183698D02*
X13106849Y-14202746D01*
X13106849Y-14202746D02*
X13106849Y-14259888D01*
X13106849Y-14259888D02*
X13097325Y-14278936D01*
X13097325Y-14278936D02*
X13087801Y-14288460D01*
X13087801Y-14288460D02*
X13068753Y-14297984D01*
X13068753Y-14297984D02*
X13040182Y-14297984D01*
X13163992Y-14164650D02*
X13240182Y-14164650D01*
X13192563Y-14097984D02*
X13192563Y-14269412D01*
X13192563Y-14269412D02*
X13202087Y-14288460D01*
X13202087Y-14288460D02*
X13221134Y-14297984D01*
X13221134Y-14297984D02*
X13240182Y-14297984D01*
X13459230Y-14164650D02*
X13459230Y-14364650D01*
X13459230Y-14174174D02*
X13478277Y-14164650D01*
X13478277Y-14164650D02*
X13516373Y-14164650D01*
X13516373Y-14164650D02*
X13535420Y-14174174D01*
X13535420Y-14174174D02*
X13544944Y-14183698D01*
X13544944Y-14183698D02*
X13554468Y-14202746D01*
X13554468Y-14202746D02*
X13554468Y-14259888D01*
X13554468Y-14259888D02*
X13544944Y-14278936D01*
X13544944Y-14278936D02*
X13535420Y-14288460D01*
X13535420Y-14288460D02*
X13516373Y-14297984D01*
X13516373Y-14297984D02*
X13478277Y-14297984D01*
X13478277Y-14297984D02*
X13459230Y-14288460D01*
X13668753Y-14297984D02*
X13649706Y-14288460D01*
X13649706Y-14288460D02*
X13640182Y-14269412D01*
X13640182Y-14269412D02*
X13640182Y-14097984D01*
X13830658Y-14297984D02*
X13830658Y-14193222D01*
X13830658Y-14193222D02*
X13821134Y-14174174D01*
X13821134Y-14174174D02*
X13802087Y-14164650D01*
X13802087Y-14164650D02*
X13763992Y-14164650D01*
X13763992Y-14164650D02*
X13744944Y-14174174D01*
X13830658Y-14288460D02*
X13811611Y-14297984D01*
X13811611Y-14297984D02*
X13763992Y-14297984D01*
X13763992Y-14297984D02*
X13744944Y-14288460D01*
X13744944Y-14288460D02*
X13735420Y-14269412D01*
X13735420Y-14269412D02*
X13735420Y-14250365D01*
X13735420Y-14250365D02*
X13744944Y-14231317D01*
X13744944Y-14231317D02*
X13763992Y-14221793D01*
X13763992Y-14221793D02*
X13811611Y-14221793D01*
X13811611Y-14221793D02*
X13830658Y-14212269D01*
X13897325Y-14164650D02*
X13973515Y-14164650D01*
X13925896Y-14097984D02*
X13925896Y-14269412D01*
X13925896Y-14269412D02*
X13935420Y-14288460D01*
X13935420Y-14288460D02*
X13954468Y-14297984D01*
X13954468Y-14297984D02*
X13973515Y-14297984D01*
X14116373Y-14288460D02*
X14097325Y-14297984D01*
X14097325Y-14297984D02*
X14059230Y-14297984D01*
X14059230Y-14297984D02*
X14040182Y-14288460D01*
X14040182Y-14288460D02*
X14030658Y-14269412D01*
X14030658Y-14269412D02*
X14030658Y-14193222D01*
X14030658Y-14193222D02*
X14040182Y-14174174D01*
X14040182Y-14174174D02*
X14059230Y-14164650D01*
X14059230Y-14164650D02*
X14097325Y-14164650D01*
X14097325Y-14164650D02*
X14116373Y-14174174D01*
X14116373Y-14174174D02*
X14125896Y-14193222D01*
X14125896Y-14193222D02*
X14125896Y-14212269D01*
X14125896Y-14212269D02*
X14030658Y-14231317D01*
X14297325Y-14297984D02*
X14297325Y-14097984D01*
X14297325Y-14288460D02*
X14278277Y-14297984D01*
X14278277Y-14297984D02*
X14240182Y-14297984D01*
X14240182Y-14297984D02*
X14221134Y-14288460D01*
X14221134Y-14288460D02*
X14211611Y-14278936D01*
X14211611Y-14278936D02*
X14202087Y-14259888D01*
X14202087Y-14259888D02*
X14202087Y-14202746D01*
X14202087Y-14202746D02*
X14211611Y-14183698D01*
X14211611Y-14183698D02*
X14221134Y-14174174D01*
X14221134Y-14174174D02*
X14240182Y-14164650D01*
X14240182Y-14164650D02*
X14278277Y-14164650D01*
X14278277Y-14164650D02*
X14297325Y-14174174D01*
X14373515Y-14374174D02*
X14383039Y-14364650D01*
X14383039Y-14364650D02*
X14402087Y-14336079D01*
X14402087Y-14336079D02*
X14411611Y-14317031D01*
X14411611Y-14317031D02*
X14421134Y-14288460D01*
X14421134Y-14288460D02*
X14430658Y-14240841D01*
X14430658Y-14240841D02*
X14430658Y-14202746D01*
X14430658Y-14202746D02*
X14421134Y-14155127D01*
X14421134Y-14155127D02*
X14411611Y-14126555D01*
X14411611Y-14126555D02*
X14402087Y-14107508D01*
X14402087Y-14107508D02*
X14383039Y-14078936D01*
X14383039Y-14078936D02*
X14373515Y-14069412D01*
M02*
