M48
; DRILL file KiCad 10.0.4 date 2026-07-01T11:01:46
; FORMAT={-:-/ absolute / metric / decimal}
; #@! TF.CreationDate,2026-07-01T11:01:46-05:00
; #@! TF.GenerationSoftware,Kicad,Pcbnew,10.0.4
; #@! TF.FileFunction,NonPlated,1,2,NPTH
FMAT,2
METRIC
; #@! TA.AperFunction,NonPlated,NPTH,ComponentDrill
T1C1.700
; #@! TA.AperFunction,NonPlated,NPTH,ComponentDrill
T2C3.200
; #@! TA.AperFunction,NonPlated,NPTH,ComponentDrill
T3C4.000
%
G90
G05
T1
X90.17Y-76.2
X90.17Y-95.25
X90.17Y-114.3
X100.33Y-76.2
X100.33Y-95.25
X100.33Y-114.3
X109.22Y-76.2
X109.22Y-95.25
X109.22Y-114.3
X119.38Y-76.2
X119.38Y-95.25
X119.38Y-114.3
X128.27Y-76.2
X128.27Y-95.25
X128.27Y-114.3
X138.43Y-76.2
X138.43Y-95.25
X138.43Y-114.3
T2
X81.0Y-35.0
X81.0Y-125.0
X148.0Y-35.0
X148.0Y-125.0
T3
X95.25Y-76.2
X95.25Y-95.25
X95.25Y-114.3
X114.3Y-76.2
X114.3Y-95.25
X114.3Y-114.3
X133.35Y-76.2
X133.35Y-95.25
X133.35Y-114.3
M30
