M48
; DRILL file KiCad 10.0.4 date 2026-07-01T11:01:46
; FORMAT={-:-/ absolute / metric / decimal}
; #@! TF.CreationDate,2026-07-01T11:01:46-05:00
; #@! TF.GenerationSoftware,Kicad,Pcbnew,10.0.4
; #@! TF.FileFunction,Plated,1,2,PTH
FMAT,2
METRIC
; #@! TA.AperFunction,Plated,PTH,ViaDrill
T1C0.300
; #@! TA.AperFunction,Plated,PTH,ComponentDrill
T2C0.800
; #@! TA.AperFunction,Plated,PTH,ComponentDrill
T3C1.000
; #@! TA.AperFunction,Plated,PTH,ComponentDrill
T4C1.500
%
G90
G05
T1
X85.625Y-70.495
X86.075Y-67.0
X89.886Y-50.114
X90.19Y-50.854
X90.19Y-57.024
X90.815Y-65.0
X90.815Y-49.276
X91.44Y-70.495
X91.44Y-70.495
X91.44Y-111.76
X92.0Y-89.545
X103.0Y-89.545
X106.0Y-89.545
X108.0Y-41.0
X110.0Y-67.81
X110.0Y-70.495
X116.0Y-42.535
X120.59Y-104.14
X122.0Y-70.495
X127.625Y-66.688
T2
X91.44Y-67.31
X91.44Y-86.36
X95.25Y-105.41
X99.06Y-67.31
X99.06Y-86.36
X102.87Y-105.41
X107.95Y-67.31
X109.22Y-105.41
X113.03Y-86.36
X115.57Y-67.31
X116.84Y-105.41
X120.65Y-86.36
X125.73Y-67.31
X129.54Y-105.41
X133.35Y-67.31
X133.35Y-86.36
X137.16Y-105.41
X140.97Y-86.36
T3
X86.64Y-54.61
X86.64Y-57.15
X86.64Y-59.69
X86.64Y-62.23
X88.895Y-33.0
X88.895Y-35.54
X88.895Y-38.08
X88.895Y-40.62
X88.895Y-43.16
X88.895Y-45.7
X88.895Y-48.24
X104.145Y-33.0
X104.145Y-35.54
X104.145Y-38.08
X104.145Y-40.62
X104.145Y-43.16
X104.145Y-45.7
X104.145Y-48.24
X129.01Y-55.88
X129.01Y-58.38
X129.01Y-60.88
X143.51Y-55.88
X143.51Y-60.88
T4
X91.44Y-73.66
X91.44Y-92.71
X91.44Y-111.76
X97.79Y-71.12
X97.79Y-90.17
X97.79Y-109.22
X110.49Y-73.66
X110.49Y-92.71
X110.49Y-111.76
X116.84Y-71.12
X116.84Y-90.17
X116.84Y-109.22
X129.54Y-73.66
X129.54Y-92.71
X129.54Y-111.76
X135.89Y-71.12
X135.89Y-90.17
X135.89Y-109.22
T4
X135.86Y-52.78G85X137.16Y-52.78
G05
X135.86Y-63.98G85X137.16Y-63.98
G05
M30
